<svg xmlns="http://www.w3.org/2000/svg" xmlns:xlink="http://www.w3.org/1999/xlink">
  <defs/>
  <g>
    <path stroke="none" fill="#FFFFFF" d="M-21.05 5 Q-23.1 5 -24.55 3.55 -26.05 2.05 -26.05 0 -26.05 -2.05 -24.55 -3.5 -23.1 -5 -21.05 -5 L11.8 -5 8.9 -7.9 Q8 -8.8 8 -10.05 8 -11.3 8.9 -12.15 9.75 -13.05 11 -13.05 12.25 -13.05 13.15 -12.15 L23.2 -2.1 Q24.05 -1.25 24.05 0 24.05 1.25 23.2 2.1 L13.15 12.15 Q12.25 13.05 11.05 13.05 9.8 13.05 8.9 12.2 8 11.3 8 10.1 8 8.85 8.9 7.95 L11.85 5 -21.05 5"/>
  </g>
</svg>