<svg xmlns="http://www.w3.org/2000/svg" xmlns:xlink="http://www.w3.org/1999/xlink">
  <defs/>
  <g>
    <path stroke="none" fill="#FFFFFF" d="M20.15 12.15 Q19.25 13.05 18.05 13.05 16.8 13.05 15.9 12.2 15 11.3 15 10.1 15 8.85 15.9 7.95 L18.85 5 -18.8 5 -15.85 7.95 Q-15 8.8 -15 10.05 -15 11.3 -15.85 12.2 -16.75 13.05 -18 13.05 -19.25 13.05 -20.1 12.2 L-30.15 2.15 Q-31.05 1.25 -31.05 0 -31.05 -1.25 -30.15 -2.1 L-20.1 -12.15 Q-19.25 -13.05 -18 -13.05 -16.8 -13.05 -15.9 -12.15 -15 -11.3 -15 -10.05 -15 -8.85 -15.85 -7.95 L-18.8 -5 18.8 -5 15.9 -7.9 Q15 -8.8 15 -10.05 15 -11.3 15.9 -12.15 16.75 -13.05 18 -13.05 19.25 -13.05 20.15 -12.15 L30.2 -2.1 Q31.05 -1.25 31.05 0 31.05 1.25 30.2 2.1 L20.15 12.15"/>
  </g>
</svg>