<svg xmlns="http://www.w3.org/2000/svg" xmlns:xlink="http://www.w3.org/1999/xlink">
  <defs/>
  <g>
    <path stroke="none" fill="#FFFFFF" d="M10.15 12.7 L10.2 12.7 Q15.25 9.75 16.8 4.2 18.25 -1.45 15.35 -6.5 12.45 -11.5 6.8 -13 1.2 -14.55 -3.85 -11.65 -8.85 -8.75 -10.35 -3.1 L-10.35 -3.05 Q-10.95 -1 -10.9 0.95 L-9.8 -0.8 Q-9.15 -1.9 -7.9 -2.15 -6.75 -2.45 -5.65 -1.8 -4.6 -1.15 -4.3 0.1 -4.05 1.25 -4.7 2.35 L-11.6 13.45 Q-12.05 14.2 -12.85 14.6 L-14.55 14.85 Q-15.45 14.7 -16.1 14.1 L-26.25 5.25 Q-27.2 4.45 -27.3 3.2 -27.4 1.95 -26.55 1.05 -25.75 0.1 -24.5 0 -23.25 -0.05 -22.3 0.75 L-20.9 2 Q-21.1 -1.8 -20 -5.7 -17.45 -15.35 -8.85 -20.3 -0.2 -25.35 9.45 -22.65 L9.4 -22.65 Q19.05 -20.05 24 -11.45 L24 -11.5 Q28.95 -2.85 26.45 6.8 23.85 16.3 15.25 21.3 L15.2 21.35 11.2 23.3 7.4 23.15 Q5.45 22.3 4.75 20.4 4 18.45 4.85 16.6 5.7 14.7 7.65 13.95 L10.15 12.7"/>
  </g>
</svg>