<svg xmlns="http://www.w3.org/2000/svg" xmlns:xlink="http://www.w3.org/1999/xlink">
  <defs/>
  <g>
    <path stroke="none" fill="#FFFFFF" d="M-15.2 12.8 Q-15.95 14.15 -17.5 14.6 L-18.6 14.75 -20.5 14.25 Q-22 13.5 -22.55 12.1 L-22.8 11.1 -22.8 10.9 Q-22.85 10 -22.45 9.25 -16.85 -3.7 3.6 -6.45 L4.6 -6.55 10.65 -7.15 7.9 -9.9 Q7 -10.8 7 -12.05 7 -13.3 7.9 -14.15 8.75 -15.05 10 -15.05 11.25 -15.05 12.15 -14.15 L22.2 -4.1 Q23.05 -3.25 23.05 -2 23.05 -0.75 22.2 0.1 L12.15 10.15 Q11.25 11.05 10.05 11.05 8.8 11.05 7.9 10.2 7 9.3 7 8.1 7 6.85 7.9 5.95 L11.1 2.75 10.1 2.8 Q-9.6 2.65 -15.2 12.8"/>
  </g>
</svg>