<svg xmlns="http://www.w3.org/2000/svg" xmlns:xlink="http://www.w3.org/1999/xlink">
  <defs/>
  <g>
    <path stroke="none" fill="#FFFFFF" d="M-25 -22 Q-25 -23.25 -24.1 -24.1 -23.25 -25 -22 -25 L-8 -25 Q-6.75 -25 -5.85 -24.1 -5 -23.25 -5 -22 -5 -20.75 -5.85 -19.85 -6.75 -19 -8 -19 L-11.95 -19 -3.9 -10.95 -10.9 -3.85 -19 -11.95 -19 -8 Q-19 -6.75 -19.85 -5.85 -20.75 -5 -22 -5 -23.25 -5 -24.1 -5.85 -25 -6.75 -25 -8 L-25 -22 M25 22 Q25 23.25 24.15 24.15 23.25 25 22 25 L8 25 Q6.75 25 5.9 24.15 5 23.25 5 22 5 20.75 5.9 19.9 6.75 19 8 19 L11.95 19 4.3 11.35 7.85 7.8 7.85 7.85 11.35 4.3 19 11.95 19 8 Q19 6.75 19.9 5.9 20.75 5 22 5 23.25 5 24.15 5.9 25 6.75 25 8 L25 22 M25 -8 Q25 -6.75 24.15 -5.85 23.25 -5 22 -5 20.75 -5 19.9 -5.85 19 -6.75 19 -8 L19 -11.95 -11.95 19 -8 19 Q-6.75 19 -5.85 19.9 -5 20.75 -5 22 -5 23.25 -5.85 24.15 -6.75 25 -8 25 L-22 25 Q-23.25 25 -24.1 24.15 -25 23.25 -25 22 L-25 8 Q-25 6.75 -24.1 5.9 -23.25 5 -22 5 -20.75 5 -19.85 5.9 -19 6.75 -19 8 L-19 11.95 11.95 -19 8 -19 Q6.75 -19 5.9 -19.85 5 -20.75 5 -22 5 -23.25 5.9 -24.1 6.75 -25 8 -25 L22 -25 Q23.25 -25 24.15 -24.1 25 -23.25 25 -22 L25 -8"/>
  </g>
</svg>