<svg xmlns="http://www.w3.org/2000/svg" xmlns:xlink="http://www.w3.org/1999/xlink">
  <defs/>
  <g>
    <path stroke="none" fill="#FFFFFF" d="M29 -0.8 Q29 8.4 22.5 14.95 15.95 21.45 6.75 21.45 3.35 21.55 -1.45 19.8 L-0.25 22.3 Q0.3 23.4 -0.1 24.6 -0.5 25.75 -1.6 26.3 L-3.9 26.45 Q-5.1 26.05 -5.65 24.95 L-10.35 15.25 -11.25 13.55 -11.4 13.15 -12.15 11.6 Q-12.55 10.75 -12.4 9.9 -12.3 9 -11.7 8.35 -11.15 7.65 -10.3 7.4 L3.45 3.25 Q4.65 2.9 5.75 3.5 6.8 4.05 7.2 5.25 7.5 6.45 6.95 7.55 6.35 8.6 5.15 9 L1.3 10.15 Q4.5 11.35 6.75 11.45 11.85 11.45 15.45 7.9 19 4.3 19 -0.8 L19 -0.85 Q18.7 -2.9 19.95 -4.55 21.2 -6.2 23.25 -6.5 25.3 -6.8 26.95 -5.55 28.6 -4.3 28.9 -2.25 L29 -0.8 M-29 0.7 Q-29 -8.5 -22.45 -15 -15.95 -21.55 -6.75 -21.55 -3.15 -21.65 2.05 -19.65 L0.8 -22.25 Q0.25 -23.35 0.7 -24.5 1.1 -25.7 2.2 -26.25 L4.5 -26.35 Q5.65 -25.95 6.2 -24.85 L12.7 -11.5 Q13.1 -10.7 13 -9.8 12.85 -8.95 12.3 -8.25 11.75 -7.6 10.9 -7.3 L-2.85 -3.15 Q-4.05 -2.8 -5.15 -3.4 -6.25 -4 -6.6 -5.15 -7 -6.35 -6.4 -7.45 -5.8 -8.55 -4.6 -8.9 L-0.85 -10.05 Q-4.35 -11.45 -6.75 -11.55 -11.85 -11.55 -15.4 -7.95 -19 -4.4 -19 0.7 L-19 0.75 Q-18.7 2.8 -19.95 4.45 -21.2 6.1 -23.25 6.4 -25.3 6.7 -26.95 5.45 -28.6 4.2 -28.9 2.15 L-29 0.7"/>
  </g>
</svg>