<svg xmlns="http://www.w3.org/2000/svg" xmlns:xlink="http://www.w3.org/1999/xlink">
  <defs/>
  <g>
    <path stroke="none" fill="#FFFFFF" d="M13.15 24.15 Q12.25 25.05 11.05 25.05 9.8 25.05 8.9 24.2 8 23.3 8 22.1 8 20.85 8.9 19.95 L11.85 17 -21.05 17 Q-23.1 17 -24.55 15.55 -26.05 14.05 -26.05 12 -26.05 9.95 -24.55 8.5 -23.1 7 -21.05 7 L11.8 7 8.9 4.1 Q8 3.2 8 1.95 8 0.7 8.9 -0.15 9.75 -1.05 11 -1.05 12.25 -1.05 13.15 -0.15 L23.2 9.9 Q24.05 10.75 24.05 12 24.05 13.25 23.2 14.1 L13.15 24.15 M-23.15 -9.85 Q-24.05 -10.75 -24.05 -12 -24.05 -13.25 -23.15 -14.1 L-13.1 -24.15 Q-12.25 -25.05 -11 -25.05 -9.8 -25.05 -8.9 -24.15 -8 -23.3 -8 -22.05 -8 -20.85 -8.85 -19.95 L-11.8 -17 21.05 -17 Q23.1 -17 24.6 -15.5 26.05 -14.05 26.05 -12 26.05 -9.95 24.6 -8.45 23.1 -7 21.05 -7 L-11.8 -7 -8.85 -4.05 Q-8 -3.2 -8 -1.95 -8 -0.7 -8.85 0.2 -9.75 1.05 -11 1.05 -12.25 1.05 -13.1 0.2 L-23.15 -9.85"/>
  </g>
</svg>