<svg xmlns="http://www.w3.org/2000/svg" xmlns:xlink="http://www.w3.org/1999/xlink">
  <defs/>
  <g>
    <path stroke="none" fill="#FFFFFF" d="M9.6 -19.9 Q7.25 -22.85 8.35 -26 L8.65 -26.45 9 -26.65 Q12.25 -27.8 15.1 -25.4 18.2 -22.85 16.25 -19.25 L15.8 -18.8 Q12.25 -16.8 9.6 -19.9 M17.45 -16.35 Q19.65 -20.7 23.85 -21 L24.5 -20.9 24.95 -20.6 Q28 -17.3 26.55 -12.65 25.3 -7.5 20 -8 L19.55 -8.1 19.3 -7.7 Q16.2 -3.5 11.5 -5.8 7.3 -8.05 7 -12.4 L7.1 -13.1 7.35 -13.55 Q10.6 -16.7 15.1 -15.25 L16.85 -14.55 17.45 -16.35 M21.75 -0.75 Q25.25 -3.3 28.9 -1.8 L29.4 -1.45 29.65 -1.1 Q30.85 2.85 27.8 5.95 24.7 9.5 20.5 6.95 L20.15 6.65 19.85 6.9 Q15.6 9 12.6 5.25 10.05 1.6 11.55 -1.85 L11.9 -2.45 12.25 -2.65 Q16.2 -3.85 19.35 -0.85 L20.55 0.45 21.75 -0.75 M-21.75 -0.75 L-20.55 0.45 -19.35 -0.85 Q-16.2 -3.85 -12.25 -2.65 L-11.9 -2.45 -11.55 -1.85 Q-10.05 1.6 -12.6 5.25 -15.6 9 -19.85 6.9 L-20.15 6.65 -20.5 6.95 Q-24.7 9.5 -27.8 5.95 -30.85 2.85 -29.65 -1.1 L-29.4 -1.45 -28.9 -1.8 Q-25.25 -3.3 -21.75 -0.75 M-17.45 -16.35 L-16.85 -14.55 -15.1 -15.25 Q-10.6 -16.7 -7.35 -13.55 L-7.1 -13.1 -7 -12.4 Q-7.3 -8.05 -11.5 -5.8 -16.2 -3.5 -19.3 -7.7 L-19.55 -8.1 -20 -8 Q-25.3 -7.5 -26.55 -12.65 -28 -17.3 -24.95 -20.6 L-24.5 -20.9 -23.85 -21 Q-19.65 -20.7 -17.45 -16.35 M-9.6 -19.9 Q-12.25 -16.8 -15.8 -18.8 L-16.25 -19.25 Q-18.2 -22.85 -15.1 -25.4 -12.25 -27.8 -9 -26.65 L-8.65 -26.45 -8.35 -26 Q-7.25 -22.85 -9.6 -19.9 M15.95 23.4 Q16.85 24.2 17 25.45 17.1 26.65 16.3 27.65 15.5 28.55 14.3 28.7 13.05 28.8 12.1 28 6.85 23.6 0.15 21.4 -6.5 23.6 -11.75 28 -12.75 28.8 -13.95 28.7 -15.2 28.55 -16 27.65 -16.8 26.65 -16.65 25.45 -16.55 24.2 -15.6 23.4 -12.85 21.1 -9.7 19.3 L-13.75 19 Q-14.75 18.95 -15.45 18.4 -18.25 19.95 -21 17.7 -24.45 15.2 -23.9 11.35 L-23.75 10.95 -23.25 10.5 Q-20.15 8.65 -16.45 10.4 -15.65 10.8 -15.1 11.35 L-14.15 9.9 Q-11.7 6.6 -7.8 7.05 L-7.45 7.2 -7.05 7.7 Q-5.25 10.4 -6.45 13.65 L0.2 15.15 Q3.2 14.25 6.5 13.7 5.25 10.45 7.05 7.7 L7.45 7.2 7.8 7.05 Q11.7 6.6 14.15 9.9 L15.1 11.35 Q15.65 10.8 16.45 10.4 20.15 8.65 23.25 10.5 L23.75 10.95 23.9 11.35 Q24.45 15.2 21 17.7 18.35 19.85 15.6 18.5 14.9 18.95 14 19 L10.05 19.3 Q13.15 21.1 15.95 23.4"/>
  </g>
</svg>