<svg xmlns="http://www.w3.org/2000/svg" xmlns:xlink="http://www.w3.org/1999/xlink">
  <defs/>
  <g>
    <path stroke="none" fill="#FFFFFF" d="M-1 24.85 Q-6.75 21.5 -19.05 21 -21.85 20.9 -25.05 20.95 L-26.95 21 -27.3 21 -27.95 21 -28 21 -28.3 21 -28.95 21 -29.95 20.75 -30.7 20.05 -31 19 -31 -17 Q-31 -17.85 -30.4 -18.4 -29.85 -19 -29 -19 L-26 -19 -26 11 Q-26 12.2 -25.15 13.1 L-25.05 13.2 Q-24.25 13.95 -23.1 14 L-18.05 14.3 Q-6.65 15.25 -1.3 17.8 L0 18.1 1.35 17.8 Q6.4 15.35 16.95 14.35 L23.15 14 Q24.15 13.95 24.95 13.3 L25.15 13.1 Q26 12.2 26 11 L26 -19 29 -19 Q29.85 -19 30.45 -18.4 31 -17.85 31 -17 L31 19 30.75 20.05 30 20.75 28.95 21 28.3 21 28 21 27.95 21 27.3 21 26.95 21 24.95 20.95 17.95 21.05 Q6.55 21.7 1.05 24.85 L0 25.1 -1 24.85 M0 13.1 Q-5.75 10.25 -21 9.1 L-22 9 -22 -23 -20.9 -22.9 Q-10.85 -22.1 -6.25 -21 -2.65 -20.15 -0.2 -19 L0 -18.9 0.25 -19 Q2.7 -20.15 6.3 -21 10.15 -21.9 22 -23 L22 9 17.95 9.4 Q5.35 10.45 0 13.1"/>
  </g>
</svg>