<svg xmlns="http://www.w3.org/2000/svg" xmlns:xlink="http://www.w3.org/1999/xlink">
  <defs/>
  <g>
    <path stroke="none" fill="#FFFFFF" d="M-5.1 -16.9 L-4.45 -16.95 -4.5 -16.95 11.35 -12.95 11.85 -12.65 11.85 -12.6 12.1 -12.15 12 -11.5 12 -11.55 8.05 -3.55 8.1 -3.55 7.55 -3.05 7.65 -3.05 6.95 -3 -8.95 -7 -9.45 -7.25 -9.7 -7.8 -9.7 -7.85 -9.65 -8.45 -5.65 -16.45 -5.65 -16.4 -5.2 -16.85 -5.1 -16.9 M-11.35 -25.35 Q-10.9 -26.3 -9.95 -26.7 L-8 -26.9 23.8 -18.9 Q24.6 -18.7 25.25 -18 25.85 -17.3 26 -16.4 26.1 -15.5 25.7 -14.65 L23.85 -10.9 25.25 -10 Q25.85 -9.3 26 -8.4 26.1 -7.5 25.7 -6.65 L9.85 25.35 Q9.35 26.3 8.4 26.75 L6.45 26.9 -23.2 19.45 Q-27.7 18 -28.7 14.75 -29.85 11.5 -26.3 4.7 L-11.35 -25.35 M-7.15 -20.5 L-20.3 6 5.55 12.55 16.85 -10.1 16.9 -10.25 16.9 -10.3 18.7 -14 -7.15 -20.5"/>
  </g>
</svg>