<svg xmlns="http://www.w3.org/2000/svg" xmlns:xlink="http://www.w3.org/1999/xlink">
  <defs/>
  <g>
    <path stroke="none" fill="#FFFFFF" d="M11.05 -17.05 Q15.65 -10.55 14.9 -3.95 L14.9 -3.8 Q14 1.55 10.95 5.15 L10.85 5.2 10.8 5.25 Q9.2 7.9 5.8 8.85 L5 8.8 4.35 8.2 Q4.1 7.85 4.15 7.45 L4.4 6.9 Q4.85 5.4 4.25 2.75 1.65 -4.2 -0.5 -6.15 L-0.55 -6.15 -0.65 -6.1 -0.65 -6 -0.65 -5.9 Q-0.55 -2.55 -2.6 0.45 L-2.75 0.55 Q-4.6 2.35 -4.45 4.5 L-4.4 4.75 Q-4.2 6.1 -3.55 7 -3.4 7.35 -3.4 7.8 L-3.55 8.45 -4.2 8.9 -5 8.95 Q-13.4 6.7 -14.9 -1.85 L-14.95 -1.95 Q-15.6 -8.2 -10.55 -13.25 -6.3 -19 -6.5 -25.85 L-6.5 -25.9 Q-6.6 -27.15 -5.85 -27.9 -5.25 -28.9 -4 -29 -2.95 -29.15 -1.95 -28.35 3.85 -23.6 6.6 -17.15 L7.15 -17.75 7.1 -17.65 Q8 -18.4 9.3 -18.15 L9.35 -18.15 Q10.3 -18 11 -17.1 L11.05 -17.05 M18.45 27.05 Q18.05 28.15 16.8 28.7 L14.4 28.8 4.6 25.7 19.6 20.9 19.7 21 Q20.25 22.1 19.85 23.25 L18.45 27.05 M-14.3 9.15 L0 13.75 14.3 9.15 16.8 9.3 Q18 9.85 18.4 11.05 L19.8 14.8 Q20.2 15.95 19.7 17.05 19.05 18.1 17.75 18.5 L0 24.2 -17.75 18.5 Q-19.05 18.1 -19.7 17.05 -20.2 15.95 -19.8 14.8 L-18.4 11.05 Q-18 9.85 -16.8 9.3 L-14.3 9.15 M-18.45 27.05 L-19.85 23.25 Q-20.25 22.1 -19.7 21 L-19.6 20.9 -4.6 25.7 -14.4 28.8 -16.8 28.7 Q-18.05 28.15 -18.45 27.05"/>
  </g>
</svg>