<svg xmlns="http://www.w3.org/2000/svg" xmlns:xlink="http://www.w3.org/1999/xlink">
  <defs/>
  <g>
    <path stroke="none" fill="#FFFFFF" d="M26.85 21.2 Q28 22.35 28 24 28 25.65 26.85 26.85 25.65 28 24 28 22.35 28 21.2 26.85 L16 21.65 10.85 26.85 Q9.65 28 8 28 6.35 28 5.2 26.85 4 25.65 4 24 4 22.35 5.2 21.2 L10.35 16 5.2 10.85 Q4 9.65 4 8 4 6.35 5.2 5.2 6.35 4 8 4 9.65 4 10.85 5.2 L16 10.35 21.2 5.2 Q22.35 4 24 4 25.65 4 26.85 5.2 28 6.35 28 8 28 9.65 26.85 10.85 L21.65 16 26.85 21.2 M3.1 19.1 Q1.35 20.75 1.1 23 L-9 23 Q-18 23 -18 14 L-18 -14 Q-18 -23 -9 -23 L0 -23 0.5 -22.95 1 -23 9 -23 Q18 -23 18 -14 L18 4.2 16.05 6.15 13 3.1 12 2.25 12 -14 Q12 -17 9 -17 L1 -17 0.5 -17 0 -17 -9 -17 Q-12 -17 -12 -14 L-12 14 Q-12 17 -9 17 L5.2 17 3.1 19.1"/>
  </g>
</svg>