<svg xmlns="http://www.w3.org/2000/svg" xmlns:xlink="http://www.w3.org/1999/xlink">
  <defs/>
  <g>
    <path stroke="none" fill="#FFFFFF" d="M-16.95 8.3 Q-16.15 8.5 -15.7 9.2 -15.25 9.9 -15.45 10.75 -15.65 11.5 -16.35 11.95 -17.05 12.4 -17.85 12.2 L-18.5 12.05 Q-14.45 19.95 -9.1 21.05 -7.45 21.25 -6.4 22.55 -5.4 23.9 -5.6 25.55 -5.85 27.15 -7.15 28.2 -8.45 29.2 -10.1 29 -18.3 28.3 -24.2 18.3 L-24.2 18.35 Q-24.3 19.15 -24.95 19.7 -25.65 20.2 -26.45 20.1 -27.25 20 -27.75 19.35 -28.3 18.65 -28.15 17.85 L-26.95 8.2 -26.55 7.2 -25.65 6.55 -24.55 6.5 -16.95 8.3 M4.1 -20.25 Q5.8 -18.05 8.55 -17.6 11.45 -16.85 13.95 -13.4 12.95 -12.45 12.6 -10.95 12.1 -8.95 13.2 -7.15 14.3 -5.4 16.3 -4.9 L17.35 -4.65 21 8.95 Q23.3 17.6 14.65 19.95 L-2.75 24.6 Q-2.85 22.45 -4.2 20.65 -5.9 18.45 -8.65 18 -11.55 17.25 -14.05 13.8 -13.05 12.85 -12.7 11.35 -12.2 9.35 -13.3 7.55 -14.4 5.8 -16.4 5.3 L-17.3 5.1 -21.05 -8.8 Q-23.35 -17.5 -14.65 -19.85 L-5.95 -22.15 -5.6 -22.2 -5.05 -22.45 2.65 -24.45 Q2.65 -22.15 4.1 -20.25 M17 -7.85 Q16.2 -8.05 15.75 -8.75 15.3 -9.45 15.5 -10.25 15.7 -11.05 16.4 -11.5 L17.9 -11.75 18.55 -11.6 Q14.5 -19.5 9.15 -20.55 7.5 -20.8 6.5 -22.1 5.45 -23.4 5.7 -25.05 5.9 -26.7 7.2 -27.7 8.5 -28.75 10.15 -28.5 18.35 -27.85 24.3 -17.85 L24.3 -17.9 Q24.4 -18.7 25.05 -19.2 25.7 -19.75 26.5 -19.6 27.3 -19.55 27.85 -18.85 28.35 -18.2 28.25 -17.4 L27.05 -7.75 26.6 -6.75 Q26.25 -6.3 25.7 -6.1 L24.6 -6.05 17 -7.85"/>
  </g>
</svg>