<svg xmlns="http://www.w3.org/2000/svg" xmlns:xlink="http://www.w3.org/1999/xlink">
  <defs/>
  <g>
    <path stroke="none" fill="#FFFFFF" d="M2.5 20.65 Q3.5 22 4.8 22.6 L-2.75 24.6 Q-11.45 26.9 -13.8 18.25 L-21.05 -8.8 Q-23.35 -17.5 -14.65 -19.85 L-5.95 -22.15 -5.6 -22.2 -5.05 -22.45 2.7 -24.5 2.75 -24.5 Q11.4 -26.8 13.75 -18.1 L21 8.95 21.05 9 14.8 9 7.95 -16.55 Q7.2 -19.45 4.3 -18.7 L-3.45 -16.65 -3.85 -16.55 -4.4 -16.35 -13.1 -14.05 Q-16.05 -13.3 -15.25 -10.35 L-8 16.7 Q-7.25 19.6 -4.3 18.8 L1.15 17.35 Q1.45 19.2 2.5 20.65 M7 12 L25 12 Q26.25 12 27.15 13.2 28 14.3 28 16 28 17.65 27.15 18.85 26.25 20 25 20 L7 20 Q5.75 20 4.9 18.85 4.15 17.85 4.05 16.6 L4 16 Q4 14.3 4.9 13.2 5.75 12 7 12"/>
  </g>
</svg>