<svg xmlns="http://www.w3.org/2000/svg" xmlns:xlink="http://www.w3.org/1999/xlink">
  <defs/>
  <g>
    <path stroke="none" fill="#FFFFFF" d="M19.3 9.2 L20.8 8.1 21 8.95 Q23.3 17.6 14.65 19.95 L-2.75 24.6 Q-9.2 26.3 -12.1 22.05 L-13.3 22.25 -13.6 22.25 -16.85 21.95 Q-18.85 21.5 -20.5 20.3 -22.9 18.5 -24.55 14.95 L-24.6 14.8 Q-28.15 7.4 -22.4 -2.75 L-22.55 -2.7 Q-23.3 -2.4 -24.05 -2.7 -24.85 -3.05 -25.15 -3.8 -25.45 -4.55 -25.15 -5.3 -24.8 -6.1 -24.05 -6.4 L-18.05 -8.9 Q-17.35 -9.45 -16.4 -9.6 L-15.05 -10.15 -13.95 -10.25 Q-13.4 -10.2 -12.95 -9.8 L-12.35 -8.85 -10.15 -1.4 Q-9.95 -0.65 -10.35 0.1 -10.75 0.85 -11.5 1.1 L-13.05 0.9 Q-13.8 0.5 -14 -0.25 L-14.2 -0.9 Q-18.95 6.5 -17.3 11.6 L-17.3 11.65 -17.25 11.7 Q-16.35 13.6 -14.9 14.2 L-14.1 14.25 Q-13.9 12.55 -14.55 10.8 -15.35 7.9 -13.6 4 L-11.35 4.1 -8 16.7 Q-7.25 19.6 -4.3 18.8 L9.8 15.05 13.85 15.55 Q15.9 15.8 17.55 14.55 19.2 13.25 19.45 11.2 19.6 10.15 19.3 9.2 M14.45 -7.1 Q13.85 -4.85 11.65 -2.8 L7.95 -16.55 Q7.2 -19.45 4.3 -18.7 L-3.45 -16.65 -3.85 -16.55 -4.4 -16.35 -13.1 -14.05 -14.65 -13.3 -16.4 -12.9 -17.5 -12.45 Q-18.8 -12.2 -19.8 -11.45 L-21.45 -10.75 Q-22.35 -17.8 -14.65 -19.85 L-5.95 -22.15 -5.6 -22.2 -5.05 -22.45 2.7 -24.5 2.75 -24.5 Q10.95 -26.7 13.5 -19 L15.4 -18.75 Q19.7 -18 22.1 -15.65 L22.15 -15.6 Q23.75 -14.2 24.65 -12.2 25.75 -9.5 25.45 -5.7 L25.45 -5.55 Q24.75 2.65 14.75 8.6 L14.8 8.6 Q15.6 8.65 16.15 9.35 16.65 10 16.55 10.8 16.45 11.6 15.8 12.15 15.1 12.65 14.3 12.55 L8 11.75 6.1 11.5 4.65 11.35 3.65 10.9 3 10 Q2.8 9.45 2.95 8.9 L4.75 1.3 Q4.95 0.5 5.65 0.05 L7.2 -0.2 Q7.95 0 8.4 0.7 8.85 1.4 8.65 2.2 L8.5 2.85 Q16.4 -1.2 17.5 -6.55 L17.5 -6.4 Q17.65 -8.55 16.7 -9.75 L16.65 -9.75 15.85 -10.3 Q14.75 -8.95 14.45 -7.1"/>
  </g>
</svg>