<svg xmlns="http://www.w3.org/2000/svg" xmlns:xlink="http://www.w3.org/1999/xlink">
  <defs/>
  <g>
    <path stroke="none" fill="#FFFFFF" d="M5 6 Q5 8.05 3.55 9.55 2.05 11 0 11 -2.05 11 -3.5 9.55 -5 8.05 -5 6 L-5 -9.4 -8.15 -6.2 Q-9.35 -5.05 -11 -5.05 -12.65 -5.05 -13.8 -6.2 -15 -7.4 -15 -9.05 -15 -10.7 -13.8 -11.85 L-2.8 -22.85 Q-1.65 -24.05 0 -24.05 1.65 -24.05 2.85 -22.85 L13.85 -11.85 Q15 -10.7 15 -9.05 15 -7.4 13.85 -6.2 12.65 -5.05 11 -5.05 9.35 -5.05 8.2 -6.2 L5 -9.4 5 6 M-11 -2.05 Q-9.35 -2.05 -8 -2.7 L-8 2.45 -23.4 12.1 Q-24.05 12.5 -24.35 12.5 -24.05 12.5 -23.4 12.9 L-23.4 12.95 -7.95 22.7 -7.95 22.65 Q-4.75 24.6 -1.55 22.65 L-1.6 22.65 23.45 6.95 24.45 6.55 23.5 6.1 23.45 6.1 10.5 -2.05 11 -2.05 Q13.9 -2.05 15.95 -4.1 L16.85 -5.15 26.65 1 Q30.85 3.6 30.45 6.55 30.85 9.4 26.65 12.05 L1.6 27.75 Q-4.75 31.7 -11.1 27.75 L-11.15 27.75 -26.6 18 -26.55 18 Q-30.8 15.4 -30.4 12.5 -30.8 9.6 -26.55 7 L-26.6 7 -12.05 -2.1 -11 -2.05"/>
  </g>
</svg>