<svg xmlns="http://www.w3.org/2000/svg" xmlns:xlink="http://www.w3.org/1999/xlink">
  <defs/>
  <g>
    <path stroke="none" fill="#FFFFFF" d="M26.65 1 Q30.85 3.6 30.45 6.55 30.85 9.4 26.65 12.05 L1.6 27.75 Q-4.75 31.7 -11.1 27.75 L-11.15 27.75 -26.6 18 -26.55 18 Q-30.8 15.4 -30.4 12.5 -30.8 9.6 -26.55 7 L-26.6 7 -1.6 -8.7 Q4.8 -12.7 11.15 -8.75 L26.65 1 M7.95 -3.65 L8 -3.65 Q4.8 -5.6 1.6 -3.6 L-23.4 12.1 Q-24.05 12.5 -24.35 12.5 -24.05 12.5 -23.4 12.9 L-23.4 12.95 -7.95 22.7 -7.95 22.65 Q-4.75 24.6 -1.55 22.65 L-1.6 22.65 23.45 6.95 24.45 6.55 23.5 6.1 23.45 6.1 7.95 -3.65"/>
  </g>
</svg>