<svg xmlns="http://www.w3.org/2000/svg" xmlns:xlink="http://www.w3.org/1999/xlink">
  <defs/>
  <g>
    <path stroke="none" fill="#FFFFFF" d="M-3.45 -16.65 L-3.85 -16.55 -4.4 -16.35 -13.1 -14.05 Q-16.05 -13.3 -15.25 -10.35 L-8 16.7 Q-7.25 19.6 -4.3 18.8 L13.1 14.15 Q16 13.4 15.2 10.5 L7.95 -16.55 Q7.2 -19.5 4.3 -18.7 L-3.45 -16.65 M2.7 -24.5 L2.75 -24.5 Q11.4 -26.8 13.75 -18.1 L21 8.95 Q23.3 17.6 14.65 19.95 L-2.75 24.6 Q-11.45 26.9 -13.8 18.25 L-21.05 -8.8 Q-23.35 -17.5 -14.65 -19.85 L-5.95 -22.15 -5.6 -22.2 -5.05 -22.45 2.7 -24.5"/>
  </g>
</svg>