<svg xmlns="http://www.w3.org/2000/svg" xmlns:xlink="http://www.w3.org/1999/xlink">
  <defs/>
  <g>
    <path stroke="none" fill="#FFFFFF" d="M-5 29 Q-11 29 -11 23 L-11 14 -5 14 Q4 14 4 5 L4 -1 10.65 -1 Q8.7 -5.05 2.4 -8.25 L2.55 -7.65 Q2.75 -6.85 2.3 -6.15 1.85 -5.45 1.1 -5.25 0.25 -5.05 -0.45 -5.5 -1.15 -5.95 -1.35 -6.75 L-3.15 -14.3 -3.1 -15.35 -2.45 -16.3 -1.45 -16.7 0.05 -16.9 1.75 -17.15 8.2 -17.95 9.65 -17.6 Q10.3 -17.1 10.45 -16.25 10.55 -15.45 10.05 -14.8 9.55 -14.15 8.75 -14 L8.6 -14 Q17.95 -8.5 19.15 -1 L23.4 -1 Q29 -0.8 29 5 L29 23 Q29 29 23 29 L-5 29 M-23 -29 L-5 -29 Q1 -29 1 -23 L1 -19.95 -0.6 -19.65 -1.75 -19.5 Q-3.2 -19.3 -4.3 -18.45 -5.35 -17.45 -5.9 -16.25 L-5.9 -16.2 Q-6.4 -14.8 -6.05 -13.4 L-4.25 -5.8 Q-3.75 -3.8 -2 -2.65 -0.55 -1.75 1 -1.95 L1 5 Q1 11 -5 11 L-23 11 Q-29 11 -29 5 L-29 -23 Q-29 -29 -23 -29"/>
  </g>
</svg>