<svg xmlns="http://www.w3.org/2000/svg" xmlns:xlink="http://www.w3.org/1999/xlink">
  <defs/>
  <g>
    <path stroke="none" fill="#FFFFFF" d="M16 0 Q14.1 0.05 12.6 0.75 L7.95 -16.55 Q7.2 -19.45 4.3 -18.7 L-3.45 -16.65 -3.85 -16.55 -4.4 -16.35 -13.1 -14.05 Q-16.05 -13.3 -15.25 -10.35 L-8 16.7 Q-7.25 19.6 -4.3 18.8 L0.2 17.6 Q0.5 19.3 1.5 20.65 2.65 22.2 4.2 22.75 L-2.75 24.6 Q-11.45 26.9 -13.8 18.25 L-21.05 -8.8 Q-23.35 -17.5 -14.65 -19.85 L-5.95 -22.15 -5.6 -22.2 -5.05 -22.45 2.7 -24.5 2.75 -24.5 Q11.4 -26.8 13.75 -18.1 L18.75 0.45 16 0 M6 12 L12 12 12 6 Q12 4.75 13.15 3.9 L13.4 3.75 Q14.5 3 16 3 17.7 3 18.8 3.9 20 4.75 20 6 L20 12 26 12 Q27.25 12 28.15 13.2 29 14.3 29 16 29 17.65 28.15 18.85 27.25 20 26 20 L20 20 20 26 Q20 27.25 18.8 28.15 17.7 29 16 29 14.35 29 13.15 28.15 12 27.25 12 26 L12 20 6 20 Q4.75 20 3.9 18.85 3.25 17.95 3.05 16.85 L3 16 Q3 14.3 3.9 13.2 4.75 12 6 12"/>
  </g>
</svg>