<svg xmlns="http://www.w3.org/2000/svg" xmlns:xlink="http://www.w3.org/1999/xlink">
  <defs/>
  <g>
    <path stroke="none" fill="#FFFFFF" d="M19.3 8.2 L20.55 7.25 21 8.95 Q23.3 17.6 14.65 19.95 L-2.75 24.6 Q-11.45 26.9 -13.8 18.25 L-21.05 -8.8 Q-23.35 -17.5 -14.65 -19.85 L-5.95 -22.15 -5.6 -22.2 -5.05 -22.45 2.7 -24.5 2.75 -24.5 Q10.35 -26.55 13.1 -20.05 L15 -19.85 15.05 -19.85 Q19.6 -19.05 22.1 -16.65 23.75 -15.25 24.65 -13.2 25.75 -10.5 25.45 -6.7 L25.45 -6.55 Q24.75 1.65 14.75 7.6 L14.8 7.6 Q15.6 7.65 16.15 8.35 16.65 9 16.55 9.8 16.45 10.6 15.8 11.15 15.1 11.65 14.3 11.55 L8 10.75 6.1 10.5 4.65 10.35 3.65 9.9 3 9 Q2.8 8.45 2.95 7.9 L4.75 0.3 Q4.95 -0.5 5.65 -0.95 L7.2 -1.2 8.4 -0.3 Q8.85 0.4 8.65 1.2 L8.5 1.85 Q16.4 -2.2 17.5 -7.55 L17.5 -7.4 Q17.65 -9.55 16.7 -10.75 L15.85 -11.3 15.55 -11.4 15.65 -11.05 Q14.7 -9.75 14.45 -8.1 13.85 -5.75 11.45 -3.6 L7.95 -16.55 Q7.2 -19.45 4.3 -18.7 L-3.45 -16.65 -3.85 -16.55 -4.4 -16.35 -13.1 -14.05 Q-16.05 -13.3 -15.25 -10.35 L-8 16.7 Q-7.25 19.6 -4.3 18.8 L12.3 14.35 13.85 14.55 Q15.9 14.8 17.55 13.55 19.2 12.25 19.45 10.2 19.6 9.15 19.3 8.2"/>
  </g>
</svg>