<svg xmlns="http://www.w3.org/2000/svg" xmlns:xlink="http://www.w3.org/1999/xlink">
  <defs/>
  <g>
    <path stroke="none" fill="#FFFFFF" d="M-23.4 2.9 L-23.4 2.95 -20.35 4.85 -19.9 5.15 -7.95 12.7 -7.95 12.65 Q-4.75 14.6 -1.55 12.65 L20.05 -0.85 20.25 -1 20.3 -1 23.45 -3.05 24.45 -3.45 Q24.15 -3.5 23.5 -3.9 L23.45 -3.9 7.95 -13.65 8 -13.65 Q4.8 -15.6 1.6 -13.6 L-23.4 2.1 Q-24.05 2.5 -24.35 2.5 -24.05 2.5 -23.4 2.9 M-30.4 2.5 Q-30.8 -0.4 -26.55 -3 L-26.6 -3 -1.6 -18.7 Q4.8 -22.7 11.15 -18.75 L26.65 -9 Q30.85 -6.4 30.45 -3.45 30.8 -0.85 27.45 1.55 30.8 3.9 30.45 6.55 30.85 9.4 26.65 12.05 L1.6 27.75 Q-4.75 31.7 -11.1 27.75 L-11.15 27.75 -26.6 18 -26.55 18 Q-30.8 15.4 -30.4 12.5 -30.75 9.9 -27.35 7.5 -30.75 5.15 -30.4 2.5"/>
  </g>
</svg>