<svg xmlns="http://www.w3.org/2000/svg" xmlns:xlink="http://www.w3.org/1999/xlink">
  <defs/>
  <g>
    <path stroke="none" fill="#FFFFFF" d="M-24.95 -6.3 L-22 17.95 Q-21.85 19.15 -21.35 19.75 L-19.55 19.95 -19.5 19.95 -13.55 19.2 Q-18 17.3 -18 11 L-18 -9.65 -22.9 -9 Q-25.25 -8.7 -24.95 -6.35 L-24.95 -6.3 M21.95 -9 L18 -9.5 18 11 Q18 17.5 13.35 19.3 L18.55 19.95 20.35 19.75 Q20.85 19.15 21.05 17.95 L24 -6.3 24 -6.35 Q24.2 -8.7 21.95 -9 M-12 11 Q-12 14 -9 14 L9 14 Q12 14 12 11 L12 -12.8 12 -12.9 12 -17 Q12 -20 9 -20 L1 -20 0.5 -20 0 -20 -9 -20 Q-12 -20 -12 -17 L-12 11 M-23.7 -14.95 L-23.65 -14.95 -18 -15.7 -18 -17 Q-18 -26 -9 -26 L0 -26 0.5 -25.95 1 -26 9 -26 Q18 -26 18 -17 L18 -15.55 22.7 -14.95 Q30.85 -13.9 29.95 -5.65 L29.95 -5.6 27 18.7 Q26.5 22.75 24.1 24.45 21.85 26.4 17.8 25.9 L17.75 25.9 2.2 24 -0.5 23.3 Q-1.65 23.8 -3.15 24 L-18.75 25.9 Q-22.85 26.4 -25.05 24.45 -27.5 22.75 -27.95 18.7 L-27.95 18.65 -30.9 -5.65 Q-31.85 -13.9 -23.7 -14.95"/>
  </g>
</svg>