<svg xmlns="http://www.w3.org/2000/svg" xmlns:xlink="http://www.w3.org/1999/xlink">
  <defs/>
  <g>
    <path stroke="none" fill="#FFFFFF" d="M5.85 19.15 L7.1 18.65 -6.6 14.95 Q-15.25 12.65 -12.95 3.9 L-8.6 -12.2 -10.7 -11.65 -11.05 -11.55 -11.65 -11.35 -20.35 -9.05 Q-23.3 -8.3 -22.5 -5.35 L-15.25 21.7 Q-14.5 24.6 -11.55 23.8 L5.85 19.15 M13.4 -21.15 L13.15 -21.25 12.45 -21.35 3.75 -23.75 3.8 -23.75 Q0.85 -24.55 0.05 -21.55 L0.05 -21.6 -1.4 -15.9 -1.55 -15.45 -7.15 5.45 Q-7.95 8.35 -5.05 9.15 L11.8 13.65 12.3 13.8 12.35 13.8 14.8 13.85 Q15.6 13.2 16 11.7 L23.3 -15.3 Q24.1 -18.25 21.15 -19.05 L21.1 -19.05 13.4 -21.15 M22.7 -24.85 Q31.4 -22.55 29.1 -13.75 L21.8 13.25 Q20.65 17.55 17.8 19.05 16.1 20.15 13.75 20.1 12.4 23.6 7.4 24.95 L-10 29.6 Q-18.7 31.9 -21.05 23.25 L-28.3 -3.8 Q-30.6 -12.5 -21.9 -14.85 L-13.2 -17.15 -12.85 -17.2 -12.25 -17.45 -6.85 -18.85 -5.75 -23.05 -5.75 -23.1 Q-3.45 -31.85 5.35 -29.55 L14.05 -27.15 14.35 -27.05 15 -26.95 22.7 -24.85"/>
  </g>
</svg>