<svg xmlns="http://www.w3.org/2000/svg" xmlns:xlink="http://www.w3.org/1999/xlink">
  <defs/>
  <g>
    <path stroke="none" fill="#FFFFFF" d="M-5 11 L-23 11 Q-29 11 -29 5 L-29 -23 Q-29 -29 -23 -29 L-5 -29 Q1 -29 1 -23 L1 -16.05 Q8.45 -14.85 13.95 -5.5 L14 -5.65 Q14.1 -6.45 14.75 -6.95 15.4 -7.5 16.2 -7.35 L17.55 -6.6 Q18.05 -5.95 17.95 -5.15 L17.1 1.35 16.9 3.05 16.7 4.5 16.25 5.55 15.35 6.15 14.25 6.2 6.7 4.4 Q5.9 4.2 5.45 3.5 5 2.8 5.2 2 5.4 1.2 6.1 0.75 6.8 0.3 7.65 0.5 L8.2 0.65 Q5 -5.6 1 -7.55 L1 5 Q1 11 -5 11 M29 5 L29 11 23 11 23 5 19.3 5 19.3 4.9 19.45 3.75 Q19.9 2.5 19.75 1.25 L20.05 -1 23 -1 Q29 -1 29 5 M29 23 Q29 29 23 29 L19 29 19 23 23 23 23 17 29 17 29 23 M4 23 L14 23 14 29 4 29 4 23 M-5 29 Q-11 29 -11 23 L-11 17 -5 17 -5 23 -1 23 -1 29 -5 29"/>
  </g>
</svg>