<svg xmlns="http://www.w3.org/2000/svg" xmlns:xlink="http://www.w3.org/1999/xlink">
  <defs/>
  <g>
    <path stroke="none" fill="#FFFFFF" d="M-12 11 Q-12 14 -9 14 L9 14 Q12 14 12 11 L12 -12.8 12 -12.9 12 -17 Q12 -20 9 -20 L1 -20 0.5 -20 0 -20 -9 -20 Q-12 -20 -12 -17 L-12 11 M-18 -17 Q-18 -26 -9 -26 L0 -26 0.5 -25.95 1 -26 9 -26 Q18 -26 18 -17 L18 -15.55 22.7 -14.95 Q30.85 -13.9 29.95 -5.65 L29.95 -5.6 27 18.7 Q26.5 22.75 24.1 24.45 21.85 26.4 17.8 25.9 L17.75 25.9 2.2 24 -0.5 23.3 Q-1.65 23.8 -3.15 24 L-18.75 25.9 Q-22.85 26.4 -25.05 24.45 -27.5 22.75 -27.95 18.7 L-27.95 18.65 -30.9 -5.65 Q-31.85 -13.9 -23.7 -14.95 L-23.65 -14.95 -18 -15.7 -18 -17"/>
  </g>
</svg>