<svg xmlns="http://www.w3.org/2000/svg" xmlns:xlink="http://www.w3.org/1999/xlink">
  <defs/>
  <g>
    <path stroke="none" fill="#FFFFFF" d="M-18.4 1.5 Q-19 0.9 -19 0.05 -19 -0.8 -18.4 -1.35 L-12.3 -7.4 Q-11.75 -8 -10.9 -8 -10.05 -8 -9.45 -7.4 -8.9 -6.85 -8.9 -6 -8.9 -5.15 -9.45 -4.55 L-11.1 -2.95 6.65 -2.95 5 -4.55 Q4.4 -5.15 4.4 -6 4.4 -6.85 5 -7.4 5.55 -8 6.4 -8 7.25 -8 7.85 -7.4 L13.95 -1.35 Q14.5 -0.8 14.5 0.05 14.5 0.9 13.95 1.5 L7.85 7.6 Q7.25 8.15 6.4 8.15 5.55 8.15 5 7.6 4.4 7 4.4 6.15 4.4 5.3 5 4.75 L6.65 3.05 -11.15 3.05 -9.45 4.75 Q-8.9 5.3 -8.9 6.15 -8.9 7 -9.45 7.6 -10.05 8.15 -10.9 8.15 -11.75 8.15 -12.3 7.6 L-18.4 1.5 M-5.9 -6 Q-5.9 -8.05 -7.3 -9.5 L-7.35 -9.55 Q-8.85 -11 -10.85 -11 L-10.9 -11 Q-12.95 -11 -14.4 -9.55 L-20.55 -3.45 Q-22 -2 -22 0.05 L-22 0.1 Q-22 2.1 -20.55 3.6 L-14.4 9.75 Q-12.95 11.15 -10.9 11.15 L-10.85 11.15 Q-8.85 11.15 -7.35 9.75 L-7.3 9.7 Q-6.45 8.75 -6.1 7.65 -5.65 8.7 -4.05 9.15 L10.75 13.1 11.15 13.2 13.4 13.85 13.35 13.8 15.8 13.85 Q16.6 13.2 17 11.7 L24.3 -15.3 Q25.1 -18.25 22.15 -19.05 L22.1 -19.05 14.4 -21.15 14.15 -21.25 13.45 -21.35 4.75 -23.75 4.8 -23.75 Q1.85 -24.55 1.05 -21.55 L1.05 -21.6 -0.3 -16.4 -0.4 -16.05 -0.45 -15.9 -3.1 -5.95 -5.9 -5.95 -5.9 -6 M6.4 24.95 L-11 29.6 Q-19.7 31.9 -22.05 23.25 L-29.3 -3.8 Q-31.6 -12.5 -22.9 -14.85 L-14.2 -17.15 -13.85 -17.2 -13.3 -17.45 -5.7 -19.45 -4.75 -23.1 Q-2.45 -31.85 6.35 -29.55 L15.05 -27.15 15.35 -27.05 16 -26.95 23.7 -24.85 Q32.4 -22.55 30.1 -13.75 L22.8 13.25 Q21.65 17.55 18.8 19.05 16.45 20.55 12.85 19.85 11.6 23.55 6.4 24.95"/>
  </g>
</svg>