<svg xmlns="http://www.w3.org/2000/svg" xmlns:xlink="http://www.w3.org/1999/xlink">
  <defs/>
  <g>
    <path stroke="none" fill="#FFFFFF" d="M-29.3 -22.5 Q-29.55 -23.35 -29.25 -24.15 -28.95 -24.95 -28.25 -25.5 L-26.75 -26.15 -11.85 -27.95 Q-10.6 -28.1 -9.65 -27.35 -8.65 -26.6 -8.5 -25.35 -8.4 -24.1 -9.15 -23.15 -9.9 -22.15 -11.15 -22 L-13.25 -21.75 Q3 -12.7 4.15 0 4.4 2.05 3.15 3.7 1.9 5.35 -0.15 5.6 -2.2 5.85 -3.85 4.6 -5.5 3.35 -5.75 1.3 -7.45 -7.85 -21.3 -14.7 L-20.65 -12.1 Q-20.4 -10.9 -21.05 -9.8 -21.7 -8.75 -22.9 -8.45 -24.1 -8.2 -25.15 -8.85 -26.25 -9.5 -26.5 -10.7 L-29.3 -22.5 M26.65 1 Q30.85 3.6 30.45 6.55 30.85 9.4 26.65 12.05 L1.6 27.75 Q-4.75 31.7 -11.1 27.75 L-11.15 27.75 -26.6 18 -26.55 18 Q-30.8 15.4 -30.4 12.5 -30.6 10.95 -29.5 9.55 -30.6 8.35 -30.6 6.95 -31.45 4.15 -27.65 1 L-27.6 0.95 -16.6 -8.45 Q-13.9 -6.55 -12.05 -4.45 L-23.75 5.55 -24.55 6.05 -23.6 6.3 -23.5 6.35 -23.45 6.4 -23.2 6.45 -6.9 13.7 -6.85 13.7 Q-3.4 15.15 -0.6 12.75 L-0.6 12.8 17 -2.2 17.45 -2.65 21.85 -6.4 22.8 -7.05 Q22.45 -7 21.8 -7.3 L21.75 -7.3 5 -14.7 5.05 -14.7 0.65 -14.85 Q-1.35 -17.1 -3.95 -19.2 1.25 -22.8 7.4 -20.2 L7.45 -20.2 24.2 -12.8 24.15 -12.8 Q28.7 -10.85 28.7 -7.9 29.5 -5.1 25.75 -1.85 L24.2 -0.55 26.65 1"/>
  </g>
</svg>