<svg xmlns="http://www.w3.org/2000/svg" xmlns:xlink="http://www.w3.org/1999/xlink">
  <defs/>
  <g>
    <path stroke="none" fill="#FFFFFF" d="M9.6 11 L11.1 11.15 Q11.85 11.55 12.1 12.35 12.3 13.1 11.9 13.85 11.5 14.6 10.75 14.85 L10.1 15.05 Q17.6 19.8 22.75 18.05 24.3 17.4 25.85 18.05 27.35 18.7 28 20.25 28.65 21.75 28 23.3 27.35 24.8 25.85 25.45 18.45 28.95 8.35 23.35 8.65 24.1 8.35 24.85 8.05 25.6 7.3 25.95 6.5 26.25 5.75 25.95 5 25.65 4.65 24.9 L2.25 19.15 Q1.55 18.3 1.4 17.2 L1.4 17.1 0.9 15.95 Q0.7 15.4 0.8 14.85 0.85 14.25 1.25 13.85 1.65 13.4 2.2 13.25 L9.6 11 M-1.5 18.45 L-1.3 19.15 Q-6.2 20.8 -11.1 17.75 L-11.15 17.75 -26.6 8 -26.55 8 Q-30.8 5.4 -30.4 2.5 -30.75 -0.1 -27.35 -2.5 -30.75 -4.85 -30.4 -7.5 -30.8 -10.4 -26.55 -13 L-26.6 -13 -1.6 -28.7 Q4.8 -32.7 11.15 -28.75 L26.65 -19 Q30.85 -16.4 30.45 -13.45 30.8 -10.85 27.45 -8.45 30.8 -6.1 30.45 -3.45 30.85 -0.6 26.65 2.05 L14 10 12.45 8.75 Q10.6 7.75 8.65 8.35 L1.15 10.6 Q-0.2 11 -1.15 12.1 L-1.2 12.15 Q-2.1 13.2 -2.3 14.65 -2.6 16 -1.95 17.4 L-1.5 18.45 M-23.4 -7.1 L-23.4 -7.05 -20.35 -5.15 -19.9 -4.85 -7.95 2.7 -7.95 2.65 Q-4.75 4.6 -1.55 2.65 L20 -10.8 20.25 -11 20.3 -11 23.45 -13.05 24.45 -13.45 Q24.15 -13.5 23.5 -13.9 L23.45 -13.9 7.95 -23.65 8 -23.65 Q4.8 -25.6 1.6 -23.6 L-23.4 -7.9 Q-24.05 -7.5 -24.35 -7.5 -24.05 -7.5 -23.4 -7.1"/>
  </g>
</svg>