<svg xmlns="http://www.w3.org/2000/svg" xmlns:xlink="http://www.w3.org/1999/xlink">
  <defs/>
  <g>
    <path stroke="none" fill="#FFFFFF" d="M7.7 -21.5 L7.75 -21.5 Q16.4 -23.8 18.75 -15.1 L21.6 -4.55 21.7 -3.5 22.1 -2.6 26 11.95 Q28.3 20.6 19.65 22.95 L2.25 27.6 Q-6.3 29.9 -8.7 21.6 L-8.75 21.6 Q-17.45 23.9 -19.8 15.25 L-27.05 -11.8 Q-29.35 -20.5 -20.65 -22.85 L-11.95 -25.15 -11.6 -25.2 -11.05 -25.45 -3.3 -27.5 -3.25 -27.5 Q5.25 -29.8 7.65 -21.45 L7.7 -21.5 M2.65 -17 L1.95 -19.55 Q1.2 -22.5 -1.7 -21.7 L-9.45 -19.65 -9.85 -19.55 -10.4 -19.35 -19.1 -17.05 Q-22.05 -16.3 -21.25 -13.35 L-14 13.7 Q-13.25 16.6 -10.3 15.8 L7.1 11.15 Q10 10.4 9.2 7.5 L2.7 -16.85 2.65 -17"/>
  </g>
</svg>