<svg xmlns="http://www.w3.org/2000/svg" xmlns:xlink="http://www.w3.org/1999/xlink">
  <defs/>
  <g>
    <path stroke="none" fill="#FFFFFF" d="M6.85 -3.8 Q8 -2.65 8 -1 8 0.65 6.85 1.85 5.65 3 4 3 2.35 3 1.2 1.85 L-4 -3.35 -9.15 1.85 Q-10.35 3 -12 3 -13.65 3 -14.8 1.85 -16 0.65 -16 -1 -16 -2.65 -14.8 -3.8 L-9.65 -9 -14.8 -14.15 Q-16 -15.35 -16 -17 -16 -18.65 -14.8 -19.8 -13.65 -21 -12 -21 -10.35 -21 -9.15 -19.8 L-4 -14.65 1.2 -19.8 Q2.35 -21 4 -21 5.65 -21 6.85 -19.8 8 -18.65 8 -17 8 -15.35 6.85 -14.15 L1.65 -9 6.85 -3.8 M11 -17 L10.75 -18.95 11.15 -18.75 26.65 -9 Q30.85 -6.4 30.45 -3.45 30.8 -0.85 27.45 1.55 30.8 3.9 30.45 6.55 30.85 9.4 26.65 12.05 L1.6 27.75 Q-4.75 31.7 -11.1 27.75 L-11.15 27.75 -26.6 18 -26.55 18 Q-30.8 15.4 -30.4 12.5 -30.75 9.9 -27.35 7.5 -30.75 5.15 -30.4 2.5 -30.8 -0.4 -26.55 -3 L-26.6 -3 -15.1 -10.2 -13.85 -8.95 -16.9 -5.9 Q-19 -3.9 -19 -1 L-19 -0.65 -23.4 2.1 Q-24.05 2.5 -24.35 2.5 -24.05 2.5 -23.4 2.9 L-23.4 2.95 -7.95 12.7 -7.95 12.65 Q-4.75 14.6 -1.55 12.65 L20.1 -0.85 20.1 -0.9 20.25 -1 20.35 -1.05 23.45 -3.05 24.45 -3.45 Q24.15 -3.5 23.5 -3.9 L23.45 -3.9 9.55 -12.65 Q11 -14.55 11 -17"/>
  </g>
</svg>