<svg xmlns="http://www.w3.org/2000/svg" xmlns:xlink="http://www.w3.org/1999/xlink">
  <defs/>
  <g>
    <path stroke="none" fill="#FFFFFF" d="M-26.6 -3 L-26.55 -3 Q-30.8 -5.6 -30.4 -8.5 -30.8 -11.4 -26.55 -14 L-26.6 -14 -1.6 -29.7 Q4.8 -33.7 11.15 -29.75 L26.65 -20 Q30.85 -17.4 30.45 -14.45 30.85 -11.6 26.65 -8.95 L17.15 -3 26.65 3 Q30.85 5.6 30.45 8.55 30.85 11.4 26.65 14.05 L1.6 29.75 Q-4.75 33.7 -11.1 29.75 L-11.15 29.75 -26.6 20 -26.55 20 Q-30.8 17.4 -30.4 14.5 -30.8 11.6 -26.55 9 L-26.6 9 -17 3.05 -26.6 -3 M-11.3 4.7 Q-13.35 4.7 -14.8 6.1 L-14.85 6.15 Q-16.3 7.65 -16.3 9.65 L-16.3 9.7 Q-16.3 11.75 -14.85 13.2 L-8.75 19.35 Q-7.3 20.8 -5.25 20.8 L-5.2 20.8 Q-3.2 20.8 -1.7 19.35 L4.45 13.2 Q5.85 11.75 5.85 9.7 L5.85 9.65 Q5.85 7.65 4.45 6.15 L4.4 6.1 Q2.9 4.7 0.9 4.7 L0.85 4.7 0.75 4.7 0.75 0.2 9.9 -5.55 9.95 -5.6 23.45 -14.05 24.45 -14.45 Q24.15 -14.5 23.5 -14.9 L23.45 -14.9 7.95 -24.65 8 -24.65 Q4.8 -26.6 1.6 -24.6 L-23.4 -8.9 Q-24.05 -8.5 -24.35 -8.5 -24.05 -8.5 -23.4 -8.1 L-23.4 -8.05 -11.25 -0.4 -11.25 4.7 -11.3 4.7 M-3.85 17.3 Q-4.45 17.85 -5.3 17.85 -6.15 17.85 -6.7 17.3 L-12.75 11.2 Q-13.35 10.6 -13.35 9.75 -13.35 8.9 -12.75 8.35 -12.2 7.75 -11.35 7.75 -10.5 7.75 -9.9 8.35 L-8.3 10 -8.3 -7.75 -9.9 -6.1 Q-10.5 -5.55 -11.35 -5.55 -12.2 -5.55 -12.75 -6.1 -13.35 -6.7 -13.35 -7.55 -13.35 -8.4 -12.75 -8.95 L-6.7 -15.05 Q-6.15 -15.65 -5.3 -15.65 -4.45 -15.65 -3.85 -15.05 L2.25 -8.95 Q2.8 -8.4 2.8 -7.55 2.8 -6.7 2.25 -6.1 1.65 -5.55 0.8 -5.55 -0.05 -5.55 -0.6 -6.1 L-2.3 -7.8 -2.3 10 -0.6 8.35 Q-0.05 7.75 0.8 7.75 1.65 7.75 2.25 8.35 2.8 8.9 2.8 9.75 2.8 10.6 2.25 11.2 L-3.85 17.3"/>
  </g>
</svg>