<svg xmlns="http://www.w3.org/2000/svg" xmlns:xlink="http://www.w3.org/1999/xlink">
  <defs/>
  <g>
    <path stroke="none" fill="#FFFFFF" d="M0.9 -15.25 Q-1.55 -15.55 -3.5 -14 L-6.1 -17.45 -5.2 -18.2 Q0.5 -23.15 7.4 -20.2 L7.45 -20.2 24.2 -12.8 24.15 -12.8 Q28.7 -10.85 28.7 -7.9 29.5 -5.1 25.75 -1.85 L24.2 -0.55 26.65 1 Q30.85 3.6 30.45 6.55 30.85 9.4 26.65 12.05 L1.6 27.75 Q-4.75 31.7 -11.1 27.75 L-11.15 27.75 -26.6 18 -26.55 18 Q-30.8 15.4 -30.4 12.5 -30.6 10.95 -29.5 9.55 -30.6 8.35 -30.6 6.95 -31.45 4.15 -27.65 1 L-27.6 0.95 -18.45 -6.9 Q-16.9 -5.15 -15.45 -2.85 L-16.55 -2.3 Q-18.65 -1 -19.25 1.4 L-19.3 1.75 -23.75 5.55 -24.55 6.05 -23.6 6.3 -23.5 6.35 -23.45 6.4 -23.2 6.45 -6.9 13.7 -6.85 13.7 Q-3.4 15.15 -0.6 12.75 L-0.6 12.8 16.95 -2.2 17.45 -2.65 21.85 -6.4 22.8 -7.05 Q22.45 -7 21.8 -7.3 L21.75 -7.3 5 -14.7 5.05 -14.7 Q3.2 -15.5 1.55 -15.15 L0.9 -15.25 M-25.95 -15.3 Q-28 -15.55 -29.25 -17.2 -30.5 -18.85 -30.25 -20.9 -30 -22.95 -28.35 -24.2 -26.7 -25.45 -24.65 -25.2 -11.95 -24.05 -2.85 -7.8 L-2.6 -9.95 Q-2.5 -11.2 -1.5 -11.95 -0.5 -12.7 0.7 -12.55 1.95 -12.45 2.7 -11.45 3.45 -10.5 3.35 -9.25 L1.55 5.65 0.9 7.2 -0.5 8.15 -2.15 8.25 -13.95 5.45 Q-15.15 5.15 -15.8 4.1 -16.45 3 -16.15 1.8 -15.9 0.6 -14.8 -0.05 -13.75 -0.7 -12.55 -0.4 L-9.95 0.2 Q-16.8 -13.6 -25.95 -15.3"/>
  </g>
</svg>