<svg xmlns="http://www.w3.org/2000/svg" xmlns:xlink="http://www.w3.org/1999/xlink">
  <defs/>
  <g>
    <path stroke="none" fill="#FFFFFF" d="M20.95 -10.85 Q21.75 -12.35 21.35 -14.05 L24.2 -12.8 24.15 -12.8 Q28.7 -10.85 28.7 -7.9 29.5 -5.1 25.75 -1.85 L24.2 -0.55 26.65 1 Q30.85 3.6 30.45 6.55 30.85 9.4 26.65 12.05 L1.6 27.75 Q-4.75 31.7 -11.1 27.75 L-11.15 27.75 -26.6 18 -26.55 18 Q-30.8 15.4 -30.4 12.5 -30.6 10.95 -29.5 9.55 -30.6 8.35 -30.6 6.95 -31.45 4.15 -27.65 1 L-27.6 0.95 -18.55 -6.8 Q-16.95 -4.5 -14.9 -2.65 L-14.95 -2.75 -14.5 -2.35 -23.75 5.55 -24.55 6.05 -23.6 6.3 -23.5 6.35 -23.45 6.4 -23.2 6.45 -6.9 13.7 -6.85 13.7 Q-3.4 15.15 -0.6 12.75 L-0.6 12.8 17 -2.2 17.45 -2.65 21.85 -6.4 22.8 -7.05 Q22.45 -7 21.8 -7.3 L21.75 -7.3 19.6 -8.25 20.9 -10.75 20.95 -10.85 M0.05 -21.35 Q-3.45 -21.35 -5.9 -18.95 -8.3 -16.45 -8.3 -13 -8.3 -9.5 -5.9 -7.05 -3.45 -4.6 0.05 -4.6 3.5 -4.6 6 -7.05 8.45 -9.5 8.45 -13 8.45 -16.45 6 -18.95 3.5 -21.35 0.05 -21.35 M0.05 -18 Q2.15 -18 3.6 -16.5 5.1 -15.1 5.1 -13 5.1 -10.9 3.6 -9.4 2.15 -7.95 0.05 -7.95 -2.05 -7.95 -3.55 -9.4 -4.95 -10.8 -4.95 -13 -4.95 -15.1 -3.55 -16.5 -2.05 -18 0.05 -18 M0.05 -26.4 Q7.45 -26.4 12.95 -21.1 16.25 -17.95 18.25 -13.75 18.65 -12.9 18.25 -12.15 16.25 -7.95 12.95 -4.8 7.45 0.4 0.05 0.4 -7.4 0.4 -12.9 -4.9 -16.25 -7.95 -18.3 -12.25 -18.55 -12.9 -18.3 -13.65 -16.25 -17.95 -12.9 -21.1 -7.4 -26.4 0.05 -26.4"/>
  </g>
</svg>