<svg xmlns="http://www.w3.org/2000/svg" xmlns:xlink="http://www.w3.org/1999/xlink">
  <defs/>
  <g>
    <path stroke="none" fill="#FFFFFF" d="M-15.95 1 L-12 4.95 -23.4 12.1 Q-24.05 12.5 -24.35 12.5 -24.05 12.5 -23.4 12.9 L-23.4 12.95 -7.95 22.7 -7.95 22.65 Q-4.75 24.6 -1.55 22.65 L-1.6 22.65 23.45 6.95 24.45 6.55 23.5 6.1 23.45 6.1 15.75 1.25 15.95 1 Q18 -1.05 18 -3.95 L18 -4.45 26.65 1 Q30.85 3.6 30.45 6.55 30.85 9.4 26.65 12.05 L1.6 27.75 Q-4.75 31.7 -11.1 27.75 L-11.15 27.75 -26.6 18 -26.55 18 Q-30.8 15.4 -30.4 12.5 -30.8 9.6 -26.55 7 L-26.6 7 -16.35 0.6 -15.95 1 M2.85 9.9 Q1.65 11.05 0 11.05 -1.65 11.05 -2.8 9.9 L-13.8 -1.1 Q-15 -2.3 -15 -3.95 -15 -5.6 -13.8 -6.75 -12.65 -7.95 -11 -7.95 -9.35 -7.95 -8.15 -6.75 L-5 -3.6 -5 -19 Q-5 -21.05 -3.5 -22.5 -2.05 -24 0 -24 2.05 -24 3.55 -22.5 5 -21.05 5 -19 L5 -3.6 8.2 -6.75 Q9.35 -7.95 11 -7.95 12.65 -7.95 13.85 -6.75 15 -5.6 15 -3.95 15 -2.3 13.85 -1.1 L2.85 9.9"/>
  </g>
</svg>