<svg xmlns="http://www.w3.org/2000/svg" xmlns:xlink="http://www.w3.org/1999/xlink">
  <defs/>
  <g>
    <path stroke="none" fill="#FFFFFF" d="M17.6 3.55 L15.45 5.7 13.35 3.5 7.95 -16.55 Q7.2 -19.45 4.3 -18.7 L-3.45 -16.65 -3.85 -16.55 -4.4 -16.35 -13.1 -14.05 Q-16.05 -13.3 -15.25 -10.35 L-8 16.7 Q-7.25 19.6 -4.3 18.8 L4.8 16.4 3.55 17.6 Q1.65 19.35 2.05 22.4 L2.1 22.5 2.25 23.25 -2.75 24.6 Q-11.45 26.9 -13.8 18.25 L-21.05 -8.8 Q-23.35 -17.5 -14.65 -19.85 L-5.95 -22.15 -5.6 -22.2 -5.05 -22.45 2.7 -24.5 2.75 -24.5 Q11.4 -26.8 13.75 -18.1 L19.25 2.4 Q18.35 2.75 17.6 3.55 M11.3 5.65 L15.45 9.85 19.65 5.65 20.05 5.35 Q20.8 4.85 21.95 5 23.45 5.2 24.6 6.4 25.75 7.55 25.9 8.95 26.15 10.4 25.3 11.25 L21.1 15.45 25.25 19.65 Q26.15 20.55 25.95 22 25.75 23.45 24.6 24.6 23.45 25.75 22 25.95 20.55 26.15 19.65 25.25 L15.5 21.05 11.3 25.25 Q10.4 26.15 8.9 25.95 7.55 25.8 6.35 24.6 5.4 23.65 5.1 22.5 L4.95 22 Q4.75 20.55 5.65 19.65 L9.85 15.45 5.7 11.25 Q4.8 10.4 5 9 5.2 7.5 6.35 6.4 7.55 5.2 8.95 5.05 10.4 4.8 11.3 5.65"/>
  </g>
</svg>