<svg xmlns="http://www.w3.org/2000/svg" xmlns:xlink="http://www.w3.org/1999/xlink">
  <defs/>
  <g>
    <path stroke="none" fill="#FFFFFF" d="M-30.4 -7.5 Q-30.8 -10.4 -26.55 -13 L-26.6 -13 -1.6 -28.7 Q4.8 -32.7 11.15 -28.75 L26.65 -19 Q30.85 -16.4 30.45 -13.45 30.8 -10.85 27.45 -8.45 30.8 -6.1 30.45 -3.45 30.8 -0.85 27.45 1.55 30.8 3.9 30.45 6.55 30.85 9.4 26.65 12.05 L1.6 27.75 Q-4.75 31.7 -11.1 27.75 L-11.15 27.75 -26.6 18 -26.55 18 Q-30.8 15.4 -30.4 12.5 -30.75 9.9 -27.35 7.5 -30.75 5.15 -30.4 2.5 -30.75 -0.1 -27.35 -2.5 -30.75 -4.85 -30.4 -7.5 M-23.4 -7.1 L-23.4 -7.05 -20.35 -5.15 -19.9 -4.85 -7.95 2.7 -7.95 2.65 Q-4.75 4.6 -1.55 2.65 L20.05 -10.85 20.25 -11 20.3 -11 23.45 -13.05 24.45 -13.45 Q24.15 -13.5 23.5 -13.9 L23.45 -13.9 7.95 -23.65 8 -23.65 Q4.8 -25.6 1.6 -23.6 L-23.4 -7.9 Q-24.05 -7.5 -24.35 -7.5 -24.05 -7.5 -23.4 -7.1"/>
  </g>
</svg>