<svg xmlns="http://www.w3.org/2000/svg" xmlns:xlink="http://www.w3.org/1999/xlink">
  <defs/>
  <g>
    <path stroke="none" fill="#FFFFFF" d="M11.35 1 L11.35 1.1 Q10.25 -4.25 2.25 -8.3 L2.35 -7.95 Q2.55 -7.15 2.1 -6.45 1.65 -5.75 0.9 -5.55 0.05 -5.35 -0.65 -5.8 -1.35 -6.25 -1.55 -7.05 L-3.35 -14.6 -3.3 -15.65 -2.65 -16.6 Q-2.25 -16.95 -1.65 -17 L8 -18.25 Q8.8 -18.4 9.45 -17.9 10.1 -17.4 10.25 -16.55 10.35 -15.75 9.85 -15.1 9.35 -14.45 8.55 -14.3 L8.1 -14.25 Q18.65 -8.3 19.3 0.15 L19.3 0.25 Q20.25 10.4 11.1 12.95 9.5 13.4 8.05 12.6 6.6 11.8 6.15 10.25 5.65 8.65 6.45 7.2 7.25 5.75 8.85 5.25 11.65 4.3 11.35 1 M-23 -29 L-5 -29 Q1 -29 1 -23 L1 -20.4 -2.05 -20 Q-3.45 -19.8 -4.55 -18.9 L-4.6 -18.9 Q-5.7 -18 -6.15 -16.6 L-6.15 -16.65 Q-6.6 -15.3 -6.25 -13.9 L-4.45 -6.35 Q-4 -4.35 -2.25 -3.25 L-2.2 -3.25 Q-0.7 -2.3 1 -2.5 L1 5 Q1 11 -5 11 L-23 11 Q-29 11 -29 5 L-29 -23 Q-29 -29 -23 -29 M4 5 L4 -1 7.05 -1 Q8 0.25 8.35 1.6 8.3 2.15 7.9 2.4 5.6 3.1 4.3 5 L4 5 M29 5 L29 11 23 11 23 5 22.2 5 Q22.5 2.8 22.3 0.25 L22.3 0.2 22.3 0.1 22.3 -0.1 22.25 -1 23 -1 Q29 -1 29 5 M-5 29 Q-11 29 -11 23 L-11 17 -5 17 -5 23 -1 23 -1 29 -5 29 M29 23 Q29 29 23 29 L19 29 19 23 23 23 23 17 29 17 29 23 M4 23 L14 23 14 29 4 29 4 23"/>
  </g>
</svg>