<svg xmlns="http://www.w3.org/2000/svg" xmlns:xlink="http://www.w3.org/1999/xlink">
  <defs/>
  <g>
    <path stroke="none" fill="#FFFFFF" d="M13.3 11.45 Q14.75 12.35 16.55 12.8 L16.55 17.05 Q16.55 26.05 7.55 26.05 L-10.5 26.05 Q-13.55 26.05 -15.5 24.9 -20.25 24.1 -21.8 18.25 L-29.05 -8.8 Q-31.35 -17.5 -22.65 -19.85 L-13.95 -22.15 -13.6 -22.2 -13.05 -22.45 -5.3 -24.5 -5.25 -24.5 Q2.45 -26.55 5.15 -19.95 L7.6 -19.95 Q14.5 -19.9 16.1 -14.5 L15.1 -13.7 13.6 -13.5 13.3 -13.35 Q11.45 -12.35 9.6 -10.5 L8.8 -11.1 8.75 -11.15 Q7.15 -12.4 5.35 -13.1 L4.85 -13.25 1.05 -14 0.65 -14 0.05 -16.15 0 -16.5 -0.05 -16.6 -0.05 -16.55 Q-0.8 -19.5 -3.7 -18.7 L-11.45 -16.65 -11.85 -16.55 -12.4 -16.35 -21.1 -14.05 Q-24.05 -13.3 -23.25 -10.35 L-16 16.7 Q-15.5 18.65 -14.1 19.05 L-12.35 18.8 -12.3 18.8 5.1 14.15 Q8 13.4 7.2 10.5 L7.15 10.3 8.75 9.25 9.6 8.6 Q11.45 10.45 13.3 11.45 M10 -6.5 Q12.4 -9.4 14.75 -10.7 L16.55 -11.55 17.45 -11.8 20.3 -12.2 21.45 -12.2 21.4 -14.85 21.55 -15.45 22 -15.9 22.6 -15.95 23.15 -15.7 28.7 -10 29 -9.3 28.75 -8.6 23.2 -2.75 Q22.95 -2.5 22.65 -2.4 L22 -2.45 Q21.7 -2.6 21.55 -2.9 L21.4 -3.5 21.45 -5.8 20.75 -5.8 19.2 -5.6 Q17.85 -5.3 16.55 -4.15 L15.45 -3.05 15.45 -3.1 13.75 -0.95 15.45 1.2 15.45 1.15 16.5 2.2 Q17.85 3.4 19.2 3.7 L20.75 3.9 21.45 3.9 21.4 1.6 21.55 1 Q21.7 0.7 22 0.55 L22.65 0.5 Q22.95 0.6 23.2 0.85 L28.75 6.7 29 7.4 28.7 8.1 23.15 13.8 22.6 14.05 22 14 21.55 13.55 21.4 12.95 21.45 10.3 20.3 10.3 17.45 9.9 16.55 9.65 14.75 8.8 Q12.4 7.5 10 4.6 L9.7 4.25 Q8.25 5.85 6.95 6.85 L6.35 7.3 4.2 8.45 4.15 8.45 0.95 9.1 -1.05 9.15 -3 9.15 -3.7 8.85 -4 8.15 -4 3.7 -3.7 3 Q-3.4 2.7 -3 2.7 L-1.1 2.7 0.7 2.65 Q2.65 2.5 4.55 0.55 L4.55 0.5 5.8 -0.95 4.55 -2.4 3.5 -3.35 Q2.1 -4.45 0.7 -4.55 L-1.1 -4.6 -3 -4.6 Q-3.4 -4.6 -3.7 -4.9 L-4 -5.6 -4 -10.05 -3.7 -10.75 -3 -11.05 -1.05 -11.05 0.95 -11 1.45 -10.95 Q2.8 -10.85 4.15 -10.35 L4.2 -10.35 Q5.65 -9.75 6.95 -8.75 8.25 -7.75 9.7 -6.15 L10 -6.5"/>
  </g>
</svg>