<svg xmlns="http://www.w3.org/2000/svg" xmlns:xlink="http://www.w3.org/1999/xlink">
  <defs/>
  <g>
    <path stroke="none" fill="#FFFFFF" d="M19.95 -10.85 Q20.5 -11.85 20.5 -12.85 L26.65 -9 Q30.85 -6.4 30.45 -3.45 30.8 -0.85 27.45 1.55 30.8 3.9 30.45 6.55 30.85 9.4 26.65 12.05 L1.6 27.75 Q-4.75 31.7 -11.1 27.75 L-11.15 27.75 -26.6 18 -26.55 18 Q-30.8 15.4 -30.4 12.5 -30.75 9.9 -27.35 7.5 -30.75 5.15 -30.4 2.5 -30.8 -0.4 -26.55 -3 L-26.6 -3 -19.85 -7.2 Q-18.15 -4.7 -15.9 -2.65 L-15.95 -2.75 Q-10.05 2.95 -2.15 3.4 L-0.95 3.4 -0.65 3.4 Q7.75 3.3 14 -2.6 L14.05 -2.6 Q17.7 -6.1 19.9 -10.75 L19.95 -10.85 M-0.95 -21.35 Q-4.45 -21.35 -6.9 -18.95 -9.3 -16.45 -9.3 -13 -9.3 -9.5 -6.9 -7.05 -4.45 -4.6 -0.95 -4.6 2.5 -4.6 5 -7.05 7.45 -9.5 7.45 -13 7.45 -16.45 5 -18.95 2.5 -21.35 -0.95 -21.35 M-0.95 -18 Q1.15 -18 2.6 -16.5 4.1 -15.1 4.1 -13 4.1 -10.9 2.6 -9.4 1.15 -7.95 -0.95 -7.95 -3.05 -7.95 -4.55 -9.4 -5.95 -10.8 -5.95 -13 -5.95 -15.1 -4.55 -16.5 -3.05 -18 -0.95 -18 M-0.95 -26.4 Q6.45 -26.4 11.95 -21.1 15.25 -17.95 17.25 -13.75 17.65 -12.9 17.25 -12.15 15.25 -7.95 11.95 -4.8 6.45 0.4 -0.95 0.4 -8.4 0.4 -13.9 -4.9 -17.25 -7.95 -19.3 -12.25 -19.55 -12.9 -19.3 -13.65 -17.25 -17.95 -13.9 -21.1 -8.4 -26.4 -0.95 -26.4"/>
  </g>
</svg>