<svg xmlns="http://www.w3.org/2000/svg" xmlns:xlink="http://www.w3.org/1999/xlink">
  <defs/>
  <g>
    <path stroke="none" fill="#FFFFFF" d="M-23 -29 L-5 -29 Q1 -29 1 -23 L1 -16.05 4 -15.2 5 -14.75 Q10 -12.25 13.95 -5.5 L14 -5.65 Q14.1 -6.45 14.75 -6.95 15.4 -7.5 16.2 -7.35 L17.55 -6.6 Q18.05 -5.95 17.95 -5.15 L17.1 1.35 16.9 3.05 16.7 4.5 16.25 5.55 15.35 6.15 14.25 6.2 6.7 4.4 Q5.9 4.2 5.45 3.5 5 2.8 5.2 2 5.4 1.2 6.1 0.75 6.8 0.3 7.65 0.5 L8.2 0.65 Q6.7 -2.3 5 -4.3 L4 -5.35 1 -7.55 1 5 Q1 11 -5 11 L-23 11 Q-29 11 -29 5 L-29 -23 Q-29 -29 -23 -29 M29 5 L29 23 Q29 29 23 29 L-5 29 Q-11 29 -11 23 L-11 14 -5 14 Q3.15 14 3.95 6.65 4.65 7.15 5.6 7.4 L13.2 9.2 16 9.05 16.05 9.05 Q17.25 8.5 18.25 7.45 19.1 6.35 19.3 4.9 L19.45 3.75 Q19.9 2.5 19.75 1.25 L20.05 -1 23 -1 Q29 -1 29 5"/>
  </g>
</svg>