<svg xmlns="http://www.w3.org/2000/svg" xmlns:xlink="http://www.w3.org/1999/xlink">
  <defs/>
  <g>
    <path stroke="none" fill="#FFFFFF" d="M-10.05 8.45 Q-5.85 6.9 -2.3 7.4 L0 7.8 Q0.95 8.05 1.55 7.25 L2.1 6.5 Q3.4 5.2 5.3 5.2 7.2 5.2 8.5 6.5 9.8 7.8 9.8 9.7 9.75 11.55 8.45 12.85 L7.75 13.45 Q6.95 14.05 7.25 15.05 L7.65 17.3 Q8.1 20.9 6.55 25.05 L6.1 25.85 5.9 26.05 5.25 26.55 5.15 26.55 4.35 26.75 Q3.45 26.75 2.8 26.1 2.2 25.5 2.2 24.6 L2.2 24.2 2.8 21.8 2.75 21.75 2.75 21.65 2.6 21.15 2.1 21 Q1.85 20.95 1.65 21.15 1.2 21.6 0.25 23.95 -0.65 26.35 -1.4 27.6 L-1.45 27.65 -1.7 28 Q-2.15 28.45 -2.75 28.45 L-3.6 28.3 -4 28 -4.4 27.6 -6.6 25.4 -7.05 24.55 -7.05 24.25 -7.05 23.85 -6.85 23.35 -6.65 23.15 -4.95 20.65 -4.9 20.6 -4.85 20.35 -5 20 Q-5.15 19.85 -5.35 19.85 L-5.6 19.9 -5.65 19.95 -8.1 21.7 -8.4 21.8 -8.9 22 -9.2 22.1 -9.6 22 -10.4 21.6 -12.6 19.4 -13 19 -13.35 18.55 -13.5 17.7 Q-13.45 17.15 -13 16.7 L-12.7 16.4 -12.6 16.4 Q-11.35 15.65 -9 14.7 -6.65 13.75 -6.2 13.3 L-6 12.9 -6.2 12.4 Q-6.35 12.25 -6.65 12.25 L-6.75 12.25 -6.8 12.2 -9.25 12.75 -9.6 12.8 Q-10.5 12.8 -11.1 12.15 -11.75 11.55 -11.75 10.65 L-11.6 9.8 -11.55 9.75 -11.1 9.1 -10.9 8.9 Q-10.5 8.6 -10.05 8.45 M5 -5 Q5 -2.95 3.55 -1.45 2.05 0 0 0 -2.05 0 -3.5 -1.45 -5 -2.95 -5 -5 L-5 -14.75 -6.95 -12.8 Q-7.85 -11.95 -9.05 -11.95 -10.3 -11.95 -11.15 -12.85 -12.05 -13.75 -12.05 -14.95 -12.05 -16.2 -11.15 -17.05 L-2.1 -26.1 Q-1.25 -27 0 -27 1.25 -27 2.15 -26.1 L11.2 -17.05 Q12.05 -16.2 12.05 -14.95 12.05 -13.7 11.2 -12.8 10.3 -11.95 9.05 -11.95 7.8 -11.95 6.95 -12.8 L5 -14.75 5 -5"/>
  </g>
</svg>