<svg xmlns="http://www.w3.org/2000/svg" xmlns:xlink="http://www.w3.org/1999/xlink">
  <defs/>
  <g>
    <path stroke="none" fill="#FFFFFF" d="M-23.45 4.9 Q-19.7 -3.1 -14.05 -7.5 -11.9 -9.3 -10.25 -10.2 -8.5 -11.2 -8.85 -13.2 L-9 -15 Q-9 -18.7 -6.35 -21.35 -3.75 -24 0 -24 3.7 -24 6.35 -21.35 9 -18.7 9 -15 L8.8 -13.2 Q8.5 -11.2 10.25 -10.2 11.85 -9.3 14.05 -7.5 19.75 -3.1 23.45 4.9 L23.95 6.75 24 7.4 23.75 8.85 23.7 9.05 22.75 10.45 Q21.45 11.7 19.7 11.7 17.95 11.7 16.65 10.45 L16.2 9.9 13.55 5.7 13.45 5.6 13.3 5.45 Q12.95 5.05 12.4 5.05 11.85 5.05 11.45 5.45 11.1 5.8 11.1 6.35 L11.1 6.4 Q11.1 7.6 13.1 12.3 15.1 16.95 15.85 19.75 L15.85 19.95 16 20.8 Q15.95 22.1 15.2 22.85 L13.75 23.85 12.7 24 11.6 24 5.45 24 5.35 24 Q4.35 24 3.6 23.5 L3.05 23.05 2.55 22.45 2.2 21.5 2.05 20.9 1 14.95 1 14.9 0.7 14.35 Q0.4 14.05 0 14.05 -0.45 14.05 -0.75 14.35 L-1 14.9 -1 14.95 -2.05 20.9 -2.2 21.5 -2.6 22.45 -3.05 23.05 -3.6 23.5 Q-4.4 24 -5.35 24 L-5.45 24 -11.6 24 -12.75 24 -13.8 23.85 -15.2 22.85 Q-15.95 22.1 -16 20.8 L-15.9 19.95 -15.85 19.75 Q-15.15 16.95 -13.1 12.3 -11.15 7.6 -11.15 6.4 L-11.15 6.35 Q-11.15 5.8 -11.45 5.45 -11.9 5.05 -12.4 5.05 -12.95 5.05 -13.3 5.45 L-13.45 5.6 -13.55 5.7 -16.25 9.9 -16.7 10.45 Q-17.95 11.7 -19.7 11.7 -21.5 11.7 -22.75 10.45 L-23.75 9.05 -23.75 8.85 -24 7.4 -24 6.75 -23.45 4.9"/>
  </g>
</svg>