<svg xmlns="http://www.w3.org/2000/svg" xmlns:xlink="http://www.w3.org/1999/xlink">
  <defs/>
  <g>
    <path stroke="none" fill="#FFFFFF" d="M2.1 26.15 Q1.25 27 0 27 -1.25 27 -2.1 26.15 L-11.15 17.1 Q-12.05 16.2 -12.05 14.95 -12.05 13.7 -11.15 12.85 -10.3 11.95 -9.05 11.95 -7.8 11.95 -6.9 12.85 L-5 14.75 -5 5 Q-5 2.95 -3.5 1.5 -2.05 0 0 0 2.05 0 3.55 1.5 5 2.95 5 5 L5 14.8 6.95 12.85 Q7.85 11.95 9.1 11.95 10.3 11.95 11.2 12.85 12.05 13.75 12.05 15 12.05 16.2 11.15 17.1 L2.1 26.15 M-6.55 -4.95 Q-8 -9.1 -7.55 -12.65 L-7.15 -14.95 Q-6.9 -15.9 -7.7 -16.5 L-8.45 -17.05 Q-9.75 -18.35 -9.75 -20.25 -9.75 -22.15 -8.45 -23.45 -7.15 -24.75 -5.25 -24.75 -3.4 -24.7 -2.1 -23.4 L-1.5 -22.7 Q-0.9 -21.9 0.1 -22.2 L2.4 -22.6 Q5.95 -23.05 10.05 -21.55 L10.95 -21.05 11.15 -20.85 11.6 -20.2 11.6 -20.1 11.8 -19.3 Q11.8 -18.4 11.15 -17.75 10.55 -17.15 9.65 -17.15 L9.25 -17.15 6.85 -17.75 6.75 -17.75 6.7 -17.7 6.25 -17.55 6.05 -17.05 6.2 -16.6 Q6.65 -16.15 9 -15.2 11.4 -14.3 12.65 -13.55 L12.7 -13.5 13.05 -13.25 Q13.5 -12.8 13.5 -12.2 L13.35 -11.35 13.05 -10.95 12.65 -10.55 10.45 -8.35 9.6 -7.9 9.3 -7.9 8.9 -7.9 8.4 -8.1 8.2 -8.3 5.7 -10 5.65 -10.05 5.4 -10.1 5.05 -9.95 4.9 -9.6 4.95 -9.35 5 -9.3 6.75 -6.85 6.85 -6.55 7.05 -6.05 7.15 -5.75 7.05 -5.35 6.65 -4.55 4.45 -2.35 4.05 -1.95 3.6 -1.6 2.75 -1.45 Q2.2 -1.5 1.75 -1.95 L1.45 -2.25 1.45 -2.35 -0.25 -5.95 Q-1.2 -8.3 -1.65 -8.75 L-2.05 -8.95 -2.55 -8.75 -2.7 -8.3 -2.75 -8.25 -2.75 -8.15 -2.2 -5.7 -2.15 -5.35 Q-2.15 -4.45 -2.75 -3.85 -3.4 -3.2 -4.3 -3.2 L-5.15 -3.35 -5.2 -3.4 -5.85 -3.85 -6.05 -4.05 -6.55 -4.95"/>
  </g>
</svg>