<svg xmlns="http://www.w3.org/2000/svg" xmlns:xlink="http://www.w3.org/1999/xlink">
  <defs/>
  <g>
    <path stroke="none" fill="#FFFFFF" d="M-17 17.45 L-16.95 17.45 Q-16.8 16.15 -15.85 15.15 -14.65 14 -13 14 L-12 14 -12 -6.15 -18.4 -12.55 Q-19 -13.15 -19 -14 L-19 -26 Q-19 -26.85 -18.4 -27.4 -17.85 -28 -17 -28 L-11 -28 Q-10.15 -28 -9.55 -27.4 -9 -26.85 -9 -26 L-9 -20 -5 -20 -5 -26 Q-5 -26.85 -4.4 -27.4 -3.85 -28 -3 -28 L3 -28 Q3.85 -28 4.45 -27.4 5 -26.85 5 -26 L5 -20 9 -20 9 -26 Q9 -26.85 9.6 -27.4 10.15 -28 11 -28 L17 -28 Q17.85 -28 18.45 -27.4 19 -26.85 19 -26 L19 -14 Q19 -13.15 18.45 -12.55 L12 -6.1 12 14 13 14 Q14.65 14 15.8 15.15 16.8 16.15 17 17.45 L17 21 -17 21 -17 17.45 M18 32 L-18 32 Q-19.65 32 -20.85 30.8 -22 29.65 -22 28 L-22 25.45 -21.95 25.45 Q-21.8 24.15 -20.85 23.15 L-20.65 23 20.65 23 20.8 23.15 Q21.8 24.15 22 25.45 L22 28 Q22 29.65 20.8 30.8 19.65 32 18 32"/>
  </g>
</svg>