<svg xmlns="http://www.w3.org/2000/svg" xmlns:xlink="http://www.w3.org/1999/xlink">
  <defs/>
  <g>
    <path stroke="none" fill="#FFFFFF" d="M-10 14 L-7.55 1.8 -8.5 1.1 Q-11.35 -1.25 -11.9 -4.35 L-12 -5.85 -12 -6.35 Q-11.75 -13.5 -8.5 -18.7 -6.85 -21.2 -4.9 -22.5 -6 -24 -6 -26 -6 -28.5 -4.25 -30.3 -2.5 -32 0 -32 2.5 -32 4.25 -30.3 6 -28.5 6 -26 6 -24 4.9 -22.5 L6.9 -20.7 Q8.75 -18.45 6.65 -16.2 L2.25 -11.75 Q1.5 -11.05 1.5 -10 1.5 -8.95 2.25 -8.2 2.95 -7.5 4 -7.5 5.05 -7.5 5.8 -8.2 L8.25 -10.65 Q11.6 -13.75 11.95 -8.2 L12 -7.4 12 -5.85 11.9 -4.35 Q11.35 -1.25 8.45 1.1 L7.55 1.8 10 14 13 14 Q14.65 14 15.8 15.15 16.8 16.15 17 17.45 L17 21 -17 21 -17 17.45 -16.95 17.45 Q-16.8 16.15 -15.85 15.15 -14.65 14 -13 14 L-10 14 M18 32 L-18 32 Q-19.65 32 -20.85 30.8 -22 29.65 -22 28 L-22 25.45 -21.95 25.45 Q-21.8 24.15 -20.85 23.15 L-20.65 23 20.65 23 20.8 23.15 Q21.8 24.15 22 25.45 L22 28 Q22 29.65 20.8 30.8 19.65 32 18 32"/>
  </g>
</svg>