<svg xmlns="http://www.w3.org/2000/svg" xmlns:xlink="http://www.w3.org/1999/xlink">
  <defs/>
  <g>
    <path stroke="none" fill="#FFFFFF" d="M-7.1 -22.1 Q-5.75 -23.45 -4.1 -24.15 -5 -25.4 -5 -27 -5 -29.05 -3.55 -30.55 -2.05 -32 0 -32 2.05 -32 3.5 -30.55 5 -29.05 5 -27 5 -25.4 4.1 -24.15 L7.05 -22.1 Q9.1 -20.05 9.75 -17.4 L6.85 -15.55 2.95 -18.1 3 -18.1 Q1.6 -19 0 -19 -1.6 -19 -2.85 -18.1 L-6.85 -15.55 -9.7 -17.4 Q-9.1 -20.05 -7.1 -22.1 M-9 14 L-9 4 -10 4 Q-11.65 4 -12.85 2.8 -14 1.65 -14 0 L-14 -1.8 -12.6 -1.85 -15.9 -13.15 -15.85 -14.5 Q-15.65 -15.15 -15.05 -15.55 -14.5 -15.95 -13.75 -16 -13.05 -16 -12.45 -15.6 L-6.85 -12 -1.25 -15.6 Q-0.7 -16 0 -16 0.7 -16 1.3 -15.6 L6.85 -12 12.45 -15.6 Q13.05 -16 13.75 -16 14.5 -15.95 15.05 -15.55 L15.9 -14.5 Q16.1 -13.8 15.9 -13.15 L12.6 -1.85 14 -1.8 14 0 Q14 1.65 12.8 2.8 11.65 4 10 4 L9 4 9 14 10 14 Q11.65 14 12.8 15.15 13.8 16.15 14 17.45 L14 21 -14 21 -14 17.45 -13.95 17.45 Q-13.8 16.15 -12.85 15.15 -11.65 14 -10 14 L-9 14 M15 32 L-15 32 Q-16.65 32 -17.85 30.8 -19 29.65 -19 28 L-19 25.45 -18.95 25.45 Q-18.8 24.15 -17.85 23.15 L-17.65 23 17.65 23 17.8 23.15 Q18.8 24.15 19 25.45 L19 28 Q19 29.65 17.8 30.8 16.65 32 15 32"/>
  </g>
</svg>