<svg xmlns="http://www.w3.org/2000/svg" xmlns:xlink="http://www.w3.org/1999/xlink">
  <defs/>
  <g>
    <path stroke="none" fill="#FFFFFF" d="M-17 17.45 L-16.95 17.45 Q-16.8 16.15 -15.85 15.15 -14.7 14.05 -13.15 14 -11.4 10.05 -5.9 5.75 -2.05 2.65 1.65 -4.6 L1.75 -6.1 0.9 -5.85 1 -6 Q-6.55 0.5 -12.5 -0.05 -15.8 -0.3 -16.9 -3.5 L-17 -4.2 -16.8 -4.85 -8.15 -19.15 -10.4 -21.35 Q-10.85 -21.8 -10.85 -22.45 -10.85 -23.1 -10.4 -23.55 -9.95 -24 -9.3 -24 L3.05 -24 3.15 -24 Q16.3 -23.45 17 -10.25 L17 2.1 17 2.25 Q16.1 9.75 13.95 14.1 15 14.35 15.8 15.15 16.8 16.15 17 17.45 L17 21 -17 21 -17 17.45 M18 32 L-18 32 Q-19.65 32 -20.85 30.8 -22 29.65 -22 28 L-22 25.45 -21.95 25.45 Q-21.8 24.15 -20.85 23.15 L-20.65 23 20.65 23 20.8 23.15 Q21.8 24.15 22 25.45 L22 28 Q22 29.65 20.8 30.8 19.65 32 18 32"/>
  </g>
</svg>