<svg xmlns="http://www.w3.org/2000/svg" xmlns:xlink="http://www.w3.org/1999/xlink">
  <defs/>
  <g>
    <path stroke="none" fill="#FFFFFF" d="M10 -18 Q10 -14.55 8 -12 9.65 -12 10.8 -10.85 11.8 -9.85 12 -8.55 L12 -6 Q12 -4.35 10.8 -3.2 L9.3 -2.2 12 14 13 14 Q14.65 14 15.8 15.15 16.8 16.15 17 17.45 L17 21 -17 21 -17 17.45 -16.95 17.45 Q-16.8 16.15 -15.85 15.15 -14.65 14 -13 14 L-12 14 -9.3 -2.2 -10.85 -3.2 Q-12 -4.35 -12 -6 L-12 -8.55 -11.95 -8.55 Q-11.8 -9.85 -10.85 -10.85 -9.65 -12 -8 -12 -10 -14.55 -10 -18 -10 -22.15 -7.1 -25.15 -4.15 -28 0 -28 4.15 -28 7.05 -25.15 10 -22.15 10 -18 M18 32 L-18 32 Q-19.65 32 -20.85 30.8 -22 29.65 -22 28 L-22 25.45 -21.95 25.45 Q-21.8 24.15 -20.85 23.15 L-20.65 23 20.65 23 20.8 23.15 Q21.8 24.15 22 25.45 L22 28 Q22 29.65 20.8 30.8 19.65 32 18 32"/>
  </g>
</svg>