<svg xmlns="http://www.w3.org/2000/svg" xmlns:xlink="http://www.w3.org/1999/xlink">
  <defs/>
  <g>
    <path stroke="none" fill="#FFFFFF" d="M-7.1 -16.1 Q-5.7 -17.5 -4 -18.2 L-4 -20 -6 -20 Q-6.85 -20 -7.4 -20.55 -8 -21.15 -8 -22 L-8 -26 Q-8 -26.85 -7.4 -27.4 -6.85 -28 -6 -28 L-4 -28 -4 -30 Q-4 -30.85 -3.4 -31.4 -2.85 -32 -2 -32 L2 -32 Q2.85 -32 3.45 -31.4 4 -30.85 4 -30 L4 -28 6 -28 Q6.85 -28 7.45 -27.4 8 -26.85 8 -26 L8 -22 Q8 -21.15 7.45 -20.55 6.85 -20 6 -20 L4 -20 4 -18.2 Q5.65 -17.5 7.05 -16.1 8.45 -14.7 9.2 -13 L-9.2 -13 Q-8.5 -14.7 -7.1 -16.1 M-9 14 L-9 10 -10 10 Q-11.65 10 -12.85 8.8 -14 7.65 -14 6 L-14 3.45 -13.95 3.45 -13.3 1.75 -15.9 -7.15 -15.85 -8.5 Q-15.65 -9.15 -15.05 -9.55 -14.5 -9.95 -13.75 -10 L13.75 -10 Q14.5 -9.95 15.05 -9.55 L15.9 -8.5 Q16.1 -7.8 15.9 -7.15 L13.3 1.75 Q13.85 2.5 14 3.45 L14 6 Q14 7.65 12.8 8.8 11.65 10 10 10 L9 10 9 14 10 14 Q11.65 14 12.8 15.15 13.8 16.15 14 17.45 L14 21 -14 21 -14 17.45 -13.95 17.45 Q-13.8 16.15 -12.85 15.15 -11.65 14 -10 14 L-9 14 M15 32 L-15 32 Q-16.65 32 -17.85 30.8 -19 29.65 -19 28 L-19 25.45 -18.95 25.45 Q-18.8 24.15 -17.85 23.15 L-17.65 23 17.65 23 17.8 23.15 Q18.8 24.15 19 25.45 L19 28 Q19 29.65 17.8 30.8 16.65 32 15 32"/>
  </g>
</svg>