<svg xmlns="http://www.w3.org/2000/svg" xmlns:xlink="http://www.w3.org/1999/xlink">
  <defs/>
  <g>
    <path stroke="none" fill="#FFFFFF" d="M6 -20 Q6 -18.4 5.3 -17.1 L12.65 -4.8 19 -9.05 Q19 -11.1 20.45 -12.55 21.95 -14 24 -14 26.05 -14 27.5 -12.55 29 -11.05 29 -9 29 -6.95 27.5 -5.5 26.45 -4.4 25.1 -4.1 L22 14.95 21.9 15.35 Q21.2 18.95 14.95 21.45 11.25 22.95 6.7 23.6 L0 24 -6.6 23.6 Q-11.25 22.95 -14.9 21.45 L-14.85 21.45 Q-21.2 18.95 -21.85 15.35 L-21.95 14.95 -25.05 -4.1 Q-26.45 -4.4 -27.55 -5.5 -29 -6.95 -29 -9 -29 -11.05 -27.55 -12.55 -26.05 -14 -24 -14 -21.95 -14 -20.5 -12.55 -19.05 -11.1 -19 -9.05 L-12.65 -4.8 -5.25 -17.1 Q-6 -18.4 -6 -20 -6 -22.45 -4.25 -24.25 -2.45 -26 0 -26 2.5 -26 4.2 -24.25 6 -22.45 6 -20 M-5.4 8.6 Q-6 9.15 -6 10 -6 10.85 -5.4 11.45 L-1.4 15.45 Q-0.85 16 0 16 0.85 16 1.45 15.45 L5.45 11.45 Q6 10.85 6 10 6 9.15 5.45 8.6 L1.45 4.6 Q0.85 4 0 4 -0.85 4 -1.4 4.6 L-5.4 8.6"/>
  </g>
</svg>