<svg xmlns="http://www.w3.org/2000/svg" xmlns:xlink="http://www.w3.org/1999/xlink">
  <defs/>
  <g>
    <path stroke="none" fill="#FFFFFF" d="M26 -9.65 L22 14.95 21.9 15.35 Q21.2 18.95 14.95 21.45 11.25 22.95 6.7 23.6 L0 24 -6.6 23.6 Q-11.25 22.95 -14.9 21.45 L-14.85 21.45 Q-21.2 18.95 -21.85 15.35 L-21.95 14.95 -25.95 -9.65 Q-26.1 -10.5 -25.6 -11.15 -25.15 -11.8 -24.35 -11.95 -23.6 -12.15 -22.9 -11.65 L-12.65 -4.8 -1.7 -23 -0.65 -23.85 Q0 -24.1 0.7 -23.85 L1.75 -23 12.65 -4.8 22.9 -11.65 Q23.6 -12.15 24.4 -11.95 25.15 -11.8 25.65 -11.15 26.1 -10.5 26 -9.65 M-5.4 8.6 Q-6 9.15 -6 10 -6 10.85 -5.4 11.45 L-1.4 15.45 Q-0.85 16 0 16 0.85 16 1.45 15.45 L5.45 11.45 Q6 10.85 6 10 6 9.15 5.45 8.6 L1.45 4.6 Q0.85 4 0 4 -0.85 4 -1.4 4.6 L-5.4 8.6"/>
  </g>
</svg>