<svg xmlns="http://www.w3.org/2000/svg" xmlns:xlink="http://www.w3.org/1999/xlink">
  <defs/>
  <g>
    <path stroke="none" fill="#FFFFFF" d="M1.45 -28.75 Q2.85 -28.35 3.85 -27.2 L3.85 -27.15 23.85 -3.15 Q25 -1.8 25 0 25 1.8 23.85 3.25 L3.85 27.25 3.8 27.3 1.55 28.8 1.45 28.85 Q0 29.25 -1.4 28.85 L-1.5 28.8 -3.75 27.3 -3.8 27.25 -23.8 3.25 -23.85 3.25 Q-25 1.8 -25 0 -25 -1.85 -23.8 -3.2 L-23.8 -3.15 -3.8 -27.15 -3.8 -27.2 Q-2.85 -28.35 -1.4 -28.75 L-1.5 -28.7 Q0 -29.25 1.55 -28.7 L1.45 -28.75"/>
  </g>
</svg>