<svg xmlns="http://www.w3.org/2000/svg" xmlns:xlink="http://www.w3.org/1999/xlink">
  <defs/>
  <g>
    <path stroke="none" fill="#FFFFFF" d="M-2.2 31.7 L-2.3 31.65 -2.35 31.65 -2.55 31.6 Q-4.6 30.8 -5.95 29.25 L-6.05 29.2 -26.15 5.15 -26.2 5.1 Q-28 2.8 -28 0 -28 -2.8 -26.2 -5.1 L-26.15 -5.15 -6.05 -29.2 -5.95 -29.25 Q-4.6 -30.8 -2.55 -31.6 L-2.35 -31.65 -2.3 -31.65 -2.2 -31.7 0 -32 2.2 -31.7 2.3 -31.65 2.35 -31.65 2.55 -31.6 Q4.6 -30.8 5.95 -29.25 L6.05 -29.2 26.15 -5.15 26.2 -5.1 Q28 -2.8 28 0 28 2.8 26.2 5.1 L26.15 5.15 6.05 29.2 5.95 29.25 Q4.6 30.8 2.55 31.6 L2.35 31.65 2.3 31.65 2.2 31.7 0 32 -2.2 31.7 M-0.2 26 L0 26.1 0.2 26 0.8 25.8 1.45 25.35 21.5 1.35 Q22 0.7 22 0 22 -0.7 21.5 -1.35 L1.45 -25.35 0.8 -25.8 0.2 -26 0 -26.1 -0.2 -26 -0.8 -25.8 -1.45 -25.35 -21.5 -1.35 Q-22 -0.7 -22 0 -22 0.7 -21.5 1.35 L-1.45 25.35 -0.8 25.8 -0.2 26"/>
  </g>
</svg>