<svg xmlns="http://www.w3.org/2000/svg" xmlns:xlink="http://www.w3.org/1999/xlink">
  <defs/>
  <g>
    <path stroke="none" fill="#FFFFFF" d="M-2.2 31.7 L-2.3 31.65 -2.35 31.65 -2.55 31.6 Q-4.6 30.8 -5.95 29.25 L-6.05 29.2 -26.15 5.15 -26.2 5.1 Q-28 2.8 -28 0 -28 -2.8 -26.2 -5.1 L-26.15 -5.15 -6.05 -29.2 -5.95 -29.25 Q-4.6 -30.8 -2.55 -31.6 L-2.35 -31.65 -2.3 -31.65 -2.2 -31.7 0 -32 2.2 -31.7 2.3 -31.65 2.35 -31.65 2.55 -31.6 Q4.6 -30.8 5.95 -29.25 L6.05 -29.2 26.15 -5.15 26.2 -5.1 Q28 -2.8 28 0 28 2.8 26.2 5.1 L26.15 5.15 6.05 29.2 5.95 29.25 Q4.6 30.8 2.55 31.6 L2.35 31.65 2.3 31.65 2.2 31.7 0 32 -2.2 31.7 M-0.2 26 L0 26.1 0.2 26 0.8 25.8 1.45 25.35 21.5 1.35 Q22 0.7 22 0 22 -0.7 21.5 -1.35 L1.45 -25.35 0.8 -25.8 0.2 -26 0 -26.1 -0.2 -26 -0.8 -25.8 -1.45 -25.35 -21.5 -1.35 Q-22 -0.7 -22 0 -22 0.7 -21.5 1.35 L-1.45 25.35 -0.8 25.8 -0.2 26 M-12.05 -1.45 L-12.05 4.2 -10.9 4.2 Q-9.7 4.2 -9.1 3.5 -8.45 2.8 -8.45 1.4 -8.45 0 -9.1 -0.75 -9.75 -1.45 -10.9 -1.45 L-12.05 -1.45 M-11 7.25 L-13.7 7.25 Q-14.6 7.25 -15.1 6.8 -15.55 6.3 -15.55 5.4 L-15.55 -2.65 Q-15.55 -3.55 -15.1 -4 -14.6 -4.5 -13.7 -4.5 L-11 -4.5 Q-8 -4.5 -6.4 -2.9 -4.85 -1.35 -4.85 1.4 -4.85 4.15 -6.4 5.7 -8 7.25 -11 7.25 M-1.6 -0.35 L-2.05 -0.2 -2.55 -0.1 Q-3.25 -0.1 -3.7 -0.55 -4.1 -1.05 -4.1 -1.7 -4.1 -2.8 -3.05 -3.2 L-0.35 -4.2 0.65 -4.35 1.55 -4.05 Q1.95 -3.7 1.95 -2.95 L1.95 5.5 Q1.95 6.3 1.45 6.8 1 7.25 0.15 7.25 -0.7 7.25 -1.15 6.8 -1.6 6.3 -1.6 5.5 L-1.6 -0.35 M7.85 3.55 Q8.4 4.2 9.25 4.2 10.15 4.2 10.7 3.55 11.25 2.85 11.25 1.4 11.25 -0.1 10.7 -0.75 10.1 -1.45 9.25 -1.45 8.4 -1.45 7.85 -0.75 7.3 -0.1 7.3 1.4 7.3 2.9 7.85 3.55 M9.3 7.4 Q6.85 7.4 5.25 5.8 3.65 4.25 3.65 1.4 3.65 -1.35 5.25 -2.95 6.9 -4.6 9.25 -4.6 11.65 -4.6 13.25 -2.95 14.9 -1.35 14.9 1.4 14.9 4.25 13.3 5.8 11.7 7.4 9.3 7.4"/>
  </g>
</svg>