<svg xmlns="http://www.w3.org/2000/svg" xmlns:xlink="http://www.w3.org/1999/xlink">
  <defs/>
  <g>
    <path stroke="none" fill="#FFFFFF" d="M1.45 -28.75 Q2.85 -28.35 3.85 -27.2 L3.85 -27.15 23.85 -3.15 Q25 -1.8 25 0 25 1.8 23.85 3.25 L3.85 27.25 3.8 27.3 1.55 28.8 1.45 28.85 Q0 29.25 -1.4 28.85 L-1.5 28.8 -3.75 27.3 -3.8 27.25 -23.8 3.25 -23.85 3.25 Q-25 1.8 -25 0 -25 -1.85 -23.8 -3.2 L-23.8 -3.15 -3.8 -27.15 -3.8 -27.2 Q-2.85 -28.35 -1.4 -28.75 L-1.5 -28.7 Q0 -29.25 1.55 -28.7 L1.45 -28.75 M-12.05 -1.45 L-10.9 -1.45 Q-9.75 -1.45 -9.1 -0.75 -8.45 0 -8.45 1.4 -8.45 2.8 -9.1 3.5 -9.7 4.2 -10.9 4.2 L-12.05 4.2 -12.05 -1.45 M-11 7.25 Q-8 7.25 -6.4 5.7 -4.85 4.15 -4.85 1.4 -4.85 -1.35 -6.4 -2.9 -8 -4.5 -11 -4.5 L-13.7 -4.5 Q-14.6 -4.5 -15.1 -4 -15.55 -3.55 -15.55 -2.65 L-15.55 5.4 Q-15.55 6.3 -15.1 6.8 -14.6 7.25 -13.7 7.25 L-11 7.25 M9.3 7.4 Q11.7 7.4 13.3 5.8 14.9 4.25 14.9 1.4 14.9 -1.35 13.25 -2.95 11.65 -4.6 9.25 -4.6 6.9 -4.6 5.25 -2.95 3.65 -1.35 3.65 1.4 3.65 4.25 5.25 5.8 6.85 7.4 9.3 7.4 M-1.6 -0.35 L-1.6 5.5 Q-1.6 6.3 -1.15 6.8 -0.7 7.25 0.15 7.25 1 7.25 1.45 6.8 1.95 6.3 1.95 5.5 L1.95 -2.95 Q1.95 -3.7 1.55 -4.05 L0.65 -4.35 -0.35 -4.2 -3.05 -3.2 Q-4.1 -2.8 -4.1 -1.7 -4.1 -1.05 -3.7 -0.55 -3.25 -0.1 -2.55 -0.1 L-2.05 -0.2 -1.6 -0.35 M7.85 3.55 Q7.3 2.9 7.3 1.4 7.3 -0.1 7.85 -0.75 8.4 -1.45 9.25 -1.45 10.1 -1.45 10.7 -0.75 11.25 -0.1 11.25 1.4 11.25 2.85 10.7 3.55 10.15 4.2 9.25 4.2 8.4 4.2 7.85 3.55"/>
  </g>
</svg>