<svg xmlns="http://www.w3.org/2000/svg" xmlns:xlink="http://www.w3.org/1999/xlink">
  <defs/>
  <g>
    <path stroke="none" fill="#FFFFFF" d="M16.05 -18.75 Q17.95 -18 18.8 -16.1 L18.8 -16.05 24.65 -1.9 24.7 -1.85 Q25.4 0 24.7 1.9 L24.65 1.95 18.8 16.1 Q17.95 17.95 16.1 18.8 L1.95 24.65 1.9 24.7 Q0 25.4 -1.85 24.7 L-1.9 24.65 -16.05 18.8 -16.1 18.8 Q-18 17.95 -18.75 16.05 L-18.75 16.1 -24.6 1.95 -24.55 1.95 Q-25.4 0 -24.55 -1.95 L-24.6 -1.9 -18.75 -16.05 -18.75 -16 Q-18 -18 -16 -18.75 L-16.05 -18.75 -1.9 -24.6 -1.95 -24.55 Q0 -25.4 1.95 -24.55 L1.95 -24.6 16.1 -18.75 16.05 -18.75"/>
  </g>
</svg>