<svg xmlns="http://www.w3.org/2000/svg" xmlns:xlink="http://www.w3.org/1999/xlink">
  <defs/>
  <g>
    <path stroke="none" fill="#FFFFFF" d="M16.05 -18.75 Q17.95 -18 18.8 -16.1 L18.8 -16.05 24.65 -1.9 24.7 -1.85 Q25.4 0 24.7 1.9 L24.65 1.95 18.8 16.1 Q17.95 17.95 16.1 18.8 L1.95 24.65 1.9 24.7 Q0 25.4 -1.85 24.7 L-1.9 24.65 -16.05 18.8 -16.1 18.8 Q-18 17.95 -18.75 16.05 L-18.75 16.1 -24.6 1.95 -24.55 1.95 Q-25.4 0 -24.55 -1.95 L-24.6 -1.9 -18.75 -16.05 -18.75 -16 Q-18 -18 -16 -18.75 L-16.05 -18.75 -1.9 -24.6 -1.95 -24.55 Q0 -25.4 1.95 -24.55 L1.95 -24.6 16.1 -18.75 16.05 -18.75 M-11.05 -1.45 L-9.9 -1.45 Q-8.75 -1.45 -8.1 -0.75 -7.45 0 -7.45 1.4 -7.45 2.8 -8.1 3.5 -8.7 4.2 -9.9 4.2 L-11.05 4.2 -11.05 -1.45 M-10 7.25 Q-7 7.25 -5.4 5.7 -3.85 4.15 -3.85 1.4 -3.85 -1.35 -5.4 -2.9 -7 -4.5 -10 -4.5 L-12.7 -4.5 Q-13.6 -4.5 -14.1 -4 -14.55 -3.55 -14.55 -2.65 L-14.55 5.4 Q-14.55 6.3 -14.1 6.8 -13.6 7.25 -12.7 7.25 L-10 7.25 M13.45 -0.75 Q13.45 -2.5 12.4 -3.55 11.3 -4.6 9.1 -4.6 6.75 -4.6 5.4 -3.55 4.6 -2.9 4.6 -2.05 4.6 -1.45 4.95 -1.05 5.35 -0.6 5.95 -0.6 6.4 -0.6 7.15 -0.95 L8.5 -1.35 9.4 -1.1 9.65 -0.3 Q9.65 1.15 6.2 3.75 L5.75 4.05 5.4 4.4 5.1 4.65 4.85 5.05 4.7 5.4 4.65 5.85 Q4.65 6.45 5 6.85 5.4 7.25 6.2 7.25 L12.4 7.25 Q13.15 7.25 13.6 6.9 14 6.5 14 5.8 14 5.1 13.6 4.7 13.15 4.3 12.4 4.3 L10.25 4.3 Q13.45 1.55 13.45 -0.75 M-0.6 -0.35 L-0.6 5.5 Q-0.6 6.3 -0.15 6.8 0.3 7.25 1.15 7.25 2 7.25 2.45 6.8 2.95 6.3 2.95 5.5 L2.95 -2.95 Q2.95 -3.7 2.55 -4.05 L1.65 -4.35 0.65 -4.2 -2.05 -3.2 Q-3.1 -2.8 -3.1 -1.7 -3.1 -1.05 -2.7 -0.55 -2.25 -0.1 -1.55 -0.1 L-1.05 -0.2 -0.6 -0.35"/>
  </g>
</svg>