<svg xmlns="http://www.w3.org/2000/svg" xmlns:xlink="http://www.w3.org/1999/xlink">
  <defs/>
  <g>
    <path stroke="none" fill="#FFFFFF" d="M15.05 -15.9 L14.7 -16.05 0.8 -21.75 0.75 -21.8 Q0.05 -22.1 -0.65 -21.8 L-1.1 -21.65 -14.9 -15.9 -15 -15.85 Q-15.7 -15.65 -15.95 -14.95 L-16.1 -14.55 -21.65 -1.2 -21.8 -0.75 Q-22.15 0 -21.8 0.75 L-21.75 0.8 -16.05 14.7 -15.9 15.05 -15.05 16 -14.9 16.05 -0.7 21.95 -0.8 21.9 Q0.05 22.2 0.9 21.9 L0.95 21.85 14.85 16.1 Q15.65 15.7 16.05 14.95 L21.9 0.85 Q22.2 0 21.9 -0.8 L21.95 -0.7 16.05 -14.85 Q15.75 -15.6 15.05 -15.9 M21.55 -17.3 L21.6 -17.25 27.5 -3 27.5 -2.9 Q28.6 -0.05 27.55 2.95 L27.5 3.05 21.6 17.25 21.55 17.35 Q20.2 20.2 17.35 21.55 L17.25 21.6 3.1 27.45 2.55 27.6 2.95 27.55 Q-0.05 28.6 -2.9 27.5 L-3 27.5 -16.9 21.7 -17.3 21.55 Q-20.15 20.3 -21.3 17.65 L-21.5 17.2 -27.3 3.15 -27.3 3.1 Q-28.55 0.25 -27.5 -2.6 L-27.35 -3 -21.5 -17.15 -21.35 -17.5 Q-20.1 -20.4 -17.2 -21.45 L-17.05 -21.5 -3.1 -27.3 -2.85 -27.4 Q0.05 -28.6 3.1 -27.3 L3.15 -27.3 17.2 -21.5 17.65 -21.3 Q20.3 -20.15 21.55 -17.3 M-1.05 -1.75 L-1.5 -1.6 -2 -1.5 Q-2.7 -1.5 -3.15 -1.95 -3.55 -2.45 -3.55 -3.1 -3.55 -4.2 -2.5 -4.6 L0.2 -5.6 1.2 -5.75 2.1 -5.45 Q2.5 -5.1 2.5 -4.35 L2.5 4.1 Q2.5 4.9 2 5.4 1.55 5.85 0.7 5.85 -0.15 5.85 -0.6 5.4 -1.05 4.9 -1.05 4.1 L-1.05 -1.75 M13 -2.15 Q13 0.15 9.8 2.9 L11.95 2.9 Q12.7 2.9 13.15 3.3 13.55 3.7 13.55 4.4 13.55 5.1 13.15 5.5 L11.95 5.85 5.75 5.85 Q4.95 5.85 4.55 5.45 4.2 5.05 4.2 4.45 L4.25 4 4.4 3.65 4.65 3.25 4.95 3 5.3 2.65 5.75 2.35 Q9.2 -0.25 9.2 -1.7 L8.95 -2.5 8.05 -2.75 6.7 -2.35 Q5.95 -2 5.5 -2 4.9 -2 4.5 -2.45 4.15 -2.85 4.15 -3.45 4.15 -4.3 4.95 -4.95 6.3 -6 8.65 -6 10.85 -6 11.95 -4.95 13 -3.9 13 -2.15 M1.9 27.7 L2.45 27.65 1.95 27.65 1.9 27.7 M1.95 21.65 L1.7 21.7 1.9 21.7 1.95 21.65 M-10.45 5.85 L-13.15 5.85 -14.55 5.4 Q-15 4.9 -15 4 L-15 -4.05 Q-15 -4.95 -14.55 -5.4 -14.05 -5.9 -13.15 -5.9 L-10.45 -5.9 Q-7.45 -5.9 -5.85 -4.3 -4.3 -2.75 -4.3 0 -4.3 2.75 -5.85 4.3 -7.45 5.85 -10.45 5.85 M-11.5 -2.85 L-11.5 2.8 -10.35 2.8 Q-9.15 2.8 -8.55 2.1 -7.9 1.4 -7.9 0 -7.9 -1.4 -8.55 -2.15 -9.2 -2.85 -10.35 -2.85 L-11.5 -2.85"/>
  </g>
</svg>