<svg xmlns="http://www.w3.org/2000/svg" xmlns:xlink="http://www.w3.org/1999/xlink">
  <defs/>
  <g>
    <path stroke="none" fill="#FFFFFF" d="M1.9 27.7 L2.45 27.65 1.95 27.65 1.9 27.7 M1.95 21.65 L1.7 21.7 1.9 21.7 1.95 21.65 M15.05 -15.9 L14.7 -16.05 0.8 -21.75 0.75 -21.8 Q0.05 -22.1 -0.65 -21.8 L-1.1 -21.65 -14.9 -15.9 -15 -15.85 Q-15.7 -15.65 -15.95 -14.95 L-16.1 -14.55 -21.65 -1.2 -21.8 -0.75 Q-22.15 0 -21.8 0.75 L-21.75 0.8 -16.05 14.7 -15.9 15.05 -15.05 16 -14.9 16.05 -0.7 21.95 -0.8 21.9 Q0.05 22.2 0.9 21.9 L0.95 21.85 14.85 16.1 Q15.65 15.7 16.05 14.95 L21.9 0.85 Q22.2 0 21.9 -0.8 L21.95 -0.7 16.05 -14.85 Q15.75 -15.6 15.05 -15.9 M21.55 -17.3 L21.6 -17.25 27.5 -3 27.5 -2.9 Q28.6 -0.05 27.55 2.95 L27.5 3.05 21.6 17.25 21.55 17.35 Q20.2 20.2 17.35 21.55 L17.25 21.6 3.1 27.45 2.55 27.6 2.95 27.55 Q-0.05 28.6 -2.9 27.5 L-3 27.5 -16.9 21.7 -17.3 21.55 Q-20.15 20.3 -21.3 17.65 L-21.5 17.2 -27.3 3.15 -27.3 3.1 Q-28.55 0.25 -27.5 -2.6 L-27.35 -3 -21.5 -17.15 -21.35 -17.5 Q-20.1 -20.4 -17.2 -21.45 L-17.05 -21.5 -3.1 -27.3 -2.85 -27.4 Q0.05 -28.6 3.1 -27.3 L3.15 -27.3 17.2 -21.5 17.65 -21.3 Q20.3 -20.15 21.55 -17.3"/>
  </g>
</svg>