<svg xmlns="http://www.w3.org/2000/svg" xmlns:xlink="http://www.w3.org/1999/xlink">
  <defs/>
  <g>
    <path stroke="none" fill="#FFFFFF" d="M22.35 -13.05 Q23 -11.9 23 -10.55 L23 10.5 Q23 11.85 22.35 13 L20.5 14.85 2.5 25.35 Q1.35 26 0 26 -1.35 26 -2.5 25.35 L-20.5 14.85 Q-21.65 14.15 -22.3 13 -23 11.85 -23 10.5 L-23 -10.55 Q-23 -11.9 -22.3 -13.05 -21.65 -14.2 -20.5 -14.85 L-2.5 -25.3 Q-1.35 -26 0 -26 1.35 -26 2.5 -25.3 L20.5 -14.85 Q21.65 -14.2 22.35 -13.05 M-13.7 -1.45 L-12.55 -1.45 Q-11.4 -1.45 -10.75 -0.75 -10.1 0 -10.1 1.4 -10.1 2.8 -10.75 3.5 -11.35 4.2 -12.55 4.2 L-13.7 4.2 -13.7 -1.45 M-12.65 7.25 Q-9.65 7.25 -8.05 5.7 -6.5 4.15 -6.5 1.4 -6.5 -1.35 -8.05 -2.9 -9.65 -4.5 -12.65 -4.5 L-15.35 -4.5 Q-16.25 -4.5 -16.75 -4 -17.2 -3.55 -17.2 -2.65 L-17.2 5.4 Q-17.2 6.3 -16.75 6.8 L-15.35 7.25 -12.65 7.25 M3.55 -0.75 Q3.55 -2.5 2.5 -3.55 1.4 -4.6 -0.8 -4.6 -3.15 -4.6 -4.5 -3.55 -5.3 -2.9 -5.3 -2.05 -5.3 -1.45 -4.95 -1.05 -4.55 -0.6 -3.95 -0.6 -3.5 -0.6 -2.75 -0.95 -1.95 -1.35 -1.4 -1.35 L-0.5 -1.1 Q-0.25 -0.8 -0.25 -0.3 -0.25 1.15 -3.7 3.75 L-4.15 4.05 -4.5 4.4 -4.8 4.65 -5.05 5.05 -5.2 5.4 -5.25 5.85 Q-5.25 6.45 -4.9 6.85 -4.5 7.25 -3.7 7.25 L2.5 7.25 3.7 6.9 Q4.1 6.5 4.1 5.8 4.1 5.1 3.7 4.7 3.25 4.3 2.5 4.3 L0.35 4.3 Q3.55 1.55 3.55 -0.75 M9.5 3.55 Q8.95 2.9 8.95 1.4 8.95 -0.1 9.5 -0.75 10.05 -1.45 10.9 -1.45 11.75 -1.45 12.35 -0.75 12.9 -0.1 12.9 1.4 12.9 2.85 12.35 3.55 11.8 4.2 10.9 4.2 10.05 4.2 9.5 3.55 M10.95 7.4 Q13.35 7.4 14.95 5.8 16.55 4.25 16.55 1.4 16.55 -1.35 14.9 -2.95 13.3 -4.6 10.9 -4.6 8.55 -4.6 6.9 -2.95 5.3 -1.35 5.3 1.4 5.3 4.25 6.9 5.8 8.5 7.4 10.95 7.4"/>
  </g>
</svg>