<svg xmlns="http://www.w3.org/2000/svg" xmlns:xlink="http://www.w3.org/1999/xlink">
  <defs/>
  <g>
    <path stroke="none" fill="#FFFFFF" d="M19.75 -11.55 L19.05 -12.25 19 -12.25 1 -22.7 0.95 -22.7 0 -23 -0.95 -22.7 -1 -22.7 -19 -12.25 -19.7 -11.55 -19.7 -11.5 -20 -10.55 -20 10.5 -19.7 11.45 -19.7 11.55 -18.95 12.3 -19 12.25 -1 22.75 0 23 1.05 22.75 1 22.75 19 12.25 18.95 12.3 19.75 11.55 20 10.5 20 -10.55 19.75 -11.55 M26 -10.55 L26 10.5 Q26 12.65 24.95 14.5 L24.95 14.55 Q23.85 16.35 22.05 17.45 L22 17.45 4 27.95 Q2.15 29 0 29 -2.15 29 -3.95 27.95 L-4 27.95 -22 17.45 -22.05 17.45 Q-23.85 16.3 -24.9 14.5 -26 12.65 -26 10.5 L-26 -10.55 Q-26 -12.7 -24.9 -14.5 L-24.85 -14.6 Q-23.8 -16.4 -21.95 -17.45 L-22 -17.45 -4 -27.9 -4.05 -27.85 Q-2.2 -29 0 -29 2.2 -29 4.05 -27.85 L4 -27.9 22 -17.45 Q23.8 -16.4 24.95 -14.6 L24.95 -14.5 Q26 -12.7 26 -10.55 M3.75 -2.15 Q3.75 0.15 0.55 2.9 L2.7 2.9 Q3.45 2.9 3.9 3.3 4.3 3.7 4.3 4.4 4.3 5.1 3.9 5.5 L2.7 5.85 -3.5 5.85 Q-4.3 5.85 -4.7 5.45 L-5.05 4.45 -5 4 -4.85 3.65 -4.6 3.25 -4.3 3 -3.95 2.65 -3.5 2.35 Q-0.05 -0.25 -0.05 -1.7 -0.05 -2.2 -0.3 -2.5 L-1.2 -2.75 -2.55 -2.35 Q-3.3 -2 -3.75 -2 -4.35 -2 -4.75 -2.45 -5.1 -2.85 -5.1 -3.45 -5.1 -4.3 -4.3 -4.95 -2.95 -6 -0.6 -6 1.6 -6 2.7 -4.95 3.75 -3.9 3.75 -2.15 M11.15 6 Q8.7 6 7.1 4.4 5.5 2.85 5.5 0 5.5 -2.75 7.1 -4.35 8.75 -6 11.1 -6 13.5 -6 15.1 -4.35 16.75 -2.75 16.75 0 16.75 2.85 15.15 4.4 13.55 6 11.15 6 M9.7 2.15 Q10.25 2.8 11.1 2.8 12 2.8 12.55 2.15 13.1 1.45 13.1 0 13.1 -1.5 12.55 -2.15 11.95 -2.85 11.1 -2.85 10.25 -2.85 9.7 -2.15 9.15 -1.5 9.15 0 9.15 1.5 9.7 2.15 M-13.5 -2.85 L-13.5 2.8 -12.35 2.8 Q-11.15 2.8 -10.55 2.1 -9.9 1.4 -9.9 0 -9.9 -1.4 -10.55 -2.15 -11.2 -2.85 -12.35 -2.85 L-13.5 -2.85 M-12.45 5.85 L-15.15 5.85 Q-16.05 5.85 -16.55 5.4 -17 4.9 -17 4 L-17 -4.05 Q-17 -4.95 -16.55 -5.4 -16.05 -5.9 -15.15 -5.9 L-12.45 -5.9 Q-9.45 -5.9 -7.85 -4.3 -6.3 -2.75 -6.3 0 -6.3 2.75 -7.85 4.3 -9.45 5.85 -12.45 5.85"/>
  </g>
</svg>