<svg xmlns="http://www.w3.org/2000/svg" xmlns:xlink="http://www.w3.org/1999/xlink">
  <defs/>
  <g>
    <path stroke="none" fill="#FFFFFF" d="M9.85 -3.75 Q9.85 -5.5 8.8 -6.55 7.7 -7.6 5.5 -7.6 3.15 -7.6 1.8 -6.55 1 -5.9 1 -5.05 1 -4.45 1.35 -4.05 1.75 -3.6 2.35 -3.6 2.8 -3.6 3.55 -3.95 4.35 -4.35 4.9 -4.35 L5.8 -4.1 6.05 -3.3 Q6.05 -1.85 2.6 0.75 L2.15 1.05 1.8 1.4 1.5 1.65 1.25 2.05 1.1 2.4 1.05 2.85 Q1.05 3.45 1.4 3.85 1.8 4.25 2.6 4.25 L8.8 4.25 Q9.55 4.25 10 3.9 10.4 3.5 10.4 2.8 10.4 2.1 10 1.7 9.55 1.3 8.8 1.3 L6.65 1.3 Q9.85 -1.45 9.85 -3.75 M11.35 -13.25 Q16 -8.6 16 -2 16 4.6 11.35 9.35 6.6 14 0 14 -6.6 14 -11.25 9.35 -16 4.6 -16 -2 -16 -8.6 -11.3 -13.25 L-11.25 -13.3 Q-6.6 -18 0 -18 6.6 -18 11.35 -13.25 M-7.4 -4.45 L-6.25 -4.45 Q-5.1 -4.45 -4.45 -3.75 -3.8 -3 -3.8 -1.6 -3.8 -0.2 -4.45 0.5 -5.05 1.2 -6.25 1.2 L-7.4 1.2 -7.4 -4.45 M-6.35 4.25 Q-3.35 4.25 -1.75 2.7 -0.2 1.15 -0.2 -1.6 -0.2 -4.35 -1.75 -5.9 -3.35 -7.5 -6.35 -7.5 L-9.05 -7.5 Q-9.95 -7.5 -10.45 -7 -10.9 -6.55 -10.9 -5.65 L-10.9 2.4 Q-10.9 3.3 -10.45 3.8 -9.95 4.25 -9.05 4.25 L-6.35 4.25 M-25 -2 Q-25 -12.35 -17.65 -19.65 -10.35 -27 0 -27 10.35 -27 17.7 -19.65 25 -12.35 25 -2 L25 -1.5 25 -1 25 -0.5 25 0 25 0.5 25 1 25 1.5 25 2 Q25 12.35 17.7 19.7 10.35 27 0 27 -10.35 27 -17.65 19.7 -25 12.35 -25 2 L-25 1.5 -25 1 -25 0.5 -25 0 -25 -0.5 -25 -1 -25 -1.5 -25 -2 M19 -2 Q19 -9.85 13.45 -15.4 7.85 -21 0 -21 -7.85 -21 -13.4 -15.4 -19 -9.85 -19 -2 -19 5.85 -13.4 11.45 -7.85 17 0 17 7.85 17 13.45 11.45 19 5.85 19 -2"/>
  </g>
</svg>