<svg xmlns="http://www.w3.org/2000/svg" xmlns:xlink="http://www.w3.org/1999/xlink">
  <defs/>
  <g>
    <path stroke="none" fill="#FFFFFF" d="M9.85 -3.75 Q9.85 -1.45 6.65 1.3 L8.8 1.3 Q9.55 1.3 10 1.7 10.4 2.1 10.4 2.8 10.4 3.5 10 3.9 9.55 4.25 8.8 4.25 L2.6 4.25 Q1.8 4.25 1.4 3.85 1.05 3.45 1.05 2.85 L1.1 2.4 1.25 2.05 1.5 1.65 1.8 1.4 2.15 1.05 2.6 0.75 Q6.05 -1.85 6.05 -3.3 L5.8 -4.1 4.9 -4.35 Q4.35 -4.35 3.55 -3.95 2.8 -3.6 2.35 -3.6 1.75 -3.6 1.35 -4.05 1 -4.45 1 -5.05 1 -5.9 1.8 -6.55 3.15 -7.6 5.5 -7.6 7.7 -7.6 8.8 -6.55 9.85 -5.5 9.85 -3.75 M-25 -2 Q-25 -12.35 -17.65 -19.65 -10.35 -27 0 -27 10.35 -27 17.7 -19.65 25 -12.35 25 -2 L25 -1.5 25 -1 25 -0.5 25 0 25 0.5 25 1 25 1.5 25 2 Q25 12.35 17.7 19.7 10.35 27 0 27 -10.35 27 -17.65 19.7 -25 12.35 -25 2 L-25 1.5 -25 1 -25 0.5 -25 0 -25 -0.5 -25 -1 -25 -1.5 -25 -2 M19 -2 Q19 -9.85 13.45 -15.4 7.85 -21 0 -21 -7.85 -21 -13.4 -15.4 -19 -9.85 -19 -2 -19 5.85 -13.4 11.45 -7.85 17 0 17 7.85 17 13.45 11.45 19 5.85 19 -2 M-6.35 4.25 L-9.05 4.25 Q-9.95 4.25 -10.45 3.8 -10.9 3.3 -10.9 2.4 L-10.9 -5.65 Q-10.9 -6.55 -10.45 -7 -9.95 -7.5 -9.05 -7.5 L-6.35 -7.5 Q-3.35 -7.5 -1.75 -5.9 -0.2 -4.35 -0.2 -1.6 -0.2 1.15 -1.75 2.7 -3.35 4.25 -6.35 4.25 M-7.4 -4.45 L-7.4 1.2 -6.25 1.2 Q-5.05 1.2 -4.45 0.5 -3.8 -0.2 -3.8 -1.6 -3.8 -3 -4.45 -3.75 -5.1 -4.45 -6.25 -4.45 L-7.4 -4.45"/>
  </g>
</svg>