<svg xmlns="http://www.w3.org/2000/svg" xmlns:xlink="http://www.w3.org/1999/xlink">
  <defs/>
  <g>
    <path stroke="none" fill="#FFFFFF" d="M5.5 7.4 Q7.55 7.4 8.75 6.55 9.95 5.65 9.95 4.05 9.95 3.05 9.4 2.3 8.85 1.5 7.9 1.25 L7.9 1.2 9.2 0.15 Q9.7 -0.6 9.7 -1.45 9.7 -2.9 8.55 -3.75 7.45 -4.6 5.5 -4.6 3.5 -4.6 2.3 -3.95 1.35 -3.4 1.35 -2.4 1.35 -1.8 1.75 -1.35 2.1 -0.95 2.75 -0.95 L3.75 -1.2 4.8 -1.45 Q5.8 -1.45 5.8 -0.65 L5.5 -0.1 4.75 0.15 3.7 0.15 Q3.15 0.15 2.8 0.45 2.45 0.8 2.45 1.35 2.45 1.9 2.8 2.2 3.1 2.55 3.7 2.55 L4.65 2.55 Q6.05 2.55 6.05 3.35 6.05 4.2 4.8 4.2 L3.75 3.95 2.75 3.7 Q2.1 3.7 1.75 4.15 1.35 4.55 1.35 5.2 1.35 6.2 2.35 6.7 3.45 7.4 5.5 7.4 M23.6 -23.5 Q25 -22.1 25 -20 L25 20 Q25 22.05 23.6 23.55 L23.55 23.6 Q22.05 25 20 25 L-20 25 Q-22.1 25 -23.5 23.6 -25 22.1 -25 20 L-25 -20 Q-25 -22.05 -23.55 -23.45 L-23.45 -23.55 Q-22.05 -25 -20 -25 L20 -25 Q22.1 -25 23.6 -23.5 M-7.1 -1.45 L-5.95 -1.45 Q-4.8 -1.45 -4.15 -0.75 -3.5 0 -3.5 1.4 -3.5 2.8 -4.15 3.5 -4.75 4.2 -5.95 4.2 L-7.1 4.2 -7.1 -1.45 M-6.05 7.25 Q-3.05 7.25 -1.45 5.7 0.1 4.15 0.1 1.4 0.1 -1.35 -1.45 -2.9 -3.05 -4.5 -6.05 -4.5 L-8.75 -4.5 Q-9.65 -4.5 -10.15 -4 -10.6 -3.55 -10.6 -2.65 L-10.6 5.4 Q-10.6 6.3 -10.15 6.8 -9.65 7.25 -8.75 7.25 L-6.05 7.25"/>
  </g>
</svg>