<svg xmlns="http://www.w3.org/2000/svg" xmlns:xlink="http://www.w3.org/1999/xlink">
  <defs/>
  <g>
    <path stroke="none" fill="#FFFFFF" d="M5.5 6 Q3.45 6 2.35 5.3 1.35 4.8 1.35 3.8 1.35 3.15 1.75 2.75 2.1 2.3 2.75 2.3 L3.75 2.55 4.8 2.8 Q6.05 2.8 6.05 1.95 6.05 1.15 4.65 1.15 L3.7 1.15 Q3.1 1.15 2.8 0.8 2.45 0.5 2.45 -0.05 2.45 -0.6 2.8 -0.95 3.15 -1.25 3.7 -1.25 L4.75 -1.25 5.5 -1.5 5.8 -2.05 Q5.8 -2.85 4.8 -2.85 L3.75 -2.6 2.75 -2.35 Q2.1 -2.35 1.75 -2.75 1.35 -3.2 1.35 -3.8 1.35 -4.8 2.3 -5.35 3.5 -6 5.5 -6 7.45 -6 8.55 -5.15 9.7 -4.3 9.7 -2.85 9.7 -2 9.2 -1.25 L7.9 -0.2 7.9 -0.15 Q8.85 0.1 9.4 0.9 9.95 1.65 9.95 2.65 9.95 4.25 8.75 5.15 7.55 6 5.5 6 M28 -20 L28 20 Q28 23.25 25.8 25.6 L25.7 25.7 25.6 25.8 Q23.25 28 20 28 L-20 28 Q-23.35 28 -25.6 25.75 -28 23.35 -28 20 L-28 -20 Q-28 -23.3 -25.65 -25.55 L-25.6 -25.6 -25.55 -25.65 Q-23.3 -28 -20 -28 L20 -28 Q23.35 -28 25.75 -25.6 28 -23.4 28 -20 M21.5 -21.35 Q20.85 -22 20 -22 L-20 -22 Q-20.75 -22 -21.3 -21.45 L-21.3 -21.4 -21.4 -21.3 -21.45 -21.3 Q-22 -20.75 -22 -20 L-22 20 Q-22 20.85 -21.35 21.5 -20.85 22 -20 22 L20 22 20.95 21.8 21.4 21.5 21.45 21.45 21.8 20.95 22 20 22 -20 Q22 -20.8 21.5 -21.35 M-6.05 5.85 L-8.75 5.85 Q-9.65 5.85 -10.15 5.4 -10.6 4.9 -10.6 4 L-10.6 -4.05 Q-10.6 -4.95 -10.15 -5.4 -9.65 -5.9 -8.75 -5.9 L-6.05 -5.9 Q-3.05 -5.9 -1.45 -4.3 0.1 -2.75 0.1 0 0.1 2.75 -1.45 4.3 -3.05 5.85 -6.05 5.85 M-7.1 -2.85 L-7.1 2.8 -5.95 2.8 Q-4.75 2.8 -4.15 2.1 -3.5 1.4 -3.5 0 -3.5 -1.4 -4.15 -2.15 -4.8 -2.85 -5.95 -2.85 L-7.1 -2.85"/>
  </g>
</svg>