<svg xmlns="http://www.w3.org/2000/svg" xmlns:xlink="http://www.w3.org/1999/xlink">
  <defs/>
  <g>
    <path stroke="none" fill="#FFFFFF" d="M28 -20 L28 20 Q28 23.25 25.8 25.6 L25.7 25.7 25.6 25.8 Q23.25 28 20 28 L-20 28 Q-23.35 28 -25.6 25.75 -28 23.35 -28 20 L-28 -20 Q-28 -23.3 -25.65 -25.55 L-25.6 -25.6 -25.55 -25.65 Q-23.3 -28 -20 -28 L20 -28 Q23.35 -28 25.75 -25.6 28 -23.4 28 -20 M21.5 -21.35 Q20.85 -22 20 -22 L-20 -22 Q-20.75 -22 -21.3 -21.45 L-21.3 -21.4 -21.4 -21.3 -21.45 -21.3 Q-22 -20.75 -22 -20 L-22 20 Q-22 20.85 -21.35 21.5 -20.85 22 -20 22 L20 22 20.95 21.8 21.4 21.5 21.45 21.45 21.8 20.95 22 20 22 -20 Q22 -20.8 21.5 -21.35"/>
  </g>
</svg>