<svg xmlns="http://www.w3.org/2000/svg" xmlns:xlink="http://www.w3.org/1999/xlink">
  <defs/>
  <g>
    <path stroke="none" fill="#FFFFFF" d="M-4.45 -22.2 Q-3.6 -24 -1.7 -24.65 L-1.75 -24.65 Q-0.05 -25.35 1.8 -24.65 3.55 -24 4.5 -22.25 L24.5 17.75 24.5 17.8 Q25.25 19.35 24.95 21.05 L24.9 21.15 Q24.5 22.75 23.25 23.85 L23.15 23.95 Q21.75 25 20 25 L-20 25 Q-21.75 25 -23.1 23.9 -24.55 22.75 -24.85 21.05 L-24.85 21.15 Q-25.25 19.35 -24.4 17.75 L-24.45 17.75 -4.45 -22.25 -4.45 -22.2 M10.8 13.85 Q10.8 13.2 10.45 12.8 10.1 12.4 9.45 12.4 9.45 10.4 7.85 10.4 6.6 10.4 6.1 12.25 L6.1 12.4 4.45 12.4 7.05 7.85 7.35 6.9 Q7.35 6.25 6.85 5.8 L5.6 5.4 Q4.8 5.4 4.25 6.3 L0.95 12.35 Q0.55 13.05 0.5 13.7 0.45 14.35 0.9 14.85 1.35 15.3 2.25 15.3 L5.85 15.3 5.85 15.5 Q5.85 16.3 6.35 16.8 6.85 17.25 7.65 17.25 8.5 17.25 8.95 16.8 9.45 16.3 9.45 15.5 L9.45 15.3 Q10.1 15.3 10.45 14.9 10.8 14.5 10.8 13.85 M-7.45 8.55 L-6.3 8.55 Q-5.15 8.55 -4.5 9.25 -3.85 10 -3.85 11.4 -3.85 12.8 -4.5 13.5 -5.1 14.2 -6.3 14.2 L-7.45 14.2 -7.45 8.55 M-6.4 17.25 Q-3.4 17.25 -1.8 15.7 -0.25 14.15 -0.25 11.4 -0.25 8.65 -1.8 7.1 -3.4 5.5 -6.4 5.5 L-9.1 5.5 Q-10 5.5 -10.5 6 -10.95 6.45 -10.95 7.35 L-10.95 15.4 Q-10.95 16.3 -10.5 16.8 -10 17.25 -9.1 17.25 L-6.4 17.25"/>
  </g>
</svg>