<svg xmlns="http://www.w3.org/2000/svg" xmlns:xlink="http://www.w3.org/1999/xlink">
  <defs/>
  <g>
    <path stroke="none" fill="#FFFFFF" d="M-1.7 -20.9 L-1.95 -20.5 -21.75 19.1 Q-22.05 19.6 -21.95 20.2 L-21.9 20.55 Q-21.75 21.15 -21.2 21.55 L-21.2 21.6 Q-20.7 22 -20 22 L20 22 Q20.7 22 21.3 21.6 L21.9 20.7 22.05 19.8 21.85 19.15 1.85 -20.9 0.75 -21.85 -0.4 -21.9 -0.8 -21.75 Q-1.45 -21.55 -1.7 -20.9 M2.9 -27.45 L2.85 -27.45 Q5.65 -26.45 7.15 -23.65 L7.2 -23.6 27.2 16.5 Q28.35 18.9 27.9 21.6 L27.7 22.3 Q27 24.5 25.25 26.1 L25.4 26 25.3 26.1 24.95 26.35 Q22.75 28 20 28 L-20 28 Q-22.8 28 -24.95 26.25 L-25 26.25 Q-27.15 24.55 -27.7 22.1 L-27.75 21.8 Q-28.4 18.95 -27.1 16.4 L-7.1 -23.6 -6.95 -23.85 Q-5.65 -26.3 -3.15 -27.25 L-2.85 -27.4 Q-0.05 -28.6 2.9 -27.45 M-6.4 17.25 L-9.1 17.25 Q-10 17.25 -10.5 16.8 -10.95 16.3 -10.95 15.4 L-10.95 7.35 Q-10.95 6.45 -10.5 6 -10 5.5 -9.1 5.5 L-6.4 5.5 Q-3.4 5.5 -1.8 7.1 -0.25 8.65 -0.25 11.4 -0.25 14.15 -1.8 15.7 -3.4 17.25 -6.4 17.25 M-7.45 8.55 L-7.45 14.2 -6.3 14.2 Q-5.1 14.2 -4.5 13.5 -3.85 12.8 -3.85 11.4 -3.85 10 -4.5 9.25 -5.15 8.55 -6.3 8.55 L-7.45 8.55 M10.8 13.85 Q10.8 14.5 10.45 14.9 10.1 15.3 9.45 15.3 L9.45 15.5 Q9.45 16.3 8.95 16.8 8.5 17.25 7.65 17.25 6.85 17.25 6.35 16.8 5.85 16.3 5.85 15.5 L5.85 15.3 2.25 15.3 Q1.35 15.3 0.9 14.85 0.45 14.35 0.5 13.7 0.55 13.05 0.95 12.35 L4.25 6.3 Q4.8 5.4 5.6 5.4 L6.85 5.8 Q7.35 6.25 7.35 6.9 L7.05 7.85 4.45 12.4 6.1 12.4 6.1 12.25 Q6.6 10.4 7.85 10.4 9.45 10.4 9.45 12.4 10.1 12.4 10.45 12.8 10.8 13.2 10.8 13.85"/>
  </g>
</svg>