<svg xmlns="http://www.w3.org/2000/svg" xmlns:xlink="http://www.w3.org/1999/xlink">
  <defs/>
  <g>
    <path stroke="none" fill="#FFFFFF" d="M-1.7 -20.9 L-1.95 -20.5 -21.75 19.1 Q-22.05 19.6 -21.95 20.2 L-21.9 20.55 Q-21.75 21.15 -21.2 21.55 L-21.2 21.6 Q-20.7 22 -20 22 L20 22 Q20.7 22 21.3 21.6 L21.9 20.7 22.05 19.8 21.85 19.15 1.85 -20.9 0.75 -21.85 -0.4 -21.9 -0.8 -21.75 Q-1.45 -21.55 -1.7 -20.9 M2.9 -27.45 L2.85 -27.45 Q5.65 -26.45 7.15 -23.65 L7.2 -23.6 27.2 16.5 Q28.35 18.9 27.9 21.6 L27.7 22.3 Q27 24.5 25.25 26.1 L25.4 26 25.3 26.1 24.95 26.35 Q22.75 28 20 28 L-20 28 Q-22.8 28 -24.95 26.25 L-25 26.25 Q-27.15 24.55 -27.7 22.1 L-27.75 21.8 Q-28.4 18.95 -27.1 16.4 L-7.1 -23.6 -6.95 -23.85 Q-5.65 -26.3 -3.15 -27.25 L-2.85 -27.4 Q-0.05 -28.6 2.9 -27.45"/>
  </g>
</svg>