<svg xmlns="http://www.w3.org/2000/svg" xmlns:xlink="http://www.w3.org/1999/xlink">
  <defs/>
  <g>
    <path stroke="none" fill="#FFFFFF" d="M7.1 -0.65 L5.85 -0.5 5.8 -0.5 6.9 -2.15 7.25 -3.15 6.75 -4.2 Q6.3 -4.6 5.55 -4.6 L4.75 -4.45 4.2 -4.1 3.8 -3.6 2.4 -1.45 Q1.7 -0.25 1.35 0.75 0.95 1.8 0.95 3.05 0.95 4.9 2.25 6.15 3.5 7.4 5.8 7.4 8.05 7.4 9.35 6.1 10.65 4.85 10.65 3.1 10.65 1.35 9.6 0.35 8.6 -0.65 7.1 -0.65 M23.6 -23.5 Q25 -22.1 25 -20 L25 20 Q25 22.05 23.6 23.55 L23.55 23.6 Q22.05 25 20 25 L-20 25 Q-22.1 25 -23.5 23.6 -25 22.1 -25 20 L-25 -20 Q-25 -22.05 -23.55 -23.45 L-23.45 -23.55 Q-22.05 -25 -20 -25 L20 -25 Q22.1 -25 23.6 -23.5 M5.75 1.6 Q6.45 1.6 6.8 2.05 7.2 2.45 7.2 3.1 7.2 3.8 6.85 4.25 6.5 4.7 5.8 4.7 5.1 4.7 4.75 4.25 4.4 3.85 4.4 3.1 4.4 2.35 4.8 2 5.2 1.6 5.75 1.6 M-7.45 -1.45 L-6.3 -1.45 Q-5.15 -1.45 -4.5 -0.75 -3.85 0 -3.85 1.4 -3.85 2.8 -4.5 3.5 -5.1 4.2 -6.3 4.2 L-7.45 4.2 -7.45 -1.45 M-6.4 7.25 Q-3.4 7.25 -1.8 5.7 -0.25 4.15 -0.25 1.4 -0.25 -1.35 -1.8 -2.9 -3.4 -4.5 -6.4 -4.5 L-9.1 -4.5 Q-10 -4.5 -10.5 -4 -10.95 -3.55 -10.95 -2.65 L-10.95 5.4 Q-10.95 6.3 -10.5 6.8 -10 7.25 -9.1 7.25 L-6.4 7.25"/>
  </g>
</svg>