<svg xmlns="http://www.w3.org/2000/svg" xmlns:xlink="http://www.w3.org/1999/xlink">
  <defs/>
  <g>
    <path stroke="none" fill="#FFFFFF" d="M5.75 0.2 Q5.2 0.2 4.8 0.6 4.4 0.95 4.4 1.7 4.4 2.45 4.75 2.85 5.1 3.3 5.8 3.3 6.5 3.3 6.85 2.85 7.2 2.4 7.2 1.7 7.2 1.05 6.8 0.65 6.45 0.2 5.75 0.2 M28 -20 L28 20 Q28 23.25 25.8 25.6 L25.7 25.7 25.6 25.8 Q23.25 28 20 28 L-20 28 Q-23.35 28 -25.6 25.75 -28 23.35 -28 20 L-28 -20 Q-28 -23.3 -25.65 -25.55 L-25.6 -25.6 -25.55 -25.65 Q-23.3 -28 -20 -28 L20 -28 Q23.35 -28 25.75 -25.6 28 -23.4 28 -20 M21.5 -21.35 Q20.85 -22 20 -22 L-20 -22 Q-20.75 -22 -21.3 -21.45 L-21.3 -21.4 -21.4 -21.3 -21.45 -21.3 Q-22 -20.75 -22 -20 L-22 20 Q-22 20.85 -21.35 21.5 -20.85 22 -20 22 L20 22 20.95 21.8 21.4 21.5 21.45 21.45 21.8 20.95 22 20 22 -20 Q22 -20.8 21.5 -21.35 M7.1 -2.05 Q8.6 -2.05 9.6 -1.05 10.65 -0.05 10.65 1.7 10.65 3.45 9.35 4.7 8.05 6 5.8 6 3.5 6 2.25 4.75 0.95 3.5 0.95 1.65 0.95 0.4 1.35 -0.65 1.7 -1.65 2.4 -2.85 L3.8 -5 4.2 -5.5 4.75 -5.85 5.55 -6 Q6.3 -6 6.75 -5.6 L7.25 -4.55 6.9 -3.55 5.8 -1.9 5.85 -1.9 7.1 -2.05 M-6.4 5.85 L-9.1 5.85 Q-10 5.85 -10.5 5.4 -10.95 4.9 -10.95 4 L-10.95 -4.05 Q-10.95 -4.95 -10.5 -5.4 -10 -5.9 -9.1 -5.9 L-6.4 -5.9 Q-3.4 -5.9 -1.8 -4.3 -0.25 -2.75 -0.25 0 -0.25 2.75 -1.8 4.3 -3.4 5.85 -6.4 5.85 M-7.45 -2.85 L-7.45 2.8 -6.3 2.8 Q-5.1 2.8 -4.5 2.1 -3.85 1.4 -3.85 0 -3.85 -1.4 -4.5 -2.15 -5.15 -2.85 -6.3 -2.85 L-7.45 -2.85"/>
  </g>
</svg>