<svg xmlns="http://www.w3.org/2000/svg" xmlns:xlink="http://www.w3.org/1999/xlink">
  <defs/>
  <g>
    <path stroke="none" fill="#FFFFFF" d="M0 -26 Q1.35 -26 2.5 -25.3 L20.5 -14.85 Q21.65 -14.2 22.35 -13.05 23 -11.9 23 -10.55 L23 10.5 Q23 11.85 22.35 13 L20.5 14.85 2.5 25.35 Q1.35 26 0 26 -1.35 26 -2.5 25.35 L-20.5 14.85 Q-21.65 14.15 -22.3 13 -23 11.85 -23 10.5 L-23 -10.55 Q-23 -11.9 -22.3 -13.05 -21.65 -14.2 -20.5 -14.85 L-2.5 -25.3 Q-1.35 -26 0 -26 M-7.65 -1.45 L-6.5 -1.45 Q-5.35 -1.45 -4.7 -0.75 -4.05 0 -4.05 1.4 -4.05 2.8 -4.7 3.5 -5.3 4.2 -6.5 4.2 L-7.65 4.2 -7.65 -1.45 M-6.6 7.25 Q-3.6 7.25 -2 5.7 -0.45 4.15 -0.45 1.4 -0.45 -1.35 -2 -2.9 -3.6 -4.5 -6.6 -4.5 L-9.3 -4.5 Q-10.2 -4.5 -10.7 -4 -11.15 -3.55 -11.15 -2.65 L-11.15 5.4 Q-11.15 6.3 -10.7 6.8 -10.2 7.25 -9.3 7.25 L-6.6 7.25 M5.65 4.9 Q5.1 4.9 4.75 4.55 4.45 4.2 4.45 3.6 4.45 2.9 4.8 2.6 5.15 2.25 5.65 2.25 6.25 2.25 6.55 2.6 6.9 2.95 6.9 3.6 6.9 4.15 6.55 4.5 6.25 4.9 5.65 4.9 M5.65 -0.3 Q4.65 -0.3 4.65 -1.35 4.6 -2.35 5.65 -2.35 6.2 -2.35 6.45 -2.05 L6.7 -1.35 6.45 -0.6 Q6.2 -0.3 5.65 -0.3 M9.25 6.45 Q10.55 5.5 10.55 3.85 10.55 2.75 9.95 2.05 9.35 1.3 8.4 0.95 L9.6 -0.05 Q10.1 -0.7 10.1 -1.55 10.1 -3 8.9 -3.8 7.65 -4.6 5.65 -4.6 3.65 -4.6 2.45 -3.8 1.25 -2.95 1.25 -1.55 1.25 -0.7 1.75 -0.05 L2.95 0.95 Q1.95 1.3 1.35 2.05 0.75 2.8 0.75 3.85 0.75 5.5 2.1 6.45 3.45 7.4 5.65 7.4 7.9 7.4 9.25 6.45"/>
  </g>
</svg>