<svg xmlns="http://www.w3.org/2000/svg" xmlns:xlink="http://www.w3.org/1999/xlink">
  <defs/>
  <g>
    <path stroke="none" fill="#FFFFFF" d="M0 -23 L-0.95 -22.7 -1 -22.7 -19 -12.25 -19.7 -11.55 -19.7 -11.5 -20 -10.55 -20 10.5 -19.7 11.45 -19.7 11.55 -18.95 12.3 -19 12.25 -1 22.75 0 23 1.05 22.75 1 22.75 19 12.25 18.95 12.3 19.75 11.55 20 10.5 20 -10.55 19.75 -11.55 19.05 -12.25 19 -12.25 1 -22.7 0.95 -22.7 0 -23 M4.05 -27.85 L4 -27.9 22 -17.45 Q23.8 -16.4 24.95 -14.6 L24.95 -14.5 Q26 -12.7 26 -10.55 L26 10.5 Q26 12.65 24.95 14.5 L24.95 14.55 Q23.85 16.35 22.05 17.45 L22 17.45 4 27.95 Q2.15 29 0 29 -2.15 29 -3.95 27.95 L-4 27.95 -22 17.45 -22.05 17.45 Q-23.85 16.3 -24.9 14.5 -26 12.65 -26 10.5 L-26 -10.55 Q-26 -12.7 -24.9 -14.5 L-24.85 -14.6 Q-23.8 -16.4 -21.95 -17.45 L-22 -17.45 -4 -27.9 -4.05 -27.85 Q-2.2 -29 0 -29 2.2 -29 4.05 -27.85 M9.25 5.05 Q7.9 6 5.65 6 3.45 6 2.1 5.05 0.75 4.1 0.75 2.45 0.75 1.4 1.35 0.65 1.95 -0.1 2.95 -0.45 2.2 -0.8 1.75 -1.45 1.25 -2.1 1.25 -2.95 1.25 -4.35 2.45 -5.2 3.65 -6 5.65 -6 7.65 -6 8.9 -5.2 10.1 -4.4 10.1 -2.95 10.1 -2.1 9.6 -1.45 L8.4 -0.45 Q9.35 -0.1 9.95 0.65 10.55 1.35 10.55 2.45 10.55 4.1 9.25 5.05 M5.65 -1.7 Q6.2 -1.7 6.45 -2 L6.7 -2.75 6.45 -3.45 Q6.2 -3.75 5.65 -3.75 4.6 -3.75 4.65 -2.75 4.65 -1.7 5.65 -1.7 M5.65 3.5 Q6.25 3.5 6.55 3.1 6.9 2.75 6.9 2.2 6.9 1.55 6.55 1.2 6.25 0.85 5.65 0.85 5.15 0.85 4.8 1.2 4.45 1.5 4.45 2.2 4.45 2.8 4.75 3.15 5.1 3.5 5.65 3.5 M-6.6 5.85 L-9.3 5.85 Q-10.2 5.85 -10.7 5.4 -11.15 4.9 -11.15 4 L-11.15 -4.05 Q-11.15 -4.95 -10.7 -5.4 -10.2 -5.9 -9.3 -5.9 L-6.6 -5.9 Q-3.6 -5.9 -2 -4.3 -0.45 -2.75 -0.45 0 -0.45 2.75 -2 4.3 -3.6 5.85 -6.6 5.85 M-7.65 -2.85 L-7.65 2.8 -6.5 2.8 Q-5.3 2.8 -4.7 2.1 -4.05 1.4 -4.05 0 -4.05 -1.4 -4.7 -2.15 -5.35 -2.85 -6.5 -2.85 L-7.65 -2.85"/>
  </g>
</svg>