<svg xmlns="http://www.w3.org/2000/svg" xmlns:xlink="http://www.w3.org/1999/xlink">
  <defs/>
  <g>
    <path stroke="none" fill="#FFFFFF" d="M0 -23 L-0.95 -22.7 -1 -22.7 -19 -12.25 -19.7 -11.55 -19.7 -11.5 -20 -10.55 -20 10.5 -19.7 11.45 -19.7 11.55 -18.95 12.3 -19 12.25 -1 22.75 0 23 1.05 22.75 1 22.75 19 12.25 18.95 12.3 19.75 11.55 20 10.5 20 -10.55 19.75 -11.55 19.05 -12.25 19 -12.25 1 -22.7 0.95 -22.7 0 -23 M4.05 -27.85 L4 -27.9 22 -17.45 Q23.8 -16.4 24.95 -14.6 L24.95 -14.5 Q26 -12.7 26 -10.55 L26 10.5 Q26 12.65 24.95 14.5 L24.95 14.55 Q23.85 16.35 22.05 17.45 L22 17.45 4 27.95 Q2.15 29 0 29 -2.15 29 -3.95 27.95 L-4 27.95 -22 17.45 -22.05 17.45 Q-23.85 16.3 -24.9 14.5 -26 12.65 -26 10.5 L-26 -10.55 Q-26 -12.7 -24.9 -14.5 L-24.85 -14.6 Q-23.8 -16.4 -21.95 -17.45 L-22 -17.45 -4 -27.9 -4.05 -27.85 Q-2.2 -29 0 -29 2.2 -29 4.05 -27.85"/>
  </g>
</svg>