<svg xmlns="http://www.w3.org/2000/svg" xmlns:xlink="http://www.w3.org/1999/xlink">
  <defs/>
  <g>
    <path stroke="none" fill="#FFFFFF" d="M-4.8 0.05 L-4.9 0.25 Q-5.6 2.15 -4.9 3.85 L-4.85 4 -4.6 4.5 Q-5.2 5.45 -5.2 7 L-5.2 9 Q-5.2 13 -1.2 13 L0.8 13 Q4.8 13 4.8 9 L4.8 7 Q4.8 5.4 4.2 4.45 L5 3.55 4.95 3.65 Q9 -0.45 8.8 -4 8.8 -7.25 6.9 -9.7 L6.85 -9.75 Q4.3 -13 -0.2 -13 -5.7 -13 -8.1 -8.3 -9.2 -6.4 -8.4 -4.25 L-8.35 -4.1 Q-7.7 -2.5 -6.1 -1.6 -5.2 -1.1 -4.25 -0.95 L-4.8 0.05 M2.8 1.5 L1.6 2.8 Q1.2 4 -0.2 4 L-1 3.9 Q-1.8 3.6 -2.1 2.8 -2.4 2.1 -2.1 1.3 -1.5 0 0 -1.3 1.8 -3.3 1.8 -4 1.6 -6 -0.2 -6 -1.3 -6 -2 -5.1 -2.4 -4.4 -3.1 -4.1 L-4.6 -4.2 Q-5.3 -4.6 -5.6 -5.3 -5.9 -6.1 -5.5 -6.8 -3.9 -10 -0.2 -10 2.8 -10 4.5 -7.9 5.8 -6.2 5.8 -4 5.8 -1.5 2.8 1.5 M-16.2 -32 L16.25 -32 Q32 -32 32 -16.2 L32 16.25 Q32 32 16.25 32 L-16.2 32 Q-32 32 -32 16.25 L-32 -16.2 Q-32 -32 -16.2 -32 M1.8 9 Q1.8 10 0.8 10 L-1.2 10 Q-2.2 10 -2.2 9 L-2.2 7 Q-2.2 6 -1.2 6 L0.8 6 Q1.8 6 1.8 7 L1.8 9"/>
  </g>
</svg>