<svg xmlns="http://www.w3.org/2000/svg" xmlns:xlink="http://www.w3.org/1999/xlink">
  <defs/>
  <g>
    <path stroke="none" fill="#FFFFFF" d="M14.85 -13.05 Q8.95 -13.65 3 -18 1.65 -18.95 0.05 -18.95 -1.6 -18.95 -2.95 -18 -8.9 -13.6 -14.8 -13.05 -16.2 -12.9 -17.1 -11.85 -18 -10.8 -17.95 -9.4 -17.45 2.95 -10.8 11.2 -6.75 16.2 -1.45 18.7 L0.05 19 1.55 18.7 Q6.8 16.2 10.85 11.2 17.5 2.95 18 -9.4 18.1 -10.8 17.15 -11.85 16.25 -12.9 14.85 -13.05 M-16.2 -32 L16.25 -32 Q32 -32 32 -16.2 L32 16.25 Q32 32 16.25 32 L-16.2 32 Q-32 32 -32 16.25 L-32 -16.2 Q-32 -32 -16.2 -32"/>
  </g>
</svg>