<svg xmlns="http://www.w3.org/2000/svg" xmlns:xlink="http://www.w3.org/1999/xlink">
  <defs/>
  <g>
    <path stroke="none" fill="#FFFFFF" d="M0 -20 Q-7.5 -20 -12.7 -15 -18 -10 -18 -3 -18 1.3 -16 4.8 L-16 8 Q-16 9.7 -14.9 10.9 -13.7 12 -12 12 L-8 12 -8 16 Q-8 17.7 -6.9 18.9 -5.7 20 -4 20 L4 20 Q5.7 20 6.8 18.9 8 17.7 8 16 L8 12 12 12 Q13.7 12 14.8 10.9 16 9.7 16 8 L16 4.8 Q18 1 18 -3 18 -10 12.7 -15 7.4 -20 0 -20 M-16.2 -32 L16.25 -32 Q32 -32 32 -16.2 L32 16.25 Q32 32 16.25 32 L-16.2 32 Q-32 32 -32 16.25 L-32 -16.2 Q-32 -32 -16.2 -32 M-6 8 Q-7.7 8 -8.9 6.9 -10 5.7 -10 4 -10 2.3 -8.9 1.2 -7.7 0 -6 0 -4.3 0 -3.2 1.2 -2 2.4 -2 4 -2 5.7 -3.2 6.9 -4.3 8 -6 8 M6 8 Q4.3 8 3.1 6.9 2 5.7 2 4 2 2.3 3.1 1.2 4.3 0 6 0 7.7 0 8.8 1.2 10 2.4 10 4 10 5.7 8.8 6.9 7.7 8 6 8"/>
  </g>
</svg>