<svg xmlns="http://www.w3.org/2000/svg" xmlns:xlink="http://www.w3.org/1999/xlink">
  <defs/>
  <g>
    <path stroke="none" fill="#FFFFFF" d="M-17.9 -16.75 L-16.15 -18 -16.25 -17.95 -15.6 -18.35 -15.65 -18.3 Q-12.6 -20 -8.95 -19.8 L-8.9 -19.75 -7.25 -19.55 -6.9 -19.45 3.2 -17.45 Q7.8 -16.5 8.2 -13.95 L8.2 -13.75 12.45 1.85 Q12.9 2.75 12.65 3.8 L11.7 5.65 9.9 7.55 7.7 9.55 4.85 9.35 Q3.75 8.9 2.7 8.9 L3.15 7.7 Q3.3 6.6 2.95 5.65 2.55 4.75 1.85 4.55 1.05 4.3 0.4 5 -0.35 5.65 -0.5 6.75 -0.7 7.8 -0.3 8.65 L0.05 9.3 -0.35 9.4 Q-3 10.6 -4.1 13.2 L-4.1 13.25 Q-5 15.4 -4.5 17.65 L-9.15 17.5 -9.2 17.45 -19.3 15.45 -19.4 15.4 Q-22.95 14.5 -23.8 12.85 L-23.9 12.6 -24 12.45 -28.2 -2.85 -28.5 -4.15 -28.55 -4.2 Q-29.4 -6.55 -25.95 -9.55 L-18.25 -16.5 -17.9 -16.75 M0.7 19.35 Q-0.8 18.7 -1.45 17.2 L-1.55 16.85 Q-2 15.5 -1.45 14.15 -0.8 12.6 0.75 11.95 2.25 11.3 3.8 11.95 L4.7 12.2 Q9.6 13.3 16.45 8.95 L15.85 8.75 Q15.05 8.5 14.65 7.75 14.25 7 14.5 6.25 14.7 5.45 15.45 5.05 L17 4.9 24.4 7.15 Q24.9 7.3 25.3 7.75 L25.8 8.75 25.65 9.85 25.2 11 25.15 11.1 Q25 12.2 24.35 13.05 L21.9 18.8 Q21.55 19.55 20.8 19.85 20.05 20.15 19.3 19.85 18.5 19.5 18.2 18.75 17.9 18 18.2 17.25 8.1 22.85 0.7 19.35 M-11.85 6.75 Q-12.15 5.7 -13.15 4.9 -14.1 4.05 -15.25 4 -16.4 3.85 -16.9 4.6 -17.55 5.15 -17.3 6.15 -17.1 7.2 -16.1 8.05 -15.1 8.85 -14 8.95 -12.9 9.05 -12.3 8.45 -11.6 7.75 -11.85 6.75 M-0.25 -2.1 Q-0.6 -3 -1.35 -3.2 -2.1 -3.45 -2.75 -2.75 -3.45 -2.1 -3.7 -1.05 -3.85 0.05 -3.5 0.95 -3.1 1.85 -2.4 2.15 -1.65 2.3 -0.95 1.7 -0.25 1 -0.05 -0.05 0.2 -1.15 -0.25 -2.1 M-8.1 -13.6 L-9.4 -13.75 Q-11.3 -13.85 -12.9 -12.95 L-14.25 -12 -21.3 -5.75 -12.05 -3.85 Q-8.7 -3.15 -6 -5.5 L1.05 -11.7 -8.1 -13.6 M8.7 0.25 Q8.3 -0.65 7.6 -0.8 6.85 -1.1 6.15 -0.4 5.45 0.2 5.25 1.3 5.05 2.4 5.45 3.25 5.85 4.2 6.6 4.45 7.3 4.65 8 4.05 8.7 3.4 8.85 2.3 9.1 1.15 8.7 0.25 M5.55 -7.45 Q5.15 -8.4 4.4 -8.6 3.75 -8.75 3 -8.15 2.3 -7.55 2.1 -6.45 1.9 -5.35 2.3 -4.45 2.7 -3.55 3.35 -3.3 4.1 -3.1 4.8 -3.75 5.55 -4.35 5.7 -5.4 5.95 -6.55 5.55 -7.45"/>
  </g>
</svg>