<svg xmlns="http://www.w3.org/2000/svg" xmlns:xlink="http://www.w3.org/1999/xlink">
  <defs/>
  <g>
    <path stroke="none" fill="#FFFFFF" d="M9 -17.65 L8.9 -17.55 -7.15 -1.45 -8.35 -2.65 -8.1 -2.9 Q-7.8 -3.25 -7.8 -3.65 L-7.8 -4.1 Q-7.8 -4.7 -8.15 -5.2 L-8.25 -5.3 Q-8.8 -5.85 -9.45 -5.85 L-13.55 -5.85 Q-15.3 -5.85 -15.3 -4.1 L-15.3 0 Q-15.35 1.7 -13.55 1.7 L-13.2 1.7 -12.45 1.45 -12.1 1.1 -9.6 3.65 -12.3 6.35 -16.25 6.35 Q-18 6.35 -18 8.1 L-18 16.25 Q-18 18 -16.25 18 L-8.15 18 Q-7.45 18 -6.95 17.45 -6.4 16.95 -6.4 16.25 L-6.4 12.25 -3.7 9.55 -1.35 11.85 -1.1 12.05 -1.4 12.4 Q-1.75 12.7 -1.75 13.15 L-1.75 13.55 Q-1.8 15.25 0 15.25 L4.1 15.25 Q4.7 15.25 5.2 14.85 L5.4 14.65 Q5.8 14.2 5.8 13.55 L5.8 9.45 Q5.8 8.85 5.4 8.35 L5.3 8.25 Q4.75 7.75 4.1 7.75 L3.6 7.75 3.2 7.85 Q2.95 7.9 2.85 8.05 L2.65 8.3 1.45 7.1 17.5 -8.95 Q18 -9.5 18 -10.15 L18 -16.3 Q18 -17 17.5 -17.55 L17.35 -17.65 Q16.9 -18 16.25 -18 L10.15 -18 Q9.5 -18 9 -17.65 M-16.2 -32 L16.25 -32 Q32 -32 32 -16.2 L32 16.25 Q32 32 16.25 32 L-16.2 32 Q-32 32 -32 16.25 L-32 -16.2 Q-32 -32 -16.2 -32"/>
  </g>
</svg>