<svg xmlns="http://www.w3.org/2000/svg" xmlns:xlink="http://www.w3.org/1999/xlink">
  <defs/>
  <g>
    <path stroke="none" fill="#FFFFFF" d="M6.35 -24.4 L3.95 -25.35 -3.2 -25.6 Q-4.8 -25.2 -6.35 -24.4 L-6.35 -24.35 -23.1 -16 -6.3 -7.6 Q-0.05 -4.45 6.3 -7.6 L23.1 -16 6.35 -24.4 M9 -29.8 L27.5 -20.55 Q31.85 -18.35 31.95 -16.15 L32 -16.15 32 16 Q31.95 18.25 27.45 20.5 L8.95 29.75 Q-0.05 34.25 -9 29.75 L-27.5 20.5 Q-31.55 18.45 -31.95 16.4 L-31.95 15.6 -31.95 -15.6 -31.95 -16.2 Q-31.8 -18.35 -27.55 -20.5 L-9.05 -29.75 -8.45 -30 -5.15 -31.3 -4.3 -31.5 Q0.9 -32.75 6.1 -31 L8.6 -30 9 -29.8"/>
  </g>
</svg>