<svg xmlns="http://www.w3.org/2000/svg" xmlns:xlink="http://www.w3.org/1999/xlink">
  <defs/>
  <g>
    <path stroke="none" fill="#FFFFFF" d="M6 0 Q6 -2.5 4.25 -4.25 2.55 -6 0 -6 -2.5 -6 -4.25 -4.25 -6 -2.5 -6 0 -6 2.5 -4.25 4.25 -2.5 6 0 6 2.55 6 4.25 4.25 6 2.5 6 0 M21 -15 Q21 -17.5 19.25 -19.25 17.55 -21 15 -21 12.5 -21 10.75 -19.25 9 -17.5 9 -15 9 -12.5 10.75 -10.75 12.5 -9 15 -9 17.55 -9 19.25 -10.75 21 -12.5 21 -15 M-16.2 -32 L16.25 -32 Q32 -32 32 -16.2 L32 16.25 Q32 32 16.25 32 L-16.2 32 Q-32 32 -32 16.25 L-32 -16.2 Q-32 -32 -16.2 -32 M-9 15 Q-9 12.5 -10.75 10.75 -12.45 9 -15 9 -17.5 9 -19.25 10.75 -21 12.5 -21 15 -21 17.5 -19.25 19.25 -17.5 21 -15 21 -12.45 21 -10.75 19.25 -9 17.5 -9 15 M-9 -15 Q-9 -17.5 -10.75 -19.25 -12.45 -21 -15 -21 -17.5 -21 -19.25 -19.25 -21 -17.5 -21 -15 -21 -12.5 -19.25 -10.75 -17.5 -9 -15 -9 -12.45 -9 -10.75 -10.75 -9 -12.5 -9 -15 M21 15 Q21 12.5 19.25 10.75 17.55 9 15 9 12.5 9 10.75 10.75 9 12.5 9 15 9 17.5 10.75 19.25 12.5 21 15 21 17.55 21 19.25 19.25 21 17.5 21 15"/>
  </g>
</svg>