<svg xmlns="http://www.w3.org/2000/svg" xmlns:xlink="http://www.w3.org/1999/xlink">
  <defs/>
  <g>
    <path stroke="none" fill="#FFFFFF" d="M17.2 -3.6 L27.7 2.55 Q34.45 6.4 30.6 13.15 L24.5 23.7 Q20.6 30.45 13.8 26.55 L3.3 20.5 Q-3.5 16.6 0.4 9.8 L6.55 -0.75 Q10.45 -7.45 17.2 -3.6 M11 13.5 Q11 12 10 11 8.95 10 7.5 10 6 10 5 11 4 12 4 13.5 4 14.9 5 15.95 6 17 7.5 17 8.95 17 10 15.95 11 14.9 11 13.5 M26 9.5 Q26 8 24.95 7 23.9 6 22.5 6 21 6 20 7 19 8 19 9.5 19 10.9 20 11.95 21 13 22.5 13 23.9 13 24.95 11.95 26 10.9 26 9.5 M-26 -24.45 L-14.2 -27.6 Q-6.65 -29.65 -4.6 -22.1 L-1.45 -10.2 Q0.6 -2.65 -6.95 -0.6 L-18.8 2.55 Q-26.35 4.6 -28.4 -3 L-31.55 -14.85 Q-33.6 -22.4 -26 -24.45 M-13 -12.5 Q-13 -14 -14 -15 -15.05 -16 -16.5 -16 -18 -16 -19 -15 -20 -14 -20 -12.5 -20 -11.05 -19 -10 -18 -9 -16.5 -9 -15.05 -9 -14 -10 -13 -11.05 -13 -12.5"/>
  </g>
</svg>