<svg xmlns="http://www.w3.org/2000/svg" xmlns:xlink="http://www.w3.org/1999/xlink">
  <defs/>
  <g>
    <path stroke="none" fill="#FFFFFF" d="M-21.3 -28.55 L-19.6 -29.8 -19.7 -29.8 -19.05 -30.2 -19.1 -30.1 Q-16.1 -31.85 -12.45 -31.6 L-12.35 -31.6 -10.8 -31.4 -10.45 -31.3 -0.45 -29.3 Q4.15 -28.35 4.5 -25.75 L4.6 -25.5 8.7 -9.8 8.85 -9.5 3.55 -9.8 Q-2.85 -10.2 -4.6 -6.85 L-12.05 6.2 -12.65 6.1 -12.7 6.05 -22.85 3.95 Q-26.65 3 -27.35 0.95 L-27.4 0.85 -28.1 -1.25 -31.85 -15.9 -32 -16.8 Q-32.1 -18.8 -29.35 -21.3 L-21.7 -28.3 -21.3 -28.55 M14.15 -6.15 L16.25 -5.8 16.15 -5.85 16.9 -5.65 16.8 -5.65 Q20.2 -4.7 22.6 -1.95 L22.65 -1.9 23.65 -0.65 23.85 -0.3 29.55 8.25 Q32.15 12.2 30.6 14.3 L30.5 14.45 22.45 28.4 Q21.6 31 16.6 30.7 L6.25 30.05 Q-0.25 29.65 -3.9 24.25 L-3.9 24.2 -9.6 15.6 -9.65 15.5 Q-11.55 12.4 -10.95 10.6 L-10.85 10.3 -10.8 10.2 -2.95 -3.6 -2.25 -4.75 -2.25 -4.8 Q-1.2 -7.1 3.35 -6.8 L13.7 -6.2 14.15 -6.15 M-11.85 -25.25 L-13.15 -25.45 Q-15 -25.45 -16.6 -24.6 L-17.95 -23.65 -24.9 -17.3 -15.8 -15.45 Q-12.4 -14.7 -9.75 -17.1 L-2.8 -23.35 -11.85 -25.25 M18.85 3 L18.05 1.95 Q16.75 0.6 15 0.05 L13.35 -0.2 3.95 -0.75 9.15 7.05 Q11.05 10 14.6 10.2 L23.95 10.8 18.85 3"/>
  </g>
</svg>