<svg xmlns="http://www.w3.org/2000/svg" xmlns:xlink="http://www.w3.org/1999/xlink">
  <defs/>
  <g>
    <path stroke="none" fill="#FFFFFF" d="M-21.3 -28.55 L-19.6 -29.8 -19.7 -29.8 -19.05 -30.2 -19.1 -30.1 Q-16.1 -31.85 -12.45 -31.6 L-12.35 -31.6 -10.8 -31.4 -10.45 -31.3 -0.45 -29.3 Q4.15 -28.35 4.5 -25.75 L4.6 -25.5 8.7 -9.8 8.85 -9.5 3.55 -9.8 Q-2.85 -10.2 -4.6 -6.85 L-12.05 6.2 -12.65 6.1 -12.7 6.05 -22.85 3.95 Q-26.65 3 -27.35 0.95 L-27.4 0.85 -28.1 -1.25 -31.85 -15.9 -32 -16.8 Q-32.1 -18.8 -29.35 -21.3 L-21.7 -28.3 -21.3 -28.55 M14.15 -6.15 L16.25 -5.8 16.15 -5.85 16.9 -5.65 16.8 -5.65 Q20.2 -4.7 22.6 -1.95 L22.65 -1.9 23.65 -0.65 23.85 -0.3 29.55 8.25 Q32.15 12.2 30.6 14.3 L30.5 14.45 22.45 28.4 Q21.6 31 16.6 30.7 L6.25 30.05 Q-0.25 29.65 -3.9 24.25 L-3.9 24.2 -9.6 15.6 -9.65 15.5 Q-11.55 12.4 -10.95 10.6 L-10.85 10.3 -10.8 10.2 -2.95 -3.6 -2.25 -4.75 -2.25 -4.8 Q-1.2 -7.1 3.35 -6.8 L13.7 -6.2 14.15 -6.15 M16.25 16.7 Q16.65 15.8 16.3 15.1 15.9 14.45 14.95 14.45 14 14.4 13.1 15 12.2 15.65 11.8 16.55 11.45 17.5 11.75 18.15 12.15 18.8 13.1 18.85 14.05 18.85 14.95 18.25 15.9 17.65 16.25 16.7 M13.05 24.4 Q13.4 23.5 13.05 22.85 12.65 22.15 11.7 22.15 10.75 22.1 9.85 22.75 8.95 23.35 8.6 24.25 8.2 25.2 8.55 25.9 8.9 26.55 9.85 26.6 10.8 26.6 11.75 26 12.65 25.35 13.05 24.4 M20.95 24.65 Q21.3 23.75 20.9 23.1 20.55 22.45 19.6 22.4 18.65 22.35 17.75 23 16.85 23.6 16.5 24.5 16.1 25.45 16.45 26.15 16.8 26.8 17.75 26.85 18.7 26.9 19.6 26.25 20.55 25.6 20.95 24.65 M24.15 16.95 Q24.55 16.05 24.15 15.35 23.8 14.75 22.85 14.7 21.9 14.65 21 15.25 20.1 15.9 19.7 16.8 19.35 17.75 19.65 18.4 20.05 19.05 21 19.1 21.95 19.15 22.8 18.5 23.8 17.9 24.15 16.95 M1.8 14.7 Q2.35 13.8 2.2 12.55 2.1 11.25 1.35 10.4 0.65 9.5 -0.25 9.6 -1.1 9.55 -1.65 10.45 -2.2 11.35 -2.15 12.65 -2 13.9 -1.3 14.8 -0.55 15.65 0.3 15.6 1.25 15.6 1.8 14.7 M-14.1 -10.05 Q-14.3 -10.9 -14.95 -11.65 -15.65 -12.35 -16.5 -12.5 -17.35 -12.6 -17.8 -12.15 -18.3 -11.6 -18.15 -10.75 -17.95 -9.85 -17.25 -9.15 -16.55 -8.45 -15.7 -8.3 -14.85 -8.15 -14.35 -8.7 -13.95 -9.15 -14.1 -10.05 M-17.65 -5.45 Q-17.85 -6.3 -18.5 -7.05 -19.2 -7.75 -20.05 -7.9 -20.9 -8 -21.35 -7.55 -21.85 -7 -21.7 -6.15 -21.5 -5.25 -20.8 -4.55 -20.1 -3.85 -19.25 -3.7 -18.4 -3.55 -17.9 -4.1 -17.5 -4.55 -17.65 -5.45 M-21.45 -0.7 Q-21.65 -1.55 -22.3 -2.3 -23 -3 -23.85 -3.15 -24.7 -3.25 -25.15 -2.8 -25.65 -2.25 -25.5 -1.4 -25.3 -0.5 -24.6 0.2 -23.9 0.9 -23.05 1.05 -22.2 1.2 -21.7 0.65 -21.3 0.2 -21.45 -0.7 M-11.85 -25.25 L-13.15 -25.45 Q-15 -25.45 -16.6 -24.6 L-17.95 -23.65 -24.9 -17.3 -15.8 -15.45 Q-12.4 -14.7 -9.75 -17.1 L-2.8 -23.35 -11.85 -25.25 M18.85 3 L18.05 1.95 Q16.75 0.6 15 0.05 L13.35 -0.2 3.95 -0.75 9.15 7.05 Q11.05 10 14.6 10.2 L23.95 10.8 18.85 3"/>
  </g>
</svg>