<svg xmlns="http://www.w3.org/2000/svg" xmlns:xlink="http://www.w3.org/1999/xlink">
  <defs/>
  <g>
    <path stroke="none" fill="#FFFFFF" d="M11.45 4.6 L8.7 4.95 8.65 4.9 0 3.1 -8.6 4.9 -8.7 4.95 -11.5 4.6 Q-13 3.95 -13.65 2.6 L-13.7 2.5 Q-14.35 1 -13.7 -0.5 L-13.65 -0.5 -4.1 -22.45 -4.15 -22.4 Q-3.7 -23.7 -2.25 -24.4 -1.25 -25 -0.05 -25 1.25 -25 2.35 -24.3 L2.4 -24.3 Q3.5 -23.65 4.05 -22.55 L4.1 -22.45 13.7 -0.5 Q14.35 1 13.7 2.5 L13.65 2.6 Q13 3.95 11.5 4.6 L11.45 4.6 M-3.45 11.8 L2 19.05 2 13 Q2 12 2.6 11.5 L2.65 11.5 Q3.15 10.95 4 10.95 4.95 10.95 5.45 11.5 6 12 6 13 L6 24.35 Q6 25.35 5.45 25.85 4.95 26.4 4 26.4 L3.2 26.25 3.1 26.2 2.4 25.6 2.35 25.55 -3.1 18.4 -3.1 24.35 Q-3.1 25.35 -3.7 25.85 L-3.7 25.9 Q-4.25 26.4 -5.1 26.4 -6.05 26.4 -6.55 25.85 -7.1 25.35 -7.1 24.35 L-7.1 13 Q-7.1 12 -6.55 11.5 -6.05 10.95 -5.1 10.95 -4.7 10.95 -4.2 11.25 L-4.2 11.2 -3.45 11.8"/>
  </g>
</svg>