<svg xmlns="http://www.w3.org/2000/svg" xmlns:xlink="http://www.w3.org/1999/xlink">
  <defs/>
  <g>
    <path stroke="none" fill="#FFFFFF" d="M8.7 -24.9 L11.45 -24.6 11.5 -24.55 Q13 -23.95 13.65 -22.6 L13.7 -22.5 Q14.35 -21 13.7 -19.5 L4.1 2.45 4.05 2.55 Q3.5 3.65 2.4 4.3 L2.35 4.35 Q1.25 5 -0.05 5 -1.25 5 -2.25 4.4 -3.7 3.7 -4.15 2.45 L-4.1 2.45 -13.65 -19.5 -13.7 -19.5 Q-14.35 -21 -13.7 -22.5 L-13.65 -22.6 Q-13 -23.95 -11.5 -24.55 -10.15 -25.2 -8.7 -24.9 L-8.6 -24.9 0 -23.05 8.65 -24.9 8.7 -24.9 M4.95 21.4 Q4.95 22.9 4.2 24.15 3.4 25.3 2.15 25.9 0.85 26.55 -0.65 26.55 L-4.1 26.05 Q-6.05 25.4 -6 23.8 -6 23 -5.5 22.5 -5.05 21.9 -4.2 21.9 L-3.4 22.05 -2.5 22.3 -2.45 22.3 -1.55 22.6 -1.6 22.55 -0.8 22.65 0.15 22.5 0.55 22.15 0.6 22.1 0.6 22.05 0.7 21.45 0.5 20.9 Q-0.05 20.65 -1.9 20.1 -3.9 19.45 -4.85 18.6 -5.95 17.65 -5.95 15.85 -5.95 14.35 -5.2 13.2 -4.45 12.05 -3.15 11.4 -1.9 10.8 -0.5 10.8 L1.2 11 Q2.25 11.2 3.05 11.75 3.9 12.35 3.9 13.3 3.9 14.15 3.45 14.7 2.85 15.3 2.1 15.3 L1.35 15.2 1.4 15.2 0.65 14.9 0.1 14.8 0.05 14.8 -0.6 14.7 -1.45 14.95 -1.7 15.5 Q-1.6 15.8 -0.9 16.1 L-0.95 16.1 1.45 16.9 Q2.9 17.35 3.9 18.35 L3.95 18.35 Q4.95 19.4 4.95 21.4"/>
  </g>
</svg>