<svg xmlns="http://www.w3.org/2000/svg" xmlns:xlink="http://www.w3.org/1999/xlink">
  <defs/>
  <g>
    <path stroke="none" fill="#FFFFFF" d="M-14.3 -12.35 L-14.3 -12.4 Q-13.65 -13.5 -12.55 -14.05 L-12.45 -14.05 9.5 -23.65 9.5 -23.7 Q11 -24.35 12.5 -23.7 L12.6 -23.65 Q13.95 -23 14.6 -21.5 L14.6 -21.45 Q15.2 -20 14.95 -18.65 L14.9 -18.65 13.1 -9.95 14.9 -1.35 14.95 -1.3 Q15.2 0.15 14.6 1.5 13.95 3 12.6 3.65 L12.5 3.7 Q11 4.35 9.5 3.7 L-12.45 -5.85 -12.4 -5.85 Q-13.7 -6.3 -14.4 -7.75 -15 -8.75 -15 -9.95 -15 -11.25 -14.3 -12.35 M8.9 12.75 L8.8 13.6 6.3 24.45 6.3 24.5 5.45 25.9 5.4 25.9 Q4.8 26.4 3.8 26.4 2.95 26.4 2.25 25.9 1.55 25.4 1.35 24.6 L-0.5 18.4 -2.35 24.6 Q-2.6 25.4 -3.3 25.9 -3.9 26.4 -4.85 26.4 -5.85 26.4 -6.45 25.9 -7.1 25.3 -7.3 24.45 L-7.25 24.5 -9.8 13.6 -9.95 12.75 Q-9.95 12.05 -9.4 11.5 -8.85 10.95 -8 10.95 -6.3 10.95 -5.9 12.8 L-4.6 19.3 -2.55 12.45 -1.8 11.35 -1.75 11.35 Q-1.2 10.95 -0.5 10.95 0.2 10.95 0.75 11.35 1.35 11.75 1.55 12.5 L1.55 12.45 3.6 19.4 4.9 12.85 Q5.05 11.95 5.55 11.45 L5.6 11.45 Q6.1 10.95 7 10.95 7.8 10.95 8.35 11.5 8.9 12.05 8.9 12.75"/>
  </g>
</svg>