<svg xmlns="http://www.w3.org/2000/svg" xmlns:xlink="http://www.w3.org/1999/xlink">
  <defs/>
  <g>
    <path stroke="none" fill="#FFFFFF" d="M-14.9 -18.7 Q-15.2 -20.15 -14.55 -21.5 -13.95 -23 -12.6 -23.65 L-12.5 -23.7 Q-11 -24.35 -9.5 -23.7 L-9.5 -23.65 12.45 -14.1 12.45 -14.15 Q13.7 -13.7 14.4 -12.25 15 -11.25 15 -10.05 15 -8.75 14.35 -7.65 L14.3 -7.6 Q13.65 -6.5 12.55 -5.95 L12.45 -5.9 -9.5 3.7 Q-11 4.35 -12.5 3.7 L-12.6 3.65 Q-13.95 3 -14.55 1.5 L-14.6 1.45 Q-15.2 0 -14.9 -1.3 L-14.9 -1.35 -13.05 -10 -14.9 -18.6 -14.9 -18.7 M2.25 11.05 Q3.2 11.05 3.7 11.6 L3.75 11.65 Q4.2 12.15 4.2 12.95 L3.95 13.9 3.95 13.8 Q3.75 14.3 3.35 14.6 L3.3 14.6 2.25 14.85 -0.75 14.85 -0.75 16.75 2.05 16.75 Q3 16.75 3.45 17.3 L3.5 17.35 Q4 17.85 4 18.6 4 19.35 3.5 19.95 L3.45 19.95 Q2.9 20.5 2.05 20.5 L-0.75 20.5 -0.75 22.55 2.45 22.55 Q3.4 22.55 3.9 23.15 4.35 23.65 4.35 24.4 L4.15 25.3 4.15 25.35 3.45 26.05 3.5 26.05 2.45 26.3 -2.7 26.3 Q-3.55 26.3 -4.1 25.8 L-4.15 25.75 Q-4.75 25.15 -4.75 24.3 L-4.75 13.3 Q-4.75 12.3 -4.25 11.75 L-4.2 11.75 Q-3.7 11.05 -2.7 11.05 L2.25 11.05"/>
  </g>
</svg>