<svg xmlns="http://www.w3.org/2000/svg" xmlns:xlink="http://www.w3.org/1999/xlink">
  <defs/>
  <g>
    <path stroke="none" fill="#FFFFFF" d="M0.5 -11.2 Q-1.7 -11.2 -2.75 -10.35 L-2.9 -10.2 Q-3.8 -9.4 -3.8 -7.8 -3.8 -6.45 -2.9 -5.7 L-2.7 -5.55 Q-1.4 -4.5 2.1 -3.4 6.6 -2 8.75 -0.7 L9 -0.5 Q11.2 0.95 12.45 2.95 L12.7 3.2 Q14 5.5 14 8.5 14 13.3 10.7 16.3 8.25 18.55 3.9 19.35 L3.9 20 Q3.9 24 -0.05 24 L-0.1 24 Q-2.05 24.05 -3 23 -4 22 -4 20 L-4 19.35 Q-8.4 18.5 -10.9 16.1 L-11 16 Q-12.45 14.6 -13.5 12.15 L-13.55 12 Q-14 11.1 -14 9.7 -14 8.05 -13 6.9 L-12.75 6.65 -12.5 6.4 Q-11.45 5.3 -9.7 5.3 -7.15 5.3 -5.85 7.5 L-5.75 7.7 -5.7 7.8 -5.4 8.6 -5.35 8.75 -5.3 9 Q-5.15 10 -4.4 10.8 -2.85 12 -0.1 12 2.55 12 3.95 10.95 L3.9 11.05 4.2 10.8 Q5.2 9.95 5.2 8.6 5.2 7.35 4.3 6.6 L4.2 6.5 4.15 6.45 Q2.8 5.25 -0.25 4.3 L-0.6 4.3 Q-6.4 2.65 -9.2 0.05 L-9.5 -0.1 Q-12.6 -3.1 -12.6 -7.8 -12.6 -12.5 -9.45 -15.4 L-9.5 -15.4 Q-7.3 -17.7 -3.5 -18.45 L-3.5 -20 Q-3.5 -24 0.5 -24 2.1 -24 3.3 -22.8 4.5 -21.6 4.5 -20 L4.5 -18.55 Q8.4 -17.6 10.7 -14.9 L10.7 -14.95 Q12.8 -12.75 13.3 -9.4 L13.3 -9.3 13.4 -8.5 13.4 -8.4 13.4 -8.3 Q13.4 -4 9.15 -4 L9.1 -4 Q6 -3.9 4.9 -7.3 L4.5 -8.6 3.9 -9.65 Q3.55 -9.8 3.45 -10.15 2.35 -11.2 0.5 -11.2"/>
  </g>
</svg>