<svg xmlns="http://www.w3.org/2000/svg" xmlns:xlink="http://www.w3.org/1999/xlink">
  <defs/>
  <g>
    <path stroke="none" fill="#FFFFFF" d="M30 0 Q30.45 4.7 20.35 7.6 L18.95 7.95 Q20 9.75 20 12 20 15.3 17.65 17.65 15.3 20 12 20 9.75 20 7.95 18.95 L7.6 20.35 Q4.7 30.45 0 30 -4.7 30.45 -7.55 20.35 L-7.95 18.95 Q-9.75 20 -12 20 -15.35 20 -17.7 17.65 -20 15.3 -20 12 -20 9.75 -18.95 8 L-20.4 7.6 Q-30.45 4.7 -30 0 -30.45 -4.7 -20.4 -7.55 L-18.95 -7.95 Q-20 -9.75 -20 -12 -20 -15.35 -17.7 -17.7 -15.35 -20 -12 -20 -9.75 -20 -7.95 -18.95 L-7.55 -20.4 Q-4.7 -30.45 0 -30 4.7 -30.45 7.6 -20.4 L8 -18.95 Q9.75 -20 12 -20 15.3 -20 17.65 -17.7 20 -15.35 20 -12 20 -9.75 18.95 -7.95 L20.35 -7.55 Q30.45 -4.7 30 0"/>
  </g>
</svg>