<svg xmlns="http://www.w3.org/2000/svg" xmlns:xlink="http://www.w3.org/1999/xlink">
  <defs/>
  <g>
    <path stroke="none" fill="#FFFFFF" d="M30 0 Q30.45 4.7 20.35 7.6 L18.95 7.95 Q20 9.75 20 12 20 15.3 17.65 17.65 15.3 20 12 20 9.75 20 7.95 18.95 L7.6 20.35 Q4.7 30.45 0 30 -4.7 30.45 -7.55 20.35 L-7.95 18.95 Q-9.75 20 -12 20 -15.35 20 -17.7 17.65 -20 15.3 -20 12 -20 9.75 -18.95 8 L-20.4 7.6 Q-30.45 4.7 -30 0 -30.45 -4.7 -20.4 -7.55 L-18.95 -7.95 Q-20 -9.75 -20 -12 -20 -15.35 -17.7 -17.7 -15.35 -20 -12 -20 -9.75 -20 -7.95 -18.95 L-7.55 -20.4 Q-4.7 -30.45 0 -30 4.7 -30.45 7.6 -20.4 L8 -18.95 Q9.75 -20 12 -20 15.3 -20 17.65 -17.7 20 -15.35 20 -12 20 -9.75 18.95 -7.95 L20.35 -7.55 Q30.45 -4.7 30 0 M1.9 -3.8 L-0.05 -3.55 -0.1 -3.55 1.65 -6.15 Q2.2 -7 2.2 -7.7 2.2 -8.7 1.4 -9.35 0.7 -9.95 -0.45 -9.95 L-1.75 -9.75 -2.55 -9.2 -3.2 -8.4 -5.4 -5.05 Q-6.5 -3.2 -7.05 -1.55 -7.65 0.05 -7.65 2 -7.65 4.9 -5.65 6.85 -3.7 8.75 -0.1 8.75 3.45 8.75 5.45 6.75 7.5 4.75 7.5 2.05 7.5 -0.7 5.9 -2.25 4.3 -3.8 1.9 -3.8 M-0.15 -0.25 Q0.9 -0.25 1.5 0.4 2.1 1.1 2.1 2.05 2.1 3.15 1.55 3.85 1 4.6 -0.1 4.6 -1.15 4.6 -1.7 3.9 -2.25 3.2 -2.25 2.1 -2.3 0.9 -1.65 0.3 -1 -0.25 -0.15 -0.25"/>
  </g>
</svg>