<svg xmlns="http://www.w3.org/2000/svg" xmlns:xlink="http://www.w3.org/1999/xlink">
  <defs/>
  <g>
    <path stroke="none" fill="#FFFFFF" d="M15.3 -10.2 Q21.9 -0.8 20.85 8.65 L20.85 8.9 Q19.55 16.75 15.05 22 12.9 25.6 8.35 26.9 L8.4 26.75 Q9.6 23.85 8.35 18.7 L8.3 18.65 Q4.15 7.1 0.35 4.05 -0.35 3.45 -1.1 3.6 -2.05 3.65 -2.55 4.45 -3 5 -2.95 5.85 L-2.95 5.9 Q-2.85 10.65 -5.7 14.65 -9.25 18.25 -8.8 22.65 L-8.75 22.75 Q-8.35 25.3 -7.1 27 -18.9 24 -20.9 11.85 -21.85 3.1 -14.8 -4.1 -7.65 -13.7 -8 -25.15 -8.1 -26.3 -7.45 -27.05 -6.9 -27.9 -5.95 -27.95 -5.1 -28.1 -4.35 -27.45 6.55 -18.25 10.1 -5.3 10.95 -7.05 11.2 -9.05 11.3 -10.15 12.15 -10.8 12.85 -11.4 13.85 -11.2 14.7 -11.05 15.3 -10.2"/>
  </g>
</svg>