<svg xmlns="http://www.w3.org/2000/svg" xmlns:xlink="http://www.w3.org/1999/xlink">
  <defs/>
  <g>
    <path stroke="none" fill="#FFFFFF" d="M-12.5 -26.05 L-8.6 -25.05 Q-7.8 -24.8 -7.35 -24.05 -7 -23.4 -7.2 -22.55 L-8.15 -18.85 Q-2.45 -11.95 4.55 -11.55 19.1 -10.9 23.2 2.7 23.45 3.2 23.2 3.85 L22.55 4.8 Q22.05 5.2 21.45 5.25 L20.3 5 Q11.85 0.1 1.85 5.75 -5.75 10.1 -15.4 8.1 L-19.65 23.8 Q-19.85 24.6 -20.5 25.05 L-22.05 25.2 -25.95 24.2 Q-26.75 23.95 -27.15 23.25 -27.55 22.5 -27.35 21.7 L-14.9 -24.65 Q-14.7 -25.5 -14 -25.85 L-12.5 -26.05"/>
  </g>
</svg>