<svg xmlns="http://www.w3.org/2000/svg" xmlns:xlink="http://www.w3.org/1999/xlink">
  <defs/>
  <g>
    <path stroke="none" fill="#FFFFFF" d="M-12.5 -26 L-8.65 -25 Q-7.8 -24.75 -7.4 -24 -7 -23.35 -7.25 -22.5 L-7.65 -20.85 Q2.2 -23.9 8.65 -14.05 14.3 -5.55 23.45 -10.1 L24.95 -10.25 Q25.75 -10 26.15 -9.25 26.5 -8.55 26.3 -7.8 L20.05 15.4 19.7 16.15 19.1 16.7 Q6.7 22.85 -0.85 11.35 -6.4 3 -15.15 7.1 L-19.65 23.85 Q-19.85 24.65 -20.6 25.1 L-22.1 25.25 -25.95 24.25 Q-26.8 24 -27.2 23.3 -27.6 22.55 -27.4 21.75 L-15 -24.6 Q-14.75 -25.45 -14 -25.8 L-12.5 -26"/>
  </g>
</svg>