<svg xmlns="http://www.w3.org/2000/svg" xmlns:xlink="http://www.w3.org/1999/xlink">
  <defs/>
  <g>
    <path stroke="none" fill="#FFFFFF" d="M-8.9 -23.8 Q-8.75 -21.7 -6.55 -18.95 -5.9 -18.15 -5.9 -17.1 L-5.9 -5.95 Q-5.9 -5 -6.45 -4.2 L-23.15 19 Q-23.75 19.85 -23.75 20.85 -23.75 22.15 -22.9 23.1 -22.05 23.8 -20.8 23.8 L20.8 23.8 Q22.05 23.8 22.95 23.1 23.75 22.15 23.75 20.85 23.75 19.85 23.15 19 L6.5 -4.2 Q5.9 -5 5.9 -5.95 L5.9 -17.1 Q5.9 -18.15 6.55 -18.95 8.7 -21.65 8.9 -23.75 L8.85 -23.8 -8.85 -23.8 -8.85 -23.75 -8.9 -23.8 M-8.9 -29.8 L8.9 -29.8 Q11.65 -29.8 13.2 -27.95 14.95 -26.15 14.9 -23.8 15.05 -20.35 11.9 -16.05 L11.9 -6.9 28.05 15.5 28.05 15.55 Q29.75 17.95 29.75 20.85 29.75 24.5 27.4 27.15 L27.2 27.35 Q24.55 29.8 20.8 29.8 L-20.8 29.8 Q-24.55 29.8 -27.15 27.35 L-27.4 27.15 Q-29.75 24.5 -29.75 20.85 -29.75 17.95 -28.05 15.55 L-28 15.5 -11.9 -6.9 -11.9 -16.05 Q-15.05 -20.35 -14.9 -23.8 -14.95 -26.15 -13.2 -27.95 -11.65 -29.8 -8.9 -29.8 M12.5 9.25 L17.4 16.05 Q18.05 17 17.9 18.15 17.8 19.25 16.95 20.05 16.05 20.8 14.95 20.8 L-14.85 20.8 Q-16 20.8 -16.85 20.05 -17.75 19.25 -17.85 18.15 -17.95 17 -17.3 16.05 L-12.4 9.25 -11.35 8.35 Q-10.7 8 -9.95 8 L10.05 8 Q10.8 8 11.45 8.35 L12.5 9.25"/>
  </g>
</svg>