<svg xmlns="http://www.w3.org/2000/svg" xmlns:xlink="http://www.w3.org/1999/xlink">
  <defs/>
  <g>
    <path stroke="none" fill="#FFFFFF" d="M-25 -2 Q-25 -12.35 -17.65 -19.65 -10.35 -27 0 -27 10.35 -27 17.7 -19.65 25 -12.35 25 -2 L25 -1.5 25 -1 25 -0.5 25 0 25 0.5 25 1 25 1.5 25 2 Q25 12.35 17.7 19.7 10.35 27 0 27 -10.35 27 -17.65 19.7 -25 12.35 -25 2 L-25 1.5 -25 1 -25 0.5 -25 0 -25 -0.5 -25 -1 -25 -1.5 -25 -2 M-8.1 0.15 Q-9 -0.75 -9 -2 -9 -3.25 -8.1 -4.1 -7.25 -5 -6 -5 -4.75 -5 -3.85 -4.1 L-0.8 -1.05 3.35 -9.35 Q3.9 -10.45 5.05 -10.85 L7.35 -10.65 Q8.45 -10.1 8.85 -8.95 9.25 -7.75 8.7 -6.65 L2.7 5.35 Q2.25 6.2 1.4 6.7 L-0.45 7 Q-1.45 6.8 -2.1 6.15 L-8.1 0.15 M19 -2 Q19 -9.85 13.45 -15.4 7.85 -21 0 -21 -7.85 -21 -13.4 -15.4 -19 -9.85 -19 -2 -19 5.85 -13.4 11.45 -7.85 17 0 17 7.85 17 13.45 11.45 19 5.85 19 -2"/>
  </g>
</svg>