<svg xmlns="http://www.w3.org/2000/svg" xmlns:xlink="http://www.w3.org/1999/xlink">
  <defs/>
  <g>
    <path stroke="none" fill="#FFFFFF" d="M-7.1 -4.85 L-4.25 -2 -7.1 0.9 Q-8 1.75 -8 3 -8 4.25 -7.1 5.15 -6.25 6 -5 6 -3.75 6 -2.85 5.15 L0 2.25 2.9 5.15 Q3.75 6 5 6 6.25 6 7.15 5.15 8 4.25 8 3 8 1.75 7.15 0.9 L4.25 -2 7.15 -4.85 Q8 -5.75 8 -7 8 -8.25 7.15 -9.1 6.25 -10 5 -10 3.75 -10 2.9 -9.1 L0 -6.25 -2.85 -9.1 Q-3.75 -10 -5 -10 -6.25 -10 -7.1 -9.1 -8 -8.25 -8 -7 -8 -5.75 -7.1 -4.85 M19 -2 Q19 -9.85 13.45 -15.4 7.85 -21 0 -21 -7.85 -21 -13.4 -15.4 -19 -9.85 -19 -2 -19 5.85 -13.4 11.45 -7.85 17 0 17 7.85 17 13.45 11.45 19 5.85 19 -2 M11.35 -13.25 Q16 -8.6 16 -2 16 4.6 11.35 9.35 6.6 14 0 14 -6.6 14 -11.25 9.35 -16 4.6 -16 -2 -16 -8.6 -11.3 -13.25 L-11.25 -13.3 Q-6.6 -18 0 -18 6.6 -18 11.35 -13.25 M-25 -2 Q-25 -12.35 -17.65 -19.65 -10.35 -27 0 -27 10.35 -27 17.7 -19.65 25 -12.35 25 -2 L25 -1.5 25 -1 25 -0.5 25 0 25 0.5 25 1 25 1.5 25 2 Q25 12.35 17.7 19.7 10.35 27 0 27 -10.35 27 -17.65 19.7 -25 12.35 -25 2 L-25 1.5 -25 1 -25 0.5 -25 0 -25 -0.5 -25 -1 -25 -1.5 -25 -2"/>
  </g>
</svg>