<svg xmlns="http://www.w3.org/2000/svg" xmlns:xlink="http://www.w3.org/1999/xlink">
  <defs/>
  <g>
    <path stroke="none" fill="#FFFFFF" d="M17.65 8.9 Q19.55 8 21.25 9.2 L21.25 9.15 Q23 10.25 23 12.3 23 14.6 21.15 16.15 15.15 21.3 7.1 24.25 0.3 26.7 -8.35 26.95 L-20.95 28 Q-24.4 28.3 -27.1 26.1 -29.7 23.85 -30 20.4 L-30.05 20.35 Q-30.35 16.9 -28.15 14.2 -25.85 11.55 -22.4 11.25 L-18.4 10.95 -13.75 7.2 Q-10.5 4.6 -6.15 4.25 L3.1 3.5 3.15 3.5 Q4.7 3.5 5.85 4.65 7 5.8 7 7.35 7 8.65 6.2 9.7 L6.2 9.75 Q5.4 10.75 4.2 11.1 L4.3 11.05 0.1 12.75 1.3 13.55 Q4.1 15.35 7.8 13.5 L17.65 8.9"/>
  </g>
</svg>