<svg xmlns="http://www.w3.org/2000/svg" xmlns:xlink="http://www.w3.org/1999/xlink">
  <defs/>
  <g>
    <path stroke="none" fill="#FFFFFF" d="M13.1 -26.5 L14.65 -26.2 14.6 -26.25 15.15 -26.1 15.1 -26.1 Q17.65 -25.4 19.5 -23.35 L19.5 -23.3 20.25 -22.4 20.4 -22.1 24.7 -15.7 Q26.7 -12.8 25.5 -11.25 L19.35 -0.75 Q18.7 1.2 14.9 0.95 L7.05 0.5 Q2.15 0.2 -0.6 -3.8 L-0.6 -3.85 -4.95 -10.3 -4.95 -10.35 Q-6.35 -12.65 -5.9 -14 L-5.85 -14.2 -5.8 -14.3 0.1 -24.6 0.65 -25.45 Q1.45 -27.15 4.9 -27 L12.7 -26.5 13.1 -26.5 M16.65 -19.65 L16 -20.45 Q15 -21.4 13.7 -21.85 L12.45 -22 5.3 -22.45 9.3 -16.65 Q10.75 -14.45 13.4 -14.3 L20.5 -13.85 16.65 -19.65 M17.65 8.9 Q19.55 8 21.25 9.2 L21.25 9.15 Q23 10.25 23 12.3 23 14.6 21.15 16.15 15.15 21.3 7.1 24.25 0.3 26.7 -8.35 26.95 L-20.95 28 Q-24.4 28.3 -27.1 26.1 -29.7 23.85 -30 20.4 L-30.05 20.35 Q-30.35 16.9 -28.15 14.2 -25.85 11.55 -22.4 11.25 L-18.4 10.95 -13.75 7.2 Q-10.5 4.6 -6.15 4.25 L3.1 3.5 3.15 3.5 Q4.7 3.5 5.85 4.65 7 5.8 7 7.35 7 8.65 6.2 9.7 L6.2 9.75 Q5.4 10.75 4.2 11.1 L4.3 11.05 0.1 12.75 1.3 13.55 Q4.1 15.35 7.8 13.5 L17.65 8.9"/>
  </g>
</svg>