<svg xmlns="http://www.w3.org/2000/svg" xmlns:xlink="http://www.w3.org/1999/xlink">
  <defs/>
  <g>
    <path stroke="none" fill="#FFFFFF" d="M0.85 -2.5 Q1.95 -2.95 3.05 -2.5 4.15 -2 4.65 -0.95 L8.95 8.6 Q9.45 9.75 9 10.9 8.55 12.05 7.4 12.55 L5.1 12.65 Q3.95 12.2 3.45 11.05 L2.75 9.55 Q-4.15 24.05 -18.85 24.35 -20.5 24.4 -21.75 23.25 -22.95 22.15 -23 20.5 -23.05 18.85 -21.95 17.6 -20.8 16.4 -19.15 16.35 -9.2 15.8 -4.4 5.85 L-6.45 6.65 -8.75 6.55 Q-9.85 6.05 -10.3 4.9 -10.75 3.75 -10.25 2.6 -9.7 1.5 -8.55 1.05 L0.85 -2.5 M12.1 12.15 L12.3 11.55 18.45 5.35 18.75 4.9 18.75 4.35 18.7 4.3 14.2 -12.5 14 -12.95 13.8 -13.15 13.75 -13.25 13.5 -13.3 -3.15 -17.8 -3.2 -17.8 -3.8 -17.8 -4.15 -17.6 -4.2 -17.5 -16.35 -5.3 -16.45 -5.25 -16.6 -4.9 -16.7 -4.55 -16.7 -4.25 -16.7 -4.2 -12.5 11.45 Q-15 13.05 -18.2 13.45 L-22.5 -2.65 Q-23.05 -4.65 -22.4 -6.45 L-22.35 -6.55 Q-21.9 -8.4 -20.55 -9.65 L-20.6 -9.55 -8.45 -21.75 -8.55 -21.7 Q-7.25 -23.1 -5.35 -23.6 L-5.2 -23.65 -1.55 -23.55 -1.6 -23.6 15.05 -19.1 Q16.9 -18.7 18.25 -17.2 19.45 -16 20 -14.1 L20 -14.05 24.5 2.75 24.5 2.7 Q25 4.45 24.6 6.35 L24.55 6.45 Q24.15 8.1 22.7 9.6 L10.6 21.85 10.7 21.7 Q9.3 23.25 7.3 23.75 L7.45 23.7 Q5.55 24.2 3.7 23.65 L-2.5 22 Q0.05 19.9 2.2 17 L5.3 17.85 5.45 17.9 5.8 17.95 5.95 17.9 6.2 17.75 6.35 17.6 8.15 15.75 8.95 15.45 Q11.2 14.45 12.1 12.15"/>
  </g>
</svg>