<svg xmlns="http://www.w3.org/2000/svg" xmlns:xlink="http://www.w3.org/1999/xlink">
  <defs/>
  <g>
    <path stroke="none" fill="#FFFFFF" d="M28.55 -14.1 L22.75 -5.95 Q22 -5 20.8 -4.7 19.55 -4.5 18.55 -5.25 17.55 -6 17.4 -7.2 17.15 -8.45 17.85 -9.4 L19.15 -11.2 Q8.3 -9.15 5.2 0.3 4.7 1.9 3.25 2.7 L0.2 2.95 Q-1.4 2.45 -2.15 1.05 -2.9 -0.45 -2.45 -2.05 1.65 -16.2 17.45 -19.05 L16.2 -20.15 Q15.15 -20.9 15.05 -22.2 14.95 -23.45 15.75 -24.35 16.5 -25.3 17.75 -25.45 19 -25.65 19.95 -24.85 L28.05 -18.2 Q28.95 -17.45 29.15 -16.25 29.3 -15.1 28.55 -14.1 M14.1 -7.45 Q14.6 -5.2 16.5 -3.8 L16.55 -3.85 Q17.7 -3 18.95 -2.75 L21.5 6.75 21.5 6.7 Q22 8.45 21.6 10.35 L21.55 10.45 Q21.15 12.1 19.7 13.6 L7.6 25.85 7.7 25.7 Q6.3 27.25 4.3 27.75 L4.45 27.7 Q2.55 28.2 0.7 27.65 L-16 23.1 Q-17.8 22.6 -19.05 21.4 L-19.1 21.35 Q-20.45 19.95 -20.95 18.2 L-21 18.15 -25.5 1.35 Q-26.05 -0.65 -25.4 -2.45 L-25.35 -2.55 Q-24.9 -4.4 -23.55 -5.65 L-23.6 -5.55 -11.45 -17.75 -11.55 -17.7 Q-10.25 -19.1 -8.35 -19.6 L-8.2 -19.65 -4.55 -19.55 -4.6 -19.6 3.25 -17.45 Q0.5 -15.35 -1.55 -12.55 L-6.15 -13.8 -6.2 -13.8 -6.8 -13.8 -7.15 -13.6 -7.2 -13.5 -19.35 -1.3 -19.45 -1.25 -19.6 -0.9 -19.7 -0.55 -19.7 -0.25 -19.7 -0.2 -15.2 16.6 -15.2 16.55 -14.95 17 -14.35 17.35 -14.4 17.3 2.3 21.85 2.45 21.9 2.8 21.95 2.95 21.9 3.2 21.75 3.35 21.6 15.45 9.35 15.75 8.9 15.75 8.35 15.7 8.3 11.9 -5.95 14.1 -7.45"/>
  </g>
</svg>