<svg xmlns="http://www.w3.org/2000/svg" xmlns:xlink="http://www.w3.org/1999/xlink">
  <defs/>
  <g>
    <path stroke="none" fill="#FFFFFF" d="M-10.9 -6 Q-10.9 -8.05 -12.3 -9.5 L-12.35 -9.55 Q-13.85 -11 -15.85 -11 L-15.9 -11 Q-17.95 -11 -19.4 -9.55 L-25.55 -3.45 Q-27 -2 -27 0.05 L-27 0.1 Q-27 2.1 -25.55 3.6 L-19.4 9.75 Q-17.95 11.15 -15.9 11.15 L-15.85 11.15 Q-13.85 11.15 -12.35 9.75 L-12.3 9.7 Q-10.9 8.2 -10.9 6.2 L-10.9 6.15 -10.9 6.05 -6 6.05 -6 6.65 -5.85 7.25 -5.45 7.6 -5.4 7.6 -2.5 9.3 -2.15 9.7 -2.1 9.75 Q-0.95 10.85 0.6 11.1 L5.85 14.15 5.85 14.2 6.1 14.35 9.5 16.35 9.55 16.4 10 16.5 10.45 16.4 10.55 16.3 25.45 7.6 25.5 7.6 25.85 7.3 26 6.65 26 -10.7 25.9 -11.15 25.8 -11.4 25.5 -11.65 25.45 -11.7 10.55 -20.35 10 -20.5 9.45 -20.35 9.5 -20.35 -2.55 -13.35 -2.8 -13.2 -5.45 -11.7 -5.8 -11.3 -5.9 -11.15 -6 -10.7 -6 -5.95 -10.9 -5.95 -10.9 -6 M-23.4 1.5 Q-24 0.9 -24 0.05 -24 -0.8 -23.4 -1.35 L-17.3 -7.4 Q-16.75 -8 -15.9 -8 -15.05 -8 -14.45 -7.4 -13.9 -6.85 -13.9 -6 -13.9 -5.15 -14.45 -4.55 L-16.1 -2.95 1.65 -2.95 0 -4.55 Q-0.6 -5.15 -0.6 -6 -0.6 -6.85 0 -7.4 0.55 -8 1.4 -8 2.25 -8 2.85 -7.4 L8.95 -1.35 Q9.5 -0.8 9.5 0.05 9.5 0.9 8.95 1.5 L2.85 7.6 Q2.25 8.15 1.4 8.15 0.55 8.15 0 7.6 -0.6 7 -0.6 6.15 -0.6 5.3 0 4.75 L1.65 3.05 -16.15 3.05 -14.45 4.75 Q-13.9 5.3 -13.9 6.15 -13.9 7 -14.45 7.6 -15.05 8.15 -15.9 8.15 -16.75 8.15 -17.3 7.6 L-23.4 1.5 M6.45 -25.5 L6.45 -25.55 Q8.1 -26.5 10 -26.5 11.9 -26.5 13.55 -25.55 L28.4 -16.9 28.45 -16.9 Q30.2 -15.9 31.1 -14.15 L31.15 -14.1 Q32 -12.6 32 -10.7 L32 6.65 Q32 8.5 31.1 10.2 30.2 11.8 28.5 12.8 L13.6 21.5 13.65 21.45 Q11.95 22.5 10 22.5 8.1 22.5 6.45 21.5 L6.35 21.45 4.3 20.25 -6.45 26.5 -6.35 26.45 Q-8.05 27.5 -10 27.5 -11.95 27.5 -13.65 26.45 L-13.55 26.5 -28.45 17.8 Q-30.05 16.85 -31 15.35 L-31.05 15.2 Q-32 13.5 -32 11.65 L-32 -5.7 Q-32 -7.65 -31.05 -9.2 L-31 -9.3 Q-30.05 -11 -28.45 -11.9 L-13.55 -20.55 Q-11.9 -21.5 -10 -21.5 -8.1 -21.5 -6.45 -20.55 L-4.25 -19.25 6.45 -25.5"/>
  </g>
</svg>