<svg xmlns="http://www.w3.org/2000/svg" xmlns:xlink="http://www.w3.org/1999/xlink">
  <defs/>
  <g>
    <path stroke="none" fill="#FFFFFF" d="M-16 -12.7 L-16 4.65 -15.85 5.25 -15.45 5.6 -15.4 5.6 -0.5 14.3 -0.45 14.4 0 14.5 0.45 14.4 0.55 14.3 15.45 5.6 15.5 5.6 15.85 5.3 16 4.65 16 -12.7 15.9 -13.15 15.8 -13.4 15.5 -13.65 15.45 -13.7 0.55 -22.35 0 -22.5 -0.55 -22.35 -0.5 -22.35 -15.4 -13.7 -15.45 -13.7 -15.8 -13.3 -15.9 -13.15 -16 -12.7 M-22 -12.7 Q-22 -14.65 -21.05 -16.2 L-21 -16.3 Q-20.05 -18 -18.45 -18.9 L-3.55 -27.55 Q-1.9 -28.5 0 -28.5 1.9 -28.5 3.55 -27.55 L18.4 -18.9 18.45 -18.9 Q20.2 -17.9 21.1 -16.15 L21.15 -16.1 Q22 -14.6 22 -12.7 L22 4.8 22 4.95 22 13.65 Q22 15.5 21.1 17.2 20.2 18.8 18.5 19.8 L3.6 28.5 3.65 28.45 Q1.95 29.5 0 29.5 -1.95 29.5 -3.65 28.45 L-3.55 28.5 -18.45 19.8 Q-20.05 18.85 -21 17.35 L-21.05 17.2 Q-22 15.5 -22 13.65 L-22 4.95 -22 4.8 -22 -12.7"/>
  </g>
</svg>