<svg xmlns="http://www.w3.org/2000/svg" xmlns:xlink="http://www.w3.org/1999/xlink">
  <defs/>
  <g>
    <path stroke="none" fill="#FFFFFF" d="M-11.8 -0.65 Q-17.65 -7.6 -18 -18 -18 -18.45 -18.3 -18.7 -18.6 -19 -19 -19 L-20.1 -19 -20.7 -19.25 -21 -20 -21 -26 -20.7 -26.65 -20.65 -26.7 -20 -27 20 -27 20.75 -26.7 21 -26 21 -20 20.8 -19.25 20.75 -19.2 20.1 -19 19 -19 Q18.6 -19 18.3 -18.7 18 -18.45 18 -18 17.65 -7.6 11.85 -0.65 L11.6 0 11.85 0.65 Q17.65 7.6 18 18.05 18 18.45 18.3 18.75 L19 19 20.1 19 20.75 19.3 21 20 21 26 20.8 26.75 20.75 26.8 20 27 -20 27 -20.7 26.75 -21 26 -21 20 -20.7 19.35 -20.65 19.3 Q-20.45 19 -20.1 19 L-19 19 -18.3 18.75 Q-18 18.45 -18 18.05 -17.65 7.6 -11.8 0.65 L-11.6 0 -11.8 -0.65 M4.15 -0.8 Q4.35 -1.65 5 -2.15 L5.2 -2.4 Q11.6 -8.3 12 -17.95 L11.9 -18.45 11.5 -18.85 11 -19 -10.95 -19 -11.45 -18.85 -11.8 -18.45 -11.95 -17.95 Q-11.6 -8.2 -5.05 -2.3 L-5 -2.25 -4.95 -2.2 Q-4.35 -1.65 -4.1 -0.8 L-4 0 -4.1 0.85 -4.15 1.05 -4.8 2.1 -5 2.25 Q-11.6 8.15 -11.95 18 L-11.8 18.5 -11.45 18.85 -10.95 19 11 19 11.5 18.85 11.9 18.5 12 17.95 Q11.6 8.15 5.05 2.25 4.4 1.7 4.15 1.05 L4.15 0.85 4 0 Q4 -0.4 4.15 -0.8 M-4 -10 L4 -10 Q4.85 -10 5.45 -9.4 6 -8.85 6 -8 6 -7.15 5.45 -6.55 L1.45 -2.55 Q0.85 -2 0 -2 -0.85 -2 -1.4 -2.55 L-5.4 -6.55 Q-6 -7.15 -6 -8 -6 -8.85 -5.4 -9.4 -4.85 -10 -4 -10 M-8.6 16 Q-7.6 9.85 -3.6 5.7 L-3.25 5.4 Q-2.2 4.3 -1.65 3 L1.65 3 Q2.2 4.3 3.3 5.4 L3.35 5.4 3.35 5.45 Q7.6 9.6 8.65 16 L-8.6 16"/>
  </g>
</svg>