<svg xmlns="http://www.w3.org/2000/svg" xmlns:xlink="http://www.w3.org/1999/xlink">
  <defs/>
  <g>
    <path stroke="none" fill="#FFFFFF" d="M-8 -10 L-8 -6 8 -6 8 -10 Q8 -13.3 5.65 -15.65 3.3 -18 0 -18 -3.3 -18 -5.65 -15.7 L-5.7 -15.65 Q-8 -13.3 -8 -10 M16 -6 Q20 -6 20 -2 L20 22 Q20 23.95 19.05 24.95 18.05 26 16 26 L-16 26 Q-18.05 26 -19.05 24.95 -20 23.95 -20 22 L-20 -2 Q-20 -6 -16 -6 L-16 -10 Q-16 -16.6 -11.35 -21.3 L-11.3 -21.35 Q-6.6 -26 0 -26 6.6 -26 11.3 -21.3 16 -16.6 16 -10 L16 -6 M0 2 Q-2.05 2 -3.5 3.45 L-3.55 3.5 Q-5 4.95 -5 7 -5 9.05 -3.55 10.5 L-2.45 11.35 -2.1 11.75 -2 12.2 -2 15.75 Q-2 16.55 -1.4 17.15 -0.8 17.75 0 17.75 0.8 17.75 1.4 17.15 2 16.55 2 15.75 L2 12.2 2.15 11.75 2.5 11.35 3.5 10.55 3.55 10.5 Q5 9.05 5 7 5 4.95 3.5 3.45 2.05 2 0 2"/>
  </g>
</svg>