<svg xmlns="http://www.w3.org/2000/svg" xmlns:xlink="http://www.w3.org/1999/xlink">
  <defs/>
  <g>
    <path stroke="none" fill="#FFFFFF" d="M-16.25 -7 L-16 -6.95 -16 -14 Q-16 -20.4 -11.6 -25 L-11.35 -25.35 -11 -25.6 Q-6.4 -30 0 -30 6.6 -30 11.3 -25.35 L11.3 -25.3 Q16 -20.6 16 -14 L16 -13 Q16 -12.15 15.45 -11.55 14.85 -11 14 -11 L10 -11 Q9.15 -11 8.6 -11.55 8 -12.15 8 -13 L8 -14 Q8 -17.3 5.65 -19.65 L5.6 -19.65 Q3.3 -22 0 -22 -3.3 -22 -5.65 -19.65 -8 -17.3 -8 -14 L-8 -6 15.5 -3.25 Q19.5 -2.8 19.05 1.15 L16.2 25 Q15.75 29 11.75 28.55 L-20 24.8 Q-24 24.3 -23.55 20.3 L-20.7 -3.55 Q-20.25 -7.5 -16.25 -7 M-1.25 2.8 Q-3.3 2.55 -4.95 3.85 -6.65 5.15 -6.85 7.2 L-6.85 7.25 Q-7.1 9.2 -5.8 10.85 L-4.85 11.85 -4.55 12.25 -4.5 12.75 -4.9 16.25 Q-5 17 -4.45 17.7 -3.95 18.35 -3.1 18.45 -2.4 18.55 -1.7 18.05 -1.05 17.5 -0.95 16.7 L-0.55 13.2 -0.35 12.7 0.05 12.4 1.2 11.7 1.25 11.7 Q2.85 10.4 3.1 8.4 3.3 6.35 2 4.7 L2.05 4.7 Q0.75 3.05 -1.25 2.8"/>
  </g>
</svg>