<svg xmlns="http://www.w3.org/2000/svg" xmlns:xlink="http://www.w3.org/1999/xlink">
  <defs/>
  <g>
    <path stroke="none" fill="#FFFFFF" d="M-18 -25 L4 -25 Q6.5 -25 7.95 -23.95 10 -22.5 10 -19 L10 -2.9 Q8.75 -2.45 8.1 -1.25 L-1.8 15.95 Q-2.75 17.15 -2.35 19 L-2.3 19.15 -1.8 21 -18 21 Q-24 21 -24 15 L-24 -19 Q-24 -25 -18 -25 M19 3.9 L19.45 4.5 19.35 5.25 9.35 22.6 Q9.15 22.9 8.75 23.05 L3.3 24.5 2.55 24.4 Q2.2 24.2 2.1 23.8 L0.6 18.35 Q0.5 17.9 0.7 17.6 L10.7 0.25 11.3 -0.2 12.05 -0.1 19 3.9 M14.05 -2.85 L13.6 -3.45 Q13.5 -3.85 13.7 -4.2 L17.7 -11.15 18.3 -11.6 19.05 -11.5 26 -7.5 26.45 -6.9 26.35 -6.15 22.35 0.8 21.75 1.25 21 1.15 14.05 -2.85"/>
  </g>
</svg>