<svg xmlns="http://www.w3.org/2000/svg" xmlns:xlink="http://www.w3.org/1999/xlink">
  <defs/>
  <g>
    <path stroke="none" fill="#FFFFFF" d="M-11.95 -17.85 L-18.9 -13.85 -19.65 -13.75 -20.25 -14.2 -24.25 -21.15 -24.35 -21.9 -23.9 -22.5 -16.95 -26.5 -16.2 -26.6 -15.6 -26.15 -11.6 -19.2 Q-11.4 -18.85 -11.5 -18.45 -11.65 -18.05 -11.95 -17.85 M-16.9 -11.1 L-9.95 -15.1 -9.2 -15.2 -8.6 -14.75 1.4 2.6 1.5 3.35 0 8.8 -0.45 9.4 -1.2 9.5 -6.65 8.05 -7.25 7.6 -17.25 -9.75 -17.35 -10.5 -16.9 -11.1 M3.9 0.95 L-1.65 -8.65 -1.6 -8.7 Q4.8 -12.7 11.15 -8.75 L26.65 1 Q30.85 3.6 30.45 6.55 30.85 9.4 26.65 12.05 L1.6 27.75 Q-4.75 31.7 -11.1 27.75 L-11.15 27.75 -26.6 18 -26.55 18 Q-30.8 15.4 -30.4 12.5 -30.8 9.6 -26.55 7 L-26.6 7 -15.2 -0.15 -9.85 9.1 -9.75 9.3 Q-9.1 10.35 -7.7 10.85 L-7.4 10.95 -1.95 12.4 -1.9 12.4 Q-0.35 12.8 1.05 12 2.5 11.2 2.9 9.55 L2.9 9.6 4.4 4.15 4.45 4 Q4.85 2.15 3.9 0.95"/>
  </g>
</svg>