<svg xmlns="http://www.w3.org/2000/svg" xmlns:xlink="http://www.w3.org/1999/xlink">
  <defs/>
  <g>
    <path stroke="none" fill="#FFFFFF" d="M22 -13.1 Q22 -7.75 18.1 -4 L17.45 -3.35 18.25 -1.8 Q21.95 6.45 22 18.2 L22 18.35 Q22 21.5 18.25 23.75 14.45 26 9 26 3.65 26 -0.15 23.75 -2.05 22.65 -3 21.35 L-3 15.3 Q-1.65 15.95 0 15.95 2.9 15.95 4.95 13.9 7 11.85 7 8.95 7 6.05 4.95 4 L-0.35 -1.3 -0.15 -1.8 0.6 -3.3 -0.15 -4 Q-4 -7.75 -4 -13.1 -4 -18.5 -0.15 -22.25 3.65 -26 9 -26 14.35 -26 18.1 -22.25 22 -18.5 22 -13.1 M2.85 6.15 Q4 7.3 4 8.95 4 10.6 2.85 11.8 1.65 12.95 0 12.95 -1.65 12.95 -2.8 11.8 L-6 8.6 -6 24 Q-6 26.05 -7.45 27.55 -8.95 29 -11 29 -13.05 29 -14.5 27.55 -16 26.05 -16 24 L-16 8.6 -19.15 11.8 Q-20.35 12.95 -22 12.95 -23.65 12.95 -24.8 11.8 -26 10.6 -26 8.95 -26 7.3 -24.8 6.15 L-13.8 -4.85 Q-12.65 -6.05 -11 -6.05 -9.35 -6.05 -8.15 -4.85 L2.85 6.15"/>
  </g>
</svg>