<svg xmlns="http://www.w3.org/2000/svg" xmlns:xlink="http://www.w3.org/1999/xlink">
  <defs/>
  <g>
    <path stroke="none" fill="#FFFFFF" d="M7.65 -6.85 L9.65 -3.4 Q10.1 -2.65 9.9 -1.85 9.65 -1.05 8.9 -0.65 L2 3.35 6.05 10.3 Q7.35 9.6 8.6 8.85 9.3 8.4 10.15 8.6 10.85 8.85 11.25 9.55 L12.3 11.3 Q12.7 12.05 12.55 12.8 12.3 13.6 11.6 14.05 L-0.55 21.05 -2.05 21.25 Q-2.85 21.05 -3.25 20.3 L-4.3 18.55 Q-4.7 17.85 -4.45 17.05 -4.25 16.25 -3.55 15.85 L-0.9 14.3 -4.95 7.35 -11.85 11.35 -13.35 11.55 Q-14.15 11.35 -14.6 10.6 L-16.6 7.15 Q-17 6.4 -16.8 5.6 -16.6 4.85 -15.85 4.4 L4.9 -7.6 6.45 -7.8 Q7.25 -7.6 7.65 -6.85 M30 -12.05 Q30 -8.75 27.6 -6.45 L27.2 -6.05 27.7 -5.1 Q29.95 0 30 7.2 L30 7.3 Q30 9.25 27.7 10.6 25.35 12 22 12 18.7 12 16.35 10.6 14 9.25 14 7.3 L14 7.2 Q14.05 0 16.35 -5.1 L16.85 -6 16.35 -6.45 Q14 -8.75 14 -12.05 14 -15.4 16.35 -17.7 18.7 -20 22 -20 25.3 -20 27.6 -17.7 30 -15.4 30 -12.05 M-13.35 -9 Q-11.7 -9.25 -10.4 -8.2 -9.1 -7.2 -8.85 -5.55 -8.65 -3.9 -9.65 -2.6 -10.7 -1.3 -12.35 -1.05 -17.7 0 -21.75 7.9 L-21.1 7.75 Q-20.3 7.55 -19.6 8 -18.9 8.45 -18.7 9.25 -18.5 10.05 -18.95 10.75 -19.4 11.45 -20.2 11.65 L-27.8 13.45 -28.9 13.4 -29.8 12.75 -30.2 11.75 -30.4 10.3 -30.65 8.45 -31.4 2.1 Q-31.55 1.35 -31.05 0.7 L-31 0.65 Q-30.5 -0.05 -29.7 -0.1 -28.9 -0.25 -28.2 0.3 -27.55 0.8 -27.45 1.6 L-27.45 1.65 Q-21.55 -8.35 -13.35 -9"/>
  </g>
</svg>