<svg xmlns="http://www.w3.org/2000/svg" xmlns:xlink="http://www.w3.org/1999/xlink">
  <defs/>
  <g>
    <path stroke="none" fill="#FFFFFF" d="M24 -8.05 Q24 -4.75 21.6 -2.45 L21.2 -2.05 21.7 -1.1 Q23.95 4 24 11.2 L24 11.3 Q24 13.25 21.7 14.6 19.35 16 16 16 L12.45 15.55 12.5 15.5 Q13.9 14 13.9 11.95 L13.9 11.9 Q13.9 9.85 12.4 8.4 L8.6 4.7 Q9.15 1.5 10.35 -1.1 L10.85 -2 10.35 -2.45 Q8 -4.75 8 -8.05 8 -11.4 10.35 -13.7 12.7 -16 16 -16 19.3 -16 21.6 -13.7 24 -11.4 24 -8.05 M-8.45 14.95 L-10.1 14.5 -10.55 14.1 Q-11.45 13.2 -11.45 11.95 -11.45 10.7 -10.55 9.85 -9.7 8.95 -8.45 8.95 L2.95 8.95 1.35 7.4 Q0.75 6.8 0.75 6 0.75 5.15 1.35 4.55 1.9 3.95 2.75 3.95 3.55 3.95 4.15 4.55 L10.3 10.55 Q10.9 11.1 10.9 11.95 10.9 12.75 10.35 13.4 L4.2 19.45 Q3.6 20 2.75 20 1.9 20 1.35 19.45 0.75 18.85 0.75 18 0.75 17.15 1.35 16.6 L3 14.95 -8.45 14.95 M-8 -8.05 Q-8 -4.75 -10.4 -2.45 L-10.8 -2.05 -10.3 -1.1 Q-8.9 2.05 -8.35 5.95 L-8.45 5.95 Q-10.95 5.95 -12.7 7.7 -14.45 9.45 -14.45 11.95 -14.45 14.1 -13.15 15.7 L-16 16 Q-19.3 16 -21.65 14.6 -24 13.25 -24 11.3 L-24 11.2 Q-23.95 4 -21.65 -1.1 L-21.15 -2 -21.65 -2.45 Q-24 -4.75 -24 -8.05 -24 -11.4 -21.65 -13.7 -19.3 -16 -16 -16 -12.7 -16 -10.4 -13.7 -8 -11.4 -8 -8.05"/>
  </g>
</svg>