<svg xmlns="http://www.w3.org/2000/svg" xmlns:xlink="http://www.w3.org/1999/xlink">
  <defs/>
  <g>
    <path stroke="none" fill="#FFFFFF" d="M25 -16.05 Q25 -12.75 22.6 -10.45 L22.2 -10.05 22.7 -9.1 Q24.95 -4 25 3.2 L25 3.3 Q25 5.25 22.7 6.6 20.35 8 17 8 L15.7 7.95 16.65 6.6 16.7 6.55 Q17.25 5.3 17.1 3.85 17 2.45 16.05 1.3 L15.35 0.4 Q14.75 -0.75 13.8 -1.55 L10.25 -6.15 11.35 -9.1 11.85 -10 11.35 -10.45 Q9 -12.75 9 -16.05 9 -19.4 11.35 -21.7 13.7 -24 17 -24 20.3 -24 22.6 -21.7 25 -19.4 25 -16.05 M-6.75 8.95 L-5.25 8.7 Q-4.45 8.9 -4 9.6 -3.55 10.3 -3.75 11.1 -3.95 11.9 -4.65 12.35 L-5.25 12.75 Q3.25 15.4 7.8 12.4 9.15 11.35 10.8 11.6 12.4 11.8 13.45 13.15 14.45 14.45 14.25 16.1 14 17.7 12.7 18.75 6.45 24 -4.75 21.2 -4.25 21.85 -4.35 22.65 -4.45 23.45 -5.1 24 -5.8 24.5 -6.6 24.4 -7.4 24.3 -7.9 23.65 L-11.7 18.8 Q-12.6 18.15 -13.05 17.1 L-13.1 16.95 -13.85 16 -14.3 14.95 -14.1 13.9 -13.35 13.05 -6.75 8.95 M6.45 10.35 L4.95 10.6 Q4.15 10.4 3.7 9.7 3.25 9 3.45 8.2 3.65 7.4 4.35 6.95 L4.95 6.6 Q-3.55 3.9 -8.1 6.95 -9.45 7.95 -11.05 7.75 -12.7 7.5 -13.7 6.2 -14.75 4.85 -14.5 3.25 -14.3 1.6 -13 0.6 -6.75 -4.7 4.45 -1.9 3.95 -2.55 4.1 -3.35 4.15 -4.15 4.85 -4.65 5.5 -5.2 6.3 -5.05 7.1 -4.95 7.65 -4.3 L11.4 0.55 Q12.3 1.15 12.75 2.2 L12.8 2.35 13.6 3.35 14 4.35 13.8 5.45 13.05 6.25 6.45 10.35 M-9 -16.05 Q-9 -12.75 -11.4 -10.45 L-11.8 -10.05 -11.3 -9.1 Q-10.4 -7.1 -9.85 -4.8 -12.65 -3.75 -14.85 -1.8 L-14.75 -1.95 Q-17 -0.15 -17.4 2.65 L-17.45 2.7 Q-17.7 5.6 -16 7.85 L-15.95 7.9 -15.9 7.95 -17 8 Q-20.3 8 -22.65 6.6 -25 5.25 -25 3.3 L-25 3.2 Q-24.95 -4 -22.65 -9.1 L-22.15 -10 -22.65 -10.45 Q-25 -12.75 -25 -16.05 -25 -19.4 -22.65 -21.7 -20.3 -24 -17 -24 -13.7 -24 -11.4 -21.7 -9 -19.4 -9 -16.05"/>
  </g>
</svg>