<svg xmlns="http://www.w3.org/2000/svg" xmlns:xlink="http://www.w3.org/1999/xlink">
  <defs/>
  <g>
    <path stroke="none" fill="#FFFFFF" d="M28 -8.05 Q28 -4.75 25.6 -2.45 L25.2 -2.05 25.7 -1.1 Q27.95 4 28 11.2 L28 11.3 Q28 13.25 25.7 14.6 23.35 16 20 16 L16.5 15.55 18.55 13.5 Q20 12 20 10 L20 9.95 Q20 7.9 18.55 6.5 L13.4 1.45 Q13.8 0.1 14.35 -1.1 L14.85 -2 14.35 -2.45 Q12 -4.75 12 -8.05 12 -11.4 14.35 -13.7 16.7 -16 20 -16 23.3 -16 25.6 -13.7 28 -11.4 28 -8.05 M10.2 17.45 Q9.6 18 8.75 18 7.9 18 7.35 17.45 6.75 16.85 6.75 16 6.75 15.15 7.35 14.6 L9 12.95 -9.05 12.95 -7.4 14.6 Q-6.8 15.15 -6.8 16 -6.8 16.8 -7.35 17.4 -7.95 18 -8.75 18 -9.6 18 -10.2 17.45 L-16.35 11.4 Q-16.95 10.8 -16.95 9.95 -16.95 9.1 -16.35 8.55 L-10.2 2.55 Q-9.6 1.95 -8.75 1.95 -7.95 1.95 -7.35 2.55 -6.8 3.15 -6.8 4 -6.8 4.8 -7.4 5.4 L-9 6.95 8.95 6.95 7.35 5.4 Q6.75 4.8 6.75 4 6.75 3.15 7.35 2.55 7.9 1.95 8.75 1.95 9.55 1.95 10.15 2.55 L16.3 8.55 Q16.9 9.1 16.9 9.95 16.9 10.75 16.35 11.4 L10.2 17.45 M-12 -8.05 Q-12 -4.75 -14.4 -2.45 L-14.8 -2.05 -14.3 -1.1 Q-13.75 0.1 -13.35 1.4 L-18.55 6.5 Q-20 7.9 -20 9.95 L-20 10 Q-20 12 -18.55 13.5 L-16.45 15.55 -20 16 Q-23.3 16 -25.65 14.6 -28 13.25 -28 11.3 L-28 11.2 Q-27.95 4 -25.65 -1.1 L-25.15 -2 -25.65 -2.45 Q-28 -4.75 -28 -8.05 -28 -11.4 -25.65 -13.7 -23.3 -16 -20 -16 -16.7 -16 -14.4 -13.7 -12 -11.4 -12 -8.05"/>
  </g>
</svg>