<svg xmlns="http://www.w3.org/2000/svg" xmlns:xlink="http://www.w3.org/1999/xlink">
  <defs/>
  <g>
    <path stroke="none" fill="#FFFFFF" d="M14 -0.05 L14 3.95 Q14 4.8 13.45 5.4 12.85 5.95 12 5.95 L4 5.95 4 14 6.95 14 Q7.8 14 8.4 14.6 8.95 15.15 8.95 15.95 L8.95 18 Q8.95 18.85 8.4 19.45 7.8 20 6.95 20 L-7.05 20 Q-7.9 20 -8.45 19.45 -9.05 18.85 -9.05 18 L-9.05 15.95 Q-9.05 15.15 -8.45 14.6 -7.9 14 -7.05 14 L-4 14 -4 5.95 -12 5.95 Q-12.85 5.95 -13.4 5.4 -14 4.8 -14 3.95 L-14 -0.05 Q-14 -0.9 -13.4 -1.45 -12.85 -2.05 -12 -2.05 L12 -2.05 Q12.85 -2.05 13.45 -1.45 14 -0.9 14 -0.05 M32 -8.05 Q32 -4.75 29.6 -2.45 L29.2 -2.05 29.7 -1.1 Q31.95 4 32 11.2 L32 11.3 Q32 13.25 29.7 14.6 27.35 16 24 16 20.7 16 18.35 14.6 16 13.25 16 11.3 L16 11.2 Q16.05 4 18.35 -1.1 L18.85 -2 18.35 -2.45 Q16 -4.75 16 -8.05 16 -11.4 18.35 -13.7 20.7 -16 24 -16 27.3 -16 29.6 -13.7 32 -11.4 32 -8.05 M-16 -8.05 Q-16 -4.75 -18.4 -2.45 L-18.8 -2.05 -18.3 -1.1 Q-16.05 4 -16 11.2 L-16 11.3 Q-16 13.25 -18.3 14.6 -20.65 16 -24 16 -27.3 16 -29.65 14.6 -32 13.25 -32 11.3 L-32 11.2 Q-31.95 4 -29.65 -1.1 L-29.15 -2 -29.65 -2.45 Q-32 -4.75 -32 -8.05 -32 -11.4 -29.65 -13.7 -27.3 -16 -24 -16 -20.7 -16 -18.4 -13.7 -16 -11.4 -16 -8.05"/>
  </g>
</svg>