<svg xmlns="http://www.w3.org/2000/svg" xmlns:xlink="http://www.w3.org/1999/xlink">
  <defs/>
  <g>
    <path stroke="none" fill="#FFFFFF" d="M25 -16.05 Q25 -12.75 22.6 -10.45 L22.2 -10.05 22.7 -9.1 Q24.95 -4 25 3.2 L25 3.3 Q25 5.25 22.7 6.6 20.35 8 17 8 L15.65 7.95 15.7 7.85 Q17.4 5.6 17.15 2.7 L17.1 2.65 Q16.7 -0.15 14.45 -1.95 L14.55 -1.8 Q12.45 -3.65 9.9 -4.65 10.45 -7.05 11.35 -9.1 L11.85 -10 11.35 -10.45 Q9 -12.75 9 -16.05 9 -19.4 11.35 -21.7 13.7 -24 17 -24 20.3 -24 22.6 -21.7 25 -19.4 25 -16.05 M-13 18.75 Q-14.3 17.7 -14.5 16.1 -14.75 14.45 -13.7 13.15 -12.7 11.8 -11.05 11.6 -9.45 11.35 -8.1 12.4 -3.55 15.4 4.95 12.75 L4.35 12.35 Q3.65 11.9 3.45 11.1 3.25 10.3 3.7 9.6 4.15 8.9 4.95 8.7 L6.45 8.95 13.05 13.05 13.8 13.9 14 15 13.6 16 12.8 17.05 12.75 17.1 Q12.3 18.15 11.45 18.75 L7.65 23.65 Q7.1 24.3 6.3 24.4 5.45 24.5 4.8 24 4.15 23.45 4.1 22.65 3.95 21.85 4.45 21.2 -6.75 24 -13 18.75 M12.7 0.6 Q14 1.6 14.25 3.25 14.45 4.85 13.45 6.2 12.4 7.5 10.8 7.75 9.15 7.95 7.8 6.95 3.25 3.9 -5.25 6.6 L-4.65 6.95 Q-3.95 7.4 -3.75 8.2 -3.55 9 -4 9.7 -4.45 10.4 -5.25 10.6 L-6.75 10.35 -13.35 6.25 -14.1 5.45 -14.3 4.35 Q-14.25 3.8 -13.85 3.35 L-13.1 2.35 -13.05 2.2 Q-12.6 1.15 -11.7 0.55 L-7.9 -4.3 Q-7.45 -4.95 -6.6 -5.05 -5.8 -5.2 -5.15 -4.65 -4.5 -4.2 -4.35 -3.35 -4.25 -2.55 -4.7 -1.9 6.45 -4.7 12.7 0.6 M-9 -16.05 Q-9 -12.75 -11.4 -10.45 L-11.8 -10.05 -11.3 -9.1 -10.3 -6.45 -10.45 -6.3 -14.1 -1.55 -15.65 0.4 -16.35 1.3 Q-17.3 2.45 -17.4 3.85 -17.55 5.3 -17 6.55 L-16.95 6.6 -15.95 8 -17 8 Q-20.3 8 -22.65 6.6 -25 5.25 -25 3.3 L-25 3.2 Q-24.95 -4 -22.65 -9.1 L-22.15 -10 -22.65 -10.45 Q-25 -12.75 -25 -16.05 -25 -19.4 -22.65 -21.7 -20.3 -24 -17 -24 -13.7 -24 -11.4 -21.7 -9 -19.4 -9 -16.05"/>
  </g>
</svg>