<svg xmlns="http://www.w3.org/2000/svg" xmlns:xlink="http://www.w3.org/1999/xlink">
  <defs/>
  <g>
    <path stroke="none" fill="#FFFFFF" d="M24 -8.05 Q24 -4.75 21.6 -2.45 L21.2 -2.05 21.7 -1.1 Q23.95 4 24 11.2 L24 11.3 Q24 13.25 21.7 14.6 19.35 16 16 16 L12.65 15.6 Q13.85 14 13.85 11.95 13.85 9.45 12.1 7.7 10.55 6.15 8.4 6 8.95 2.05 10.35 -1.1 L10.85 -2 10.35 -2.45 Q8 -4.75 8 -8.05 8 -11.4 10.35 -13.7 12.7 -16 16 -16 19.3 -16 21.6 -13.7 24 -11.4 24 -8.05 M-10.9 13.4 Q-11.5 12.8 -11.5 11.95 -11.5 11.1 -10.9 10.55 L-4.75 4.55 Q-4.15 3.95 -3.3 3.95 -2.5 3.95 -1.9 4.55 -1.35 5.15 -1.35 6 -1.35 6.8 -1.95 7.4 L-3.55 8.95 7.85 8.95 Q9.1 8.95 10 9.85 10.85 10.7 10.85 11.95 10.85 13.2 10 14.1 9.1 14.95 7.85 14.95 L-3.6 14.95 -1.95 16.6 Q-1.35 17.15 -1.35 18 -1.35 18.8 -1.9 19.4 -2.5 20 -3.3 20 -4.15 20 -4.75 19.45 L-10.9 13.4 M-8 -8.05 Q-8 -4.75 -10.4 -2.45 L-10.8 -2.05 -10.3 -1.1 Q-9.25 1.3 -8.65 4.2 L-13 8.4 Q-14.5 9.85 -14.5 11.9 L-14.5 11.95 Q-14.5 14 -13.1 15.5 L-13.05 15.55 -12.95 15.65 -16 16 Q-19.3 16 -21.65 14.6 -24 13.25 -24 11.3 L-24 11.2 Q-23.95 4 -21.65 -1.1 L-21.15 -2 -21.65 -2.45 Q-24 -4.75 -24 -8.05 -24 -11.4 -21.65 -13.7 -19.3 -16 -16 -16 -12.7 -16 -10.4 -13.7 -8 -11.4 -8 -8.05"/>
  </g>
</svg>