<svg xmlns="http://www.w3.org/2000/svg" xmlns:xlink="http://www.w3.org/1999/xlink">
  <defs/>
  <g>
    <path stroke="none" fill="#FFFFFF" d="M13 -13.1 Q13 -7.75 9.1 -4 L8.45 -3.35 9.25 -1.8 Q12.95 6.45 13 18.2 L13 18.35 Q13 21.5 9.25 23.75 5.45 26 0 26 -5.35 26 -9.15 23.75 -13 21.5 -13 18.35 L-13 18.2 Q-12.95 6.45 -9.15 -1.8 L-8.4 -3.3 -9.15 -4 Q-13 -7.75 -13 -13.1 -13 -18.5 -9.15 -22.25 -5.35 -26 0 -26 5.35 -26 9.1 -22.25 13 -18.5 13 -13.1 M32 -6.05 Q32 -2.75 29.6 -0.45 L29.2 -0.05 29.7 0.9 Q31.95 6 32 13.2 L32 13.3 Q32 15.25 29.7 16.6 27.35 18 24 18 20.7 18 18.35 16.6 16 15.25 16 13.3 L16 13.2 Q16.05 6 18.35 0.9 L18.85 0 18.35 -0.45 Q16 -2.75 16 -6.05 16 -9.4 18.35 -11.7 20.7 -14 24 -14 27.3 -14 29.6 -11.7 32 -9.4 32 -6.05 M-16 -6.05 Q-16 -2.75 -18.4 -0.45 L-18.8 -0.05 -18.3 0.9 Q-16.05 6 -16 13.2 L-16 13.3 Q-16 15.25 -18.3 16.6 -20.65 18 -24 18 -27.3 18 -29.65 16.6 -32 15.25 -32 13.3 L-32 13.2 Q-31.95 6 -29.65 0.9 L-29.15 0 -29.65 -0.45 Q-32 -2.75 -32 -6.05 -32 -9.4 -29.65 -11.7 -27.3 -14 -24 -14 -20.7 -14 -18.4 -11.7 -16 -9.4 -16 -6.05"/>
  </g>
</svg>