<svg xmlns="http://www.w3.org/2000/svg" xmlns:xlink="http://www.w3.org/1999/xlink">
  <defs/>
  <g>
    <path stroke="none" fill="#FFFFFF" d="M22 -13.1 Q22 -7.75 18.1 -4 L17.45 -3.35 18.25 -1.8 Q21.95 6.45 22 18.2 L22 18.35 Q22 21.5 18.25 23.75 14.45 26 9 26 3.65 26 -0.15 23.75 L-0.55 23.5 3.95 19 Q6 16.95 6 14.05 6 11.15 3.95 9.1 1.9 7.05 -1 7.05 L-3 7.35 Q-2.05 2.3 -0.15 -1.8 L0.6 -3.3 -0.15 -4 Q-4 -7.75 -4 -13.1 -4 -18.5 -0.15 -22.25 3.65 -26 9 -26 14.35 -26 18.1 -22.25 22 -18.5 22 -13.1 M-9.15 27.9 Q-10.35 29.05 -12 29.05 -13.65 29.05 -14.8 27.9 L-25.8 16.9 Q-27 15.7 -27 14.05 -27 12.4 -25.8 11.25 -24.65 10.05 -23 10.05 -21.35 10.05 -20.15 11.25 L-17 14.4 -17 -1 Q-17 -3.05 -15.5 -4.5 -14.05 -6 -12 -6 -9.95 -6 -8.45 -4.5 -7 -3.05 -7 -1 L-7 14.4 -3.8 11.25 Q-2.65 10.05 -1 10.05 0.65 10.05 1.85 11.25 3 12.4 3 14.05 3 15.7 1.85 16.9 L-9.15 27.9"/>
  </g>
</svg>