<svg xmlns="http://www.w3.org/2000/svg" xmlns:xlink="http://www.w3.org/1999/xlink">
  <defs/>
  <g>
    <path stroke="none" fill="#FFFFFF" d="M-19.35 -13.05 L-19.3 -13.15 Q-14.5 -21.45 -5.3 -23.9 L-5.25 -23.9 Q3.9 -26.35 12.1 -21.55 L12.15 -21.55 Q16.1 -19.25 18.75 -15.95 L19.05 -18.3 Q19.2 -19.55 20.2 -20.3 21.15 -21.1 22.4 -20.9 23.6 -20.75 24.4 -19.75 25.15 -18.8 25 -17.55 L23.75 -7.4 Q23.6 -6.3 22.75 -5.55 21.85 -4.8 20.75 -4.8 L10.6 -4.8 Q9.35 -4.8 8.5 -5.65 7.6 -6.55 7.6 -7.8 7.6 -9.05 8.5 -9.9 9.35 -10.8 10.6 -10.8 L12.65 -10.8 Q10.85 -13.05 8.15 -14.6 L8.1 -14.65 Q2.75 -17.75 -3.2 -16.15 L-3.2 -16.2 Q-9.2 -14.55 -12.4 -9.1 L-13.7 -5.95 Q-14.15 -4.35 -15.6 -3.55 -17.05 -2.75 -18.65 -3.2 -20.25 -3.65 -21.05 -5.1 -21.85 -6.55 -21.4 -8.15 -20.7 -10.65 -19.35 -13.05 M8 0.95 Q8 4.25 5.6 6.55 L5.2 6.95 5.7 7.9 Q7.95 13 8 20.2 L8 20.3 Q8 22.25 5.7 23.6 3.35 25 0 25 -3.3 25 -5.65 23.6 -8 22.25 -8 20.3 L-8 20.2 Q-7.95 13 -5.65 7.9 L-5.15 7 -5.65 6.55 Q-8 4.25 -8 0.95 -8 -2.4 -5.65 -4.7 -3.3 -7 0 -7 3.3 -7 5.6 -4.7 8 -2.4 8 0.95"/>
  </g>
</svg>