<svg xmlns="http://www.w3.org/2000/svg" xmlns:xlink="http://www.w3.org/1999/xlink">
  <defs/>
  <g>
    <path stroke="none" fill="#FFFFFF" d="M30.7 -3.6 L21.3 25.65 Q20.65 27.6 19 28.8 17.3 30 15.3 30 L-15.25 30 Q-17.3 30 -18.95 28.8 -20.6 27.6 -21.25 25.65 L-30.65 -3.6 Q-31.3 -5.6 -30.65 -7.55 -30 -9.55 -28.4 -10.7 L-3.7 -28.8 Q-1.95 -30 0.1 -30 2.05 -30 3.75 -28.8 L28.45 -10.7 Q30.05 -9.55 30.7 -7.55 31.35 -5.6 30.7 -3.6 M-4.8 3.05 L-4.9 3.25 Q-5.6 5.15 -4.9 6.85 L-4.85 7 -4.6 7.5 Q-5.2 8.45 -5.2 10 L-5.2 12 Q-5.2 16 -1.2 16 L0.8 16 Q4.8 16 4.8 12 L4.8 10 Q4.8 8.4 4.2 7.45 L5 6.55 4.95 6.65 Q9 2.55 8.8 -1 8.8 -4.25 6.9 -6.7 L6.85 -6.75 Q4.3 -10 -0.2 -10 -5.7 -10 -8.1 -5.3 -9.2 -3.4 -8.4 -1.25 L-8.35 -1.1 Q-7.7 0.5 -6.1 1.4 L-4.25 2.05 -4.8 3.05 M2.8 4.5 L1.6 5.8 Q1.2 7 -0.2 7 L-1 6.9 Q-1.8 6.6 -2.1 5.8 -2.4 5.1 -2.1 4.3 -1.5 3 0 1.7 1.8 -0.3 1.8 -1 1.6 -3 -0.2 -3 -1.3 -3 -2 -2.1 -2.4 -1.4 -3.1 -1.1 L-4.6 -1.2 Q-5.3 -1.6 -5.6 -2.3 -5.9 -3.1 -5.5 -3.8 -3.9 -7 -0.2 -7 2.8 -7 4.5 -4.9 5.8 -3.2 5.8 -1 5.8 1.5 2.8 4.5 M1.8 12 Q1.8 13 0.8 13 L-1.2 13 Q-2.2 13 -2.2 12 L-2.2 10 Q-2.2 9 -1.2 9 L0.8 9 Q1.8 9 1.8 10 L1.8 12"/>
  </g>
</svg>