<svg xmlns="http://www.w3.org/2000/svg" xmlns:xlink="http://www.w3.org/1999/xlink">
  <defs/>
  <g>
    <path stroke="none" fill="#FFFFFF" d="M9.8 -25.45 Q11.2 -24.65 10.95 -21.75 L10.95 -21.7 Q9.9 -14.95 6.15 -13.85 3.6 -12.75 0.1 -13.05 L-0.1 -13.05 Q-3.6 -12.75 -6.2 -13.85 -9.9 -14.95 -10.95 -21.7 L-10.95 -21.75 Q-11.2 -24.65 -9.8 -25.45 L-5.9 -25.35 -5.95 -25.35 Q-2.8 -24 0 -24 2.8 -24 5.9 -25.35 L9.8 -25.45 M0 26 Q-19.7 25.75 -18.95 12.85 -17.15 -2.4 -10.5 -8.6 -8.6 -10.6 -5.3 -9.7 -2.6 -8.7 -0.15 -8.7 2.6 -8.7 5.35 -9.7 8.65 -10.6 10.55 -8.6 17.15 -2.4 18.95 12.85 19.75 25.75 0 26 M26.5 -8.8 Q27.15 -7.75 26.9 -6.5 26.6 -5.3 25.55 -4.65 L24.65 -4.25 26.7 -0.25 Q27.2 0.95 26.75 2.1 26.25 3.25 25.1 3.75 L22.75 3.8 Q21.6 3.3 21.1 2.2 17.85 -5.2 11.2 -10.5 10.4 -11.1 10.15 -12 9.85 -12.9 10.15 -13.75 10.4 -14.65 11.2 -15.25 11.9 -15.9 12.8 -15.95 21.6 -16.7 26.5 -8.8"/>
  </g>
</svg>