<svg xmlns="http://www.w3.org/2000/svg" xmlns:xlink="http://www.w3.org/1999/xlink">
  <defs/>
  <g>
    <path stroke="none" fill="#FFFFFF" d="M9.8 -25.45 Q11.2 -24.65 10.95 -21.75 L10.95 -21.7 Q9.9 -14.95 6.15 -13.85 3.6 -12.75 0.1 -13.05 L-0.1 -13.05 Q-3.6 -12.75 -6.2 -13.85 -9.9 -14.95 -10.95 -21.7 L-10.95 -21.75 Q-11.2 -24.65 -9.8 -25.45 L-5.9 -25.35 -5.95 -25.35 Q-2.8 -24 0 -24 2.8 -24 5.9 -25.35 L9.8 -25.45 M26.5 -8.8 Q27.15 -7.75 26.9 -6.5 26.6 -5.3 25.55 -4.65 L24.65 -4.25 26.7 -0.25 Q27.2 0.95 26.75 2.1 26.25 3.25 25.1 3.75 L22.75 3.8 Q21.6 3.3 21.1 2.2 17.85 -5.2 11.2 -10.5 10.4 -11.1 10.15 -12 9.85 -12.9 10.15 -13.75 10.4 -14.65 11.2 -15.25 11.9 -15.9 12.8 -15.95 21.6 -16.7 26.5 -8.8 M0 26 Q-19.7 25.75 -18.95 12.85 L-18.65 10.75 -18.5 10.65 Q-15.6 9.9 -11.8 11.55 -12.15 12.9 -11.65 14.35 -11.15 16.35 -9.25 17.35 -7.4 18.35 -5.45 17.75 L2.05 15.5 Q3.4 15.1 4.35 14 L4.4 13.95 Q5.3 12.9 5.5 11.45 5.8 10.1 5.15 8.7 L4.7 7.65 Q4.45 6.4 3.7 5.35 L1.45 -0.15 Q0.6 -2 -1.3 -2.85 -3.3 -3.65 -5.2 -2.85 L-6.9 -1.7 Q-10.7 -3.4 -14.2 -3.8 -12.6 -6.65 -10.5 -8.6 -8.6 -10.6 -5.3 -9.7 -2.6 -8.7 -0.15 -8.7 2.6 -8.7 5.35 -9.7 8.65 -10.6 10.55 -8.6 17.15 -2.4 18.95 12.85 19.75 25.75 0 26 M-6.35 15.1 L-7.85 15 Q-8.6 14.6 -8.85 13.8 -9.1 13 -8.7 12.3 -8.35 11.55 -7.55 11.3 L-6.85 11.1 Q-13.4 6.95 -18.15 7.7 L-19.55 8.05 Q-21.1 8.7 -22.6 8.05 -24.15 7.4 -24.8 5.9 -25.45 4.35 -24.8 2.85 -24.15 1.3 -22.65 0.65 -19.45 -0.85 -15.7 -0.65 -10.85 -0.4 -5.15 2.8 -5.45 2 -5.15 1.25 -4.85 0.5 -4.05 0.15 -3.3 -0.15 -2.55 0.15 -1.8 0.45 -1.45 1.25 L0.95 7 Q1.65 7.8 1.8 8.9 L1.85 9.05 2.3 10.2 2.45 11.3 1.95 12.25 1.05 12.85 -6.35 15.1"/>
  </g>
</svg>