<svg xmlns="http://www.w3.org/2000/svg" xmlns:xlink="http://www.w3.org/1999/xlink">
  <defs/>
  <g>
    <path stroke="none" fill="#FFFFFF" d="M9.8 -25.45 Q11.2 -24.65 10.95 -21.75 L10.95 -21.7 Q9.9 -14.95 6.15 -13.85 3.6 -12.75 0.1 -13.05 L-0.1 -13.05 Q-3.6 -12.75 -6.2 -13.85 -9.9 -14.95 -10.95 -21.7 L-10.95 -21.75 Q-11.2 -24.65 -9.8 -25.45 L-5.9 -25.35 -5.95 -25.35 Q-2.8 -24 0 -24 2.8 -24 5.9 -25.35 L9.8 -25.45 M26.5 -8.8 Q27.15 -7.75 26.9 -6.5 26.6 -5.3 25.55 -4.65 L24.65 -4.25 26.7 -0.25 Q27.2 0.95 26.75 2.1 26.25 3.25 25.1 3.75 L22.75 3.8 Q21.6 3.3 21.1 2.2 17.85 -5.2 11.2 -10.5 10.4 -11.1 10.15 -12 9.85 -12.9 10.15 -13.75 10.4 -14.65 11.2 -15.25 11.9 -15.9 12.8 -15.95 21.6 -16.7 26.5 -8.8 M0 26 Q-17.15 25.8 -18.8 16 -9.7 19.8 -2.55 16.3 L-2.65 16.4 Q0 15.25 1.05 12.65 L1.15 12.65 Q2.15 9.9 1.05 7.25 L1.05 7.2 Q-0.05 4.6 -2.7 3.4 -5.35 2.35 -7.9 3.35 -10.8 4.1 -14.6 2.45 -14.25 1.1 -14.75 -0.35 L-15.3 -1.65 Q-13.35 -5.95 -10.5 -8.6 -8.6 -10.6 -5.3 -9.7 -2.6 -8.7 -0.15 -8.7 2.6 -8.7 5.35 -9.7 8.65 -10.6 10.55 -8.6 17.15 -2.4 18.95 12.85 19.75 25.75 0 26 M-20 -1.1 L-18.5 -0.95 Q-17.75 -0.55 -17.5 0.25 -17.3 1 -17.7 1.75 -18.1 2.5 -18.85 2.75 L-19.5 2.95 -17.35 4.2 Q-11.25 7.45 -6.85 5.95 -5.3 5.3 -3.75 5.95 -2.25 6.6 -1.6 8.15 -0.95 9.65 -1.6 11.2 -2.25 12.7 -3.75 13.35 -10.3 16.45 -18.9 12.45 L-21.25 11.25 Q-20.95 12 -21.25 12.75 -21.55 13.5 -22.3 13.85 -23.1 14.15 -23.85 13.85 -24.6 13.55 -24.95 12.8 L-27.35 7.05 Q-28.05 6.2 -28.2 5.1 L-28.2 5 -28.7 3.85 -28.8 2.75 Q-28.75 2.15 -28.35 1.75 L-27.4 1.15 -20 -1.1"/>
  </g>
</svg>