<svg xmlns="http://www.w3.org/2000/svg" xmlns:xlink="http://www.w3.org/1999/xlink">
  <defs/>
  <g>
    <path stroke="none" fill="#FFFFFF" d="M25.7 -11.5 L22.95 -1.05 Q25.45 -0.05 26.95 2.55 28.65 5.45 27.75 8.8 26.85 12.05 23.95 13.85 L23.8 13.95 Q21.3 15.3 18.65 14.9 L15.85 25.35 Q15.45 26.8 14.25 27.55 12.95 28.25 11.5 27.9 L2.3 25.4 Q0.85 25.05 0.15 23.75 -0.65 22.5 -0.25 21.05 0.4 18.7 -0.8 16.55 -2.1 14.4 -4.45 13.75 -6.8 13.1 -8.9 14.35 -11.1 15.6 -11.75 17.95 -12.15 19.4 -13.4 20.15 -14.65 20.85 -16.1 20.5 L-25.3 18 Q-26.75 17.65 -27.5 16.35 -28.25 15.1 -27.85 13.65 L-25.4 4.45 Q-25 3 -23.75 2.25 -22.45 1.55 -21 1.9 -18.65 2.55 -16.45 1.3 -14.35 0.05 -13.7 -2.3 -13.1 -4.7 -14.3 -6.8 -15.55 -9 -17.9 -9.65 -19.35 -10 -20.1 -11.25 -20.85 -12.55 -20.45 -14 L-18 -23.2 Q-17.6 -24.65 -16.35 -25.35 -15.05 -26.1 -13.6 -25.75 L-3.15 -22.95 Q-2.15 -25.35 0.3 -26.75 L0.4 -26.85 Q3.35 -28.6 6.65 -27.7 10 -26.8 11.75 -23.75 13.15 -21.35 12.8 -18.65 L23.2 -15.85 Q24.65 -15.5 25.4 -14.15 26.1 -12.95 25.7 -11.5"/>
  </g>
</svg>