<svg xmlns="http://www.w3.org/2000/svg" xmlns:xlink="http://www.w3.org/1999/xlink">
  <defs/>
  <g>
    <path stroke="none" fill="#FFFFFF" d="M16.65 -23.75 Q18.05 -22.4 18 -20.3 L18 -20.25 Q18.05 -18.25 16.6 -16.8 15.1 -15.3 13 -15.3 11 -15.3 9.5 -16.8 8.05 -18.25 8 -20.25 L8 -20.3 Q8.05 -22.35 9.55 -23.85 L12.35 -26.65 13.05 -26.95 13.75 -26.65 16.65 -23.75 M23 10.05 L23 14.2 Q22.95 16.15 21.55 17.55 L21.5 17.6 Q20.05 19.05 18 19.05 L16 18.65 16 26 15.7 26.7 15 27 11 27 Q10.6 27 10.3 26.7 10 26.4 10 26 L10 18.65 8 19.05 Q5.95 19.05 4.5 17.6 L4.5 17.55 Q3.05 16.15 3 14.2 L3 10.05 Q3 9.65 3.3 9.35 3.6 9.05 4 9.05 L8 9.05 10 9.45 10 6.65 8 7.05 Q5.95 7.05 4.5 5.6 L4.5 5.55 Q3.05 4.15 3 2.2 L3 -1.95 Q3 -2.35 3.3 -2.65 L4 -2.95 8 -2.95 10 -2.55 10 -5.35 8 -4.95 Q5.95 -4.95 4.5 -6.4 L4.5 -6.45 Q3.05 -7.85 3 -9.8 L3 -13.95 Q3 -14.35 3.3 -14.65 L4 -14.95 8 -14.95 Q10.05 -14.95 11.55 -13.5 L11.6 -13.5 Q12.65 -12.4 12.9 -10.95 L13 -10.2 13.1 -10.95 Q13.35 -12.4 14.45 -13.5 15.95 -14.95 18 -14.95 L22 -14.95 22.7 -14.65 23 -13.95 23 -9.8 Q22.95 -7.85 21.55 -6.45 L21.5 -6.4 Q20.05 -4.95 18 -4.95 L16 -5.35 16 -2.55 18 -2.95 22 -2.95 22.7 -2.65 23 -1.95 23 2.2 Q22.95 4.15 21.55 5.55 L21.5 5.6 Q20.05 7.05 18 7.05 L16 6.65 16 9.45 18 9.05 22 9.05 Q22.4 9.05 22.7 9.35 L23 10.05 M-9.35 -23.75 Q-7.95 -22.4 -8 -20.3 L-8 -20.25 Q-7.95 -18.25 -9.4 -16.8 -10.9 -15.3 -13 -15.3 -15 -15.3 -16.5 -16.8 -17.95 -18.25 -18 -20.25 L-18 -20.3 Q-17.95 -22.35 -16.45 -23.85 L-13.65 -26.65 -12.95 -26.95 Q-12.55 -26.95 -12.25 -26.65 L-9.35 -23.75 M-3 10.05 L-3 14.2 Q-3.05 16.15 -4.45 17.55 L-4.5 17.6 Q-5.95 19.05 -8 19.05 L-10 18.65 -10 26 Q-10 26.4 -10.3 26.7 -10.6 27 -11 27 L-15 27 -15.7 26.7 -16 26 -16 18.65 -18 19.05 Q-20.05 19.05 -21.5 17.6 L-21.5 17.55 Q-22.95 16.15 -23 14.2 L-23 10.05 -22.7 9.35 Q-22.4 9.05 -22 9.05 L-18 9.05 -16 9.45 -16 6.65 -18 7.05 Q-20.05 7.05 -21.5 5.6 L-21.5 5.55 Q-22.95 4.15 -23 2.2 L-23 -1.95 -22.7 -2.65 -22 -2.95 -18 -2.95 -16 -2.55 -16 -5.35 -18 -4.95 Q-20.05 -4.95 -21.5 -6.4 L-21.5 -6.45 Q-22.95 -7.85 -23 -9.8 L-23 -13.95 -22.7 -14.65 -22 -14.95 -18 -14.95 Q-15.95 -14.95 -14.45 -13.5 L-14.4 -13.5 Q-13.35 -12.4 -13.1 -10.95 L-13 -10.2 -12.9 -10.95 Q-12.65 -12.4 -11.55 -13.5 -10.05 -14.95 -8 -14.95 L-4 -14.95 -3.3 -14.65 Q-3 -14.35 -3 -13.95 L-3 -9.8 Q-3.05 -7.85 -4.45 -6.45 L-4.5 -6.4 Q-5.95 -4.95 -8 -4.95 L-10 -5.35 -10 -2.55 -8 -2.95 -4 -2.95 -3.3 -2.65 Q-3 -2.35 -3 -1.95 L-3 2.2 Q-3.05 4.15 -4.45 5.55 L-4.5 5.6 Q-5.95 7.05 -8 7.05 L-10 6.65 -10 9.45 -8 9.05 -4 9.05 Q-3.6 9.05 -3.3 9.35 -3 9.65 -3 10.05"/>
  </g>
</svg>