<svg xmlns="http://www.w3.org/2000/svg" xmlns:xlink="http://www.w3.org/1999/xlink">
  <defs/>
  <g>
    <path stroke="none" fill="#FFFFFF" d="M18.85 -11.6 Q17.75 -9.6 14.2 -9.8 10.75 -10.05 6.9 -12.25 5.15 -13.25 4.75 -15.3 L4.7 -15.65 Q4.5 -17.55 5.45 -19.3 6.6 -21.25 8.6 -21.9 10.55 -22.6 12.25 -21.6 16.1 -19.4 18.05 -16.4 L19.1 -14.35 Q19.55 -12.8 18.85 -11.6 M0 23.6 Q-1.85 23.6 -3.2 24.7 -4.75 25.85 -6.35 25.85 L-8.05 25.55 Q-11.85 24.15 -15.6 20.9 L-15.65 20.85 Q-19.1 17.85 -21.5 13.25 -26.85 1.4 -24.9 -6.6 -23.85 -9.7 -21.5 -12.2 -17.05 -17 -10.75 -17 -7.25 -17 -4.35 -15.5 L-5 -22.95 -4.8 -23.95 -4.15 -24.7 -3.2 -25 3.2 -25 4.15 -24.7 4.8 -23.95 5 -23.05 Q3.95 -22.1 3.2 -20.75 1.55 -17.85 2.15 -14.75 L2.2 -14.7 Q2.85 -11.4 5.6 -9.8 L5.65 -9.75 Q10 -7.25 14.05 -7.05 L14.1 -7 Q19.5 -6.75 21.1 -10.1 L21.05 -10.1 21.85 -11.8 Q23.95 -9.45 24.9 -6.6 26.85 1.4 21.5 13.25 19.1 17.85 15.65 20.85 L15.6 20.9 Q11.85 24.15 8.05 25.55 L6.35 25.85 Q4.75 25.85 3.2 24.7 1.85 23.6 0 23.6"/>
  </g>
</svg>