<svg xmlns="http://www.w3.org/2000/svg" xmlns:xlink="http://www.w3.org/1999/xlink">
  <defs/>
  <g>
    <path stroke="none" fill="#FFFFFF" d="M-30.25 8.75 L-22 0.5 -22 -2 Q-22 -4.5 -20.25 -6.25 L-4.25 -22.25 Q-2.5 -24 0 -24 L16 -24 Q18.5 -24 20.25 -22.25 22 -20.5 22 -18 L22 -10 21.95 -9 26 -9 Q28.5 -9 30.25 -7.25 32 -5.5 32 -3 L32 5 Q32 7.5 30.25 9.25 L14.25 25.25 Q12.5 27 10 27 L-6 27 -8 26.7 -10 27 -26 27 Q-28.5 27 -30.25 25.25 -32 23.5 -32 21 L-32 13 Q-32 10.5 -30.25 8.75 M-26 21 L-12 21 -12 13 -26 13 -26 21 M-6 21 L10 21 10 13 -6 13 -6 21 M-16 6 L0 6 0 -2 -16 -2 -16 6"/>
  </g>
</svg>