<svg xmlns="http://www.w3.org/2000/svg" xmlns:xlink="http://www.w3.org/1999/xlink">
  <defs/>
  <g>
    <path stroke="none" fill="#FFFFFF" d="M2.35 -22.7 Q0.8 -25.4 -4.4 -24.95 -9.5 -24.55 -15.25 -21.2 -21 -17.95 -23.95 -13.7 -26.95 -9.45 -25.4 -6.75 -23.85 -4.1 -18.65 -4.55 -13.5 -5 -7.75 -8.25 -2 -11.6 0.9 -15.8 3.9 -20.05 2.35 -22.7 M16.75 -25.05 Q18.45 -26.9 20.85 -27 23.35 -27.1 25.15 -25.35 26.95 -23.7 27 -21.2 27.1 -18.7 25.5 -16.9 19.85 -10.2 23.35 1.3 L23.6 2.8 25.05 5.3 Q25.7 6.35 25.85 7.65 26.55 11.7 22.8 17.05 L22.85 17.05 Q19.3 22.3 12.25 26.4 5.2 30.4 -1.15 30.9 -7.95 31.45 -11 28.6 -12 27.8 -12.55 26.8 L-31.05 -5.2 Q-31.65 -6.2 -31.8 -7.35 -32.8 -11.55 -28.85 -17.05 -25.3 -22.4 -18.25 -26.4 -11.25 -30.5 -4.9 -30.9 L-4.85 -30.9 Q1.8 -31.5 4.95 -28.7 L6.5 -26.85 11.85 -17.55 Q13.55 -21.7 16.75 -25.05 M-4.6 -18.7 Q-3.85 -17.35 -5.35 -15.25 -6.8 -13.1 -9.65 -11.45 -12.55 -9.8 -15.1 -9.6 -17.7 -9.4 -18.45 -10.75 -19.25 -12.1 -17.75 -14.2 -16.3 -16.3 -13.4 -17.95 -10.55 -19.6 -8 -19.85 -5.4 -20.05 -4.6 -18.7"/>
  </g>
</svg>