<svg xmlns="http://www.w3.org/2000/svg" xmlns:xlink="http://www.w3.org/1999/xlink">
  <defs/>
  <g>
    <path stroke="none" fill="#FFFFFF" d="M12.7 -12.7 L29.65 4.25 Q31.45 6.05 31.5 8.55 31.45 10.95 29.7 12.75 L12.7 29.7 Q10.95 31.45 8.5 31.5 6 31.5 4.2 29.7 L-1.45 24.05 Q-3.05 22.45 -3.15 20.15 -5.45 20.05 -7.1 18.4 L-29.7 -4.2 Q-31.5 -6 -31.45 -8.45 -31.45 -10.95 -29.7 -12.7 L-12.7 -29.65 Q-10.95 -31.45 -8.45 -31.4 -6.05 -31.45 -4.25 -29.65 L7.05 -18.35 Q8.65 -16.75 8.8 -14.5 11.05 -14.3 12.7 -12.7 M-19.8 -2.8 L-2.85 14.15 2.85 14.2 2.8 19.8 8.45 25.45 25.45 8.5 8.5 -8.45 2.8 -8.5 2.85 -14.1 -2.8 -19.75 -19.8 -2.8"/>
  </g>
</svg>