<svg xmlns="http://www.w3.org/2000/svg" xmlns:xlink="http://www.w3.org/1999/xlink">
  <defs/>
  <g>
    <path stroke="none" fill="#FFFFFF" d="M5.9 -27.4 L0.9 -17.4 0.35 -16.9 -0.35 -16.9 -0.9 -17.4 -5.9 -27.4 -5.95 -28.05 -5.6 -28.6 -5 -28.85 5 -28.85 5.65 -28.6 6 -28.05 5.9 -27.4 M-19.1 19.1 Q-27 11.2 -27 0 -27 -8.1 -22.85 -14.45 L-18.5 -10.1 Q-21 -5.55 -21 0 -21 7.2 -16.8 12.65 L-6.25 2.15 -2.05 6.35 -12.55 16.85 Q-7.15 21 0 21 7.2 21 12.65 16.8 L2.2 6.35 6.45 2.1 16.85 12.5 Q21 7.1 21 0 21 -5.55 18.55 -10 L22.95 -14.4 Q27 -8.05 27 0 27 10.7 19.75 18.4 19.4 19.35 18.45 19.7 10.75 27 0 27 -11.15 27 -19 19.2 L-19.1 19.1 M19.2 -19 L21.15 -16.85 16.75 -12.5 0.05 4.2 -21.05 -16.9 -19.1 -19.1 -19.05 -19.15 -18.8 -19.4 Q-14.15 -23.9 -8.4 -25.75 L-3.55 -16.05 -3.55 -15.95 Q-2.85 -14.65 -1.35 -14.1 L-1.45 -14.15 Q0 -13.55 1.5 -14.15 L1.4 -14.1 Q2.85 -14.65 3.55 -15.95 L3.6 -16.05 8.45 -25.7 Q14.35 -23.85 19.1 -19.1 L19.2 -19"/>
  </g>
</svg>