<svg xmlns="http://www.w3.org/2000/svg" xmlns:xlink="http://www.w3.org/1999/xlink">
  <defs/>
  <g>
    <path stroke="none" fill="#FFFFFF" d="M5.9 -27.4 L0.9 -17.4 0.35 -16.9 -0.35 -16.9 -0.9 -17.4 -5.9 -27.4 -5.95 -28.05 -5.6 -28.6 -5 -28.85 5 -28.85 5.65 -28.6 6 -28.05 5.9 -27.4 M-21 0 Q-21 7.2 -16.8 12.65 L-4.15 0 -16.8 -12.65 Q-21 -7.2 -21 0 M0 21 Q7.2 21 12.65 16.8 L0.05 4.2 -12.55 16.85 -12.5 16.9 Q-7.15 21 0 21 M12.65 -16.8 Q9.5 -19.25 5.7 -20.25 L8.45 -25.7 Q14.35 -23.85 19.1 -19.1 L19.2 -19 Q27 -11.15 27 0 27 10.7 19.75 18.4 19.4 19.35 18.45 19.7 10.75 27 0 27 -11.15 27 -19 19.2 L-19.1 19.1 Q-27 11.2 -27 0 -27 -11.2 -19.1 -19.1 L-19.05 -19.15 -18.8 -19.4 Q-14.15 -23.9 -8.4 -25.75 L-5.65 -20.25 Q-9.4 -19.3 -12.55 -16.9 L0.1 -4.25 12.65 -16.8 M21 0 Q21 -7.15 16.9 -12.5 L16.85 -12.55 4.3 -0.05 16.85 12.5 Q21 7.1 21 0"/>
  </g>
</svg>