<svg xmlns="http://www.w3.org/2000/svg" xmlns:xlink="http://www.w3.org/1999/xlink">
  <defs/>
  <g>
    <path stroke="none" fill="#FFFFFF" d="M-6.4 -5.8 L5.6 -21.8 Q6 -22.35 6.65 -22.65 L8 -23 12 -23 13.35 -22.65 14.4 -21.8 26.4 -5.8 Q27.1 -4.9 27 -3.75 26.9 -2.65 26.15 -1.85 L23 1.25 23 20 Q23 21.25 22.15 22.15 21.25 23 20 23 L16 23 Q14.75 23 13.9 22.15 13 21.25 13 20 L13 7 7 7 7 20 Q7 21.25 6.15 22.15 5.25 23 4 23 L-20 23 Q-21.25 23 -22.1 22.15 -23 21.25 -23 20 L-23 9.25 -26.1 6.15 Q-27 5.25 -27 4 -27 2.75 -26.1 1.9 L-22.1 -2.1 Q-21.25 -3 -20 -3 L-6.85 -3 -7 -3.75 Q-7.1 -4.9 -6.4 -5.8"/>
  </g>
</svg>