<svg xmlns="http://www.w3.org/2000/svg" xmlns:xlink="http://www.w3.org/1999/xlink">
  <defs/>
  <g>
    <path stroke="none" fill="#FFFFFF" d="M9 -11 L9 -16 Q9 -17.25 9.9 -18.1 10.75 -19 12 -19 L16 -19 Q17.25 -19 18.15 -18.1 19 -17.25 19 -16 L19 -4 Q19 -2.75 18.15 -1.85 L15 1.25 15 10.75 18.15 13.9 Q19 14.75 19 16 L19 20 Q19 21.25 18.15 22.15 17.25 23 16 23 L8 23 Q6.75 23 5.9 22.15 5 21.25 5 20 L5 8 Q5 5.95 3.55 4.5 2.05 3 0 3 -2.05 3 -3.5 4.5 -5 5.95 -5 8 L-5 20 Q-5 21.25 -5.85 22.15 -6.75 23 -8 23 L-16 23 Q-17.25 23 -18.1 22.15 -19 21.25 -19 20 L-19 16 Q-19 14.75 -18.1 13.9 L-15 10.75 -15 1.25 -18.1 -1.85 Q-19 -2.75 -19 -4 L-19 -16 Q-19 -17.25 -18.1 -18.1 -17.25 -19 -16 -19 L-12 -19 Q-10.75 -19 -9.85 -18.1 -9 -17.25 -9 -16 L-9 -11 -7 -11 -7 -16 Q-7 -17.25 -6.1 -18.1 -5.25 -19 -4 -19 L4 -19 Q5.25 -19 6.15 -18.1 7 -17.25 7 -16 L7 -11 9 -11"/>
  </g>
</svg>