<svg xmlns="http://www.w3.org/2000/svg" xmlns:xlink="http://www.w3.org/1999/xlink">
  <defs/>
  <g>
    <path stroke="none" fill="#FFFFFF" d="M26.15 -1.85 L23 1.25 23 20 Q23 21.25 22.15 22.15 21.25 23 20 23 L-20 23 Q-21.25 23 -22.1 22.15 -23 21.25 -23 20 L-23 1.25 -26.1 -1.85 Q-27 -2.75 -27 -4 L-27 -16 Q-27 -17.25 -26.1 -18.1 -25.25 -19 -24 -19 L-16 -19 Q-14.75 -19 -13.85 -18.1 -13 -17.25 -13 -16 L-13 -11 -7 -11 -7 -16 Q-7 -17.25 -6.1 -18.1 -5.25 -19 -4 -19 L4 -19 Q5.25 -19 6.15 -18.1 7 -17.25 7 -16 L7 -11 13 -11 13 -16 Q13 -17.25 13.9 -18.1 14.75 -19 16 -19 L24 -19 Q25.25 -19 26.15 -18.1 27 -17.25 27 -16 L27 -4 Q27 -2.75 26.15 -1.85"/>
  </g>
</svg>