<svg xmlns="http://www.w3.org/2000/svg" xmlns:xlink="http://www.w3.org/1999/xlink">
  <defs/>
  <g>
    <path stroke="none" fill="#FFFFFF" d="M18.5 -13.65 L26.5 -1.65 Q27.1 -0.75 27 0.3 26.9 1.35 26.15 2.15 L23 5.25 23 20 Q23 21.25 22.15 22.15 21.25 23 20 23 L8 23 Q6.75 23 5.9 22.15 5 21.25 5 20 L5 7 -5 7 -5 20 Q-5 21.25 -5.85 22.15 -6.75 23 -8 23 L-20 23 Q-21.25 23 -22.1 22.15 -23 21.25 -23 20 L-23 5.25 -26.1 2.15 Q-26.9 1.35 -26.95 0.3 -27.1 -0.75 -26.5 -1.65 L-18.5 -13.65 -17.35 -14.65 -1.35 -22.65 0 -23 1.35 -22.65 17.35 -14.65 18.5 -13.65 M-5 -3 Q-5 -1.75 -4.1 -0.85 -3.25 0 -2 0 L2 0 Q3.25 0 4.15 -0.85 5 -1.75 5 -3 L5 -8 4.85 -8 4.15 -9.1 Q3.25 -10 2 -10 L-2 -10 Q-3.25 -10 -4.1 -9.1 L-4.8 -8 -5 -8 -5 -3"/>
  </g>
</svg>