<svg xmlns="http://www.w3.org/2000/svg" xmlns:xlink="http://www.w3.org/1999/xlink">
  <defs/>
  <g>
    <path stroke="none" fill="#FFFFFF" d="M-26.1 -2.1 L-6.1 -22.1 Q-5.25 -23 -4 -23 L4 -23 Q5.25 -23 6.15 -22.1 L26.15 -2.1 Q27 -1.25 27 0 27 1.25 26.15 2.15 L22.15 6.15 Q21.25 7 20 7 L19 6.85 19 20 Q19 21.25 18.15 22.15 17.25 23 16 23 L8 23 Q6.75 23 5.9 22.15 5 21.25 5 20 L5 7 -5 7 -5 20 Q-5 21.25 -5.85 22.15 -6.75 23 -8 23 L-16 23 Q-17.25 23 -18.1 22.15 -19 21.25 -19 20 L-19 6.85 -20 7 Q-21.25 7 -22.1 6.15 L-26.1 2.15 Q-27 1.25 -27 0 -27 -1.25 -26.1 -2.1"/>
  </g>
</svg>