<svg xmlns="http://www.w3.org/2000/svg" xmlns:xlink="http://www.w3.org/1999/xlink">
  <defs/>
  <g>
    <path stroke="none" fill="#FFFFFF" d="M5.05 22.85 L4.85 23.9 4.15 24.65 3.2 24.95 -3.2 24.95 -4.15 24.65 -4.8 23.9 -5 22.85 -4.35 15.65 Q-7.95 19 -13 19 -18.4 19 -22.25 15.2 -26 11.45 -26 6 -26 0.6 -22.25 -3.2 -18.4 -7 -13 -7 L-10.9 -6.85 Q-13 -9.95 -13 -14 -13 -19.4 -9.25 -23.2 -5.4 -27 0 -27 5.35 -27 9.1 -23.2 13 -19.4 13 -14 13 -9.95 10.85 -6.85 L13 -7 Q18.35 -7 22.1 -3.2 26 0.6 26 6 26 11.45 22.1 15.2 18.35 19 13 19 8.05 19 4.45 15.85 L5.05 22.85 M0 6.6 L0 7 0.05 7 0 6.6"/>
  </g>
</svg>