<svg xmlns="http://www.w3.org/2000/svg" xmlns:xlink="http://www.w3.org/1999/xlink">
  <defs/>
  <g>
    <path stroke="none" fill="#FFFFFF" d="M-21 10.85 Q-25 6.95 -25 1.35 -25 -4.2 -21 -8.15 L-20.95 -8.2 -20.95 -8.25 -19 -9.8 -1.55 -24.25 Q-0.9 -24.8 0 -24.8 0.9 -24.8 1.55 -24.25 L18.95 -9.8 20.85 -8.25 20.95 -8.15 Q25 -4.2 25 1.35 25 6.95 20.95 10.85 16.95 14.85 11.3 14.85 7.35 14.85 4.2 12.9 L5.05 22.85 4.85 23.9 4.15 24.65 3.2 24.95 -3.2 24.95 -4.15 24.65 -4.8 23.9 -5 22.85 -4.1 12.85 Q-7.25 14.85 -11.25 14.85 -16.95 14.85 -21 10.85"/>
  </g>
</svg>