<svg xmlns="http://www.w3.org/2000/svg" xmlns:xlink="http://www.w3.org/1999/xlink">
  <defs/>
  <g>
    <path stroke="none" fill="#FFFFFF" d="M24.35 -14.7 Q28.4 -10.05 27.95 -3.8 27.5 2.35 22.85 6.5 22.7 6.6 22.65 6.65 L20.4 8.15 20.55 8.1 5.75 18.7 4.95 19 4.15 18.85 3.55 18.3 0.2 13.15 Q-0.05 12.7 0 12.2 0 11.7 0.35 11.35 L5.85 5.05 6.2 4.15 Q6.25 3.65 5.95 3.3 L1.45 -3.8 Q1.2 -4.25 1.25 -4.75 1.25 -5.25 1.6 -5.6 L7.1 -11.95 7.45 -12.85 7.2 -13.65 5.55 -16.35 Q5.25 -16.7 5.3 -17.1 L5.5 -17.9 6.1 -18.5 Q9.65 -20.25 13.85 -19.95 20.15 -19.5 24.35 -14.7 M21.35 6.5 Q21.75 6.15 23.2 5.55 L23.05 6.15 22.9 6.4 23.25 5.5 Q21.7 6.15 21.35 6.5 20.9 6.85 21.65 6.9 22.15 6.95 22.55 6.65 L21.7 6.85 Q21 6.8 21.35 6.5 M-2.05 22.3 L-20.35 9.15 -22.5 7.6 -22.45 7.6 -22.55 7.5 -22.55 7.55 Q-27.45 3.45 -27.95 -2.7 -28.45 -8.95 -24.3 -13.7 -20.3 -18.45 -14.15 -18.95 -7.95 -19.5 -3.15 -15.45 L-1.55 -14 -1.45 -13.9 -1.25 -13.6 -1.2 -13.55 -1 -13.3 -0.7 -12.45 -0.95 -11.55 -5.25 -4.4 Q-5.55 -4.05 -5.5 -3.55 L-5.2 -2.7 0.3 3.6 0.7 4.45 0.45 5.4 -3.95 12.5 -4.15 13.35 -3.8 14.25 1.6 20.45 Q2 20.85 2 21.5 L1.55 22.5 Q1.15 22.95 0.6 23 L0.45 23 Q-0.95 23.1 -2.05 22.3"/>
  </g>
</svg>