<svg xmlns="http://www.w3.org/2000/svg" xmlns:xlink="http://www.w3.org/1999/xlink">
  <defs/>
  <g>
    <path stroke="none" fill="#FFFFFF" d="M13.5 -26.45 Q14.25 -27 15.25 -27 L24.4 -27 Q25.35 -27 26.05 -26.45 L26.25 -26.3 Q27 -25.5 27 -24.45 L27 -15.2 Q27 -14.25 26.25 -13.4 L2.2 10.65 4 12.45 4.3 12.1 Q4.45 11.85 4.8 11.8 L5.4 11.65 6.15 11.65 Q7.15 11.65 7.95 12.4 L8.1 12.55 Q8.7 13.3 8.7 14.2 L8.7 20.35 Q8.7 21.3 8.1 22 L7.8 22.3 Q7.05 22.9 6.15 22.9 L0 22.9 Q-2.7 22.9 -2.6 20.35 L-2.6 19.75 Q-2.6 19.05 -2.1 18.6 L-1.65 18.1 -2 17.8 -5.55 14.35 -9.6 18.4 -9.6 24.4 Q-9.6 25.45 -10.4 26.2 -11.15 27 -12.2 27 L-24.35 27 Q-27 27 -27 24.4 L-27 12.15 Q-27 9.55 -24.35 9.55 L-18.45 9.55 -14.4 5.5 -18.15 1.65 -18.65 2.2 Q-19.1 2.55 -19.8 2.55 L-20.3 2.55 Q-23 2.55 -22.95 0 L-22.95 -6.15 Q-22.95 -8.75 -20.3 -8.75 L-14.15 -8.75 Q-13.2 -8.75 -12.35 -7.95 L-12.2 -7.8 Q-11.7 -7.05 -11.7 -6.15 L-11.7 -5.45 Q-11.7 -4.85 -12.15 -4.35 L-12.5 -3.95 -10.7 -2.15 13.35 -26.3 13.5 -26.45"/>
  </g>
</svg>