<svg xmlns="http://www.w3.org/2000/svg" xmlns:xlink="http://www.w3.org/1999/xlink">
  <defs/>
  <g>
    <path stroke="none" fill="#FFFFFF" d="M16.75 19.05 L17.85 18.9 16.9 20.35 Q16.6 20.85 16.6 21.2 16.6 21.8 17 22.15 L18.1 22.5 19 22.3 19.6 21.65 20.85 19.75 21.8 17.8 22.1 15.8 Q22.1 14.15 21 13.1 19.9 12 17.85 12 15.9 12 14.75 13.15 13.65 14.25 13.65 15.75 13.65 17.3 14.55 18.2 15.45 19.05 16.75 19.05 M27.95 8 Q28.85 8.1 29.45 8.85 30.1 9.55 30 10.5 29.7 19 25.25 24.65 22.55 28.05 19.05 29.75 L18.05 30 17.05 29.75 Q13.5 28.05 10.8 24.65 6.35 19 6 10.5 6 9.55 6.6 8.85 7.2 8.1 8.1 8 12.05 7.65 16.05 4.6 16.95 4 18.05 4 19.1 4 20 4.6 24 7.6 27.95 8 M17.9 17.05 Q17.3 17.05 17 16.7 16.65 16.3 16.65 15.75 16.65 15.15 16.95 14.75 17.25 14.35 17.85 14.35 18.45 14.35 18.75 14.75 19.1 15.1 19.1 15.75 19.1 16.4 18.75 16.75 L17.9 17.05"/>
  </g>
</svg>