<svg xmlns="http://www.w3.org/2000/svg" xmlns:xlink="http://www.w3.org/1999/xlink">
  <defs/>
  <g>
    <path stroke="none" fill="#FFFFFF" d="M19.15 21.5 Q21.3 21.5 22.7 20.15 24.1 18.75 24.1 16.3 24.1 13.9 22.65 12.45 21.2 11 19.15 11 17.05 11 15.65 12.45 14.2 13.9 14.2 16.3 14.2 18.75 15.6 20.15 17.05 21.5 19.15 21.5 M17.9 18.15 Q17.4 17.55 17.4 16.3 17.4 14.95 17.9 14.4 18.4 13.8 19.15 13.8 19.9 13.8 20.4 14.4 20.9 14.95 20.9 16.3 20.9 17.55 20.4 18.15 19.9 18.7 19.15 18.7 18.35 18.7 17.9 18.15 M30 16 Q30 21.8 25.9 25.85 21.8 30 16 30 10.2 30 6.1 25.85 2 21.8 2 16 2 10.2 6.1 6.05 10.2 2 16 2 21.8 2 25.9 6.05 30 10.2 30 16 M9.6 14.75 L9.6 19.85 Q9.6 20.55 10 21 10.4 21.4 11.15 21.4 11.9 21.4 12.3 21 12.7 20.55 12.7 19.85 L12.7 12.45 12.4 11.5 Q12.1 11.2 11.6 11.2 L10.7 11.4 8.35 12.25 Q7.4 12.6 7.4 13.55 7.4 14.15 7.8 14.55 8.15 14.95 8.8 14.95 L9.25 14.9 9.6 14.75"/>
  </g>
</svg>