<svg xmlns="http://www.w3.org/2000/svg" xmlns:xlink="http://www.w3.org/1999/xlink">
  <defs/>
  <g>
    <path stroke="none" fill="#FFFFFF" d="M22.5 19.4 L22.2 18.5 Q21.85 18.15 21.3 18.15 21.3 16.4 19.95 16.4 18.8 16.4 18.35 18 L18.35 18.15 16.95 18.15 19.25 14.15 19.5 13.35 Q19.5 12.75 19 12.4 18.55 12 17.95 12 17.25 12 16.75 12.8 L13.85 18.1 13.5 19.3 Q13.45 19.85 13.85 20.3 14.2 20.7 15 20.7 L18.2 20.7 18.2 20.85 Q18.2 21.55 18.6 22 19.05 22.4 19.75 22.4 20.45 22.4 20.9 22 21.3 21.55 21.3 20.85 L21.3 20.7 22.2 20.35 22.5 19.4 M27.95 8 Q28.85 8.1 29.45 8.85 30.1 9.55 30 10.5 29.7 19 25.25 24.65 22.55 28.05 19.05 29.75 L18.05 30 17.05 29.75 Q13.5 28.05 10.8 24.65 6.35 19 6 10.5 6 9.55 6.6 8.85 7.2 8.1 8.1 8 12.05 7.65 16.05 4.6 16.95 4 18.05 4 19.1 4 20 4.6 24 7.6 27.95 8"/>
  </g>
</svg>