<svg xmlns="http://www.w3.org/2000/svg" xmlns:xlink="http://www.w3.org/1999/xlink">
  <defs/>
  <g>
    <path stroke="none" fill="#FFFFFF" d="M17.95 20.3 L17.2 20.05 Q16.9 19.75 16.9 19.2 16.9 18.6 17.2 18.3 17.5 18 18 18 18.5 18 18.75 18.3 19.05 18.6 19.05 19.2 L18.75 20 17.95 20.3 M17.95 15.8 Q17.1 15.8 17.1 14.85 17.05 13.95 18 13.95 18.45 13.95 18.65 14.25 L18.9 14.85 18.65 15.5 Q18.45 15.8 17.95 15.8 M21.1 21.7 Q22.25 20.85 22.25 19.4 22.25 18.45 21.75 17.8 L20.35 16.9 20.35 16.85 21.45 16 Q21.85 15.4 21.85 14.65 21.85 13.45 20.8 12.7 19.75 12 18 12 16.2 12 15.15 12.7 14.1 13.45 14.1 14.65 14.1 15.4 14.55 16 14.95 16.6 15.6 16.85 L15.6 16.9 Q14.75 17.2 14.2 17.85 13.7 18.5 13.7 19.4 13.7 20.85 14.85 21.7 16 22.5 18 22.5 19.95 22.5 21.1 21.7 M27.95 8 Q28.85 8.1 29.45 8.85 30.1 9.55 30 10.5 29.7 19 25.25 24.65 22.55 28.05 19.05 29.75 L18.05 30 17.05 29.75 Q13.5 28.05 10.8 24.65 6.35 19 6 10.5 6 9.55 6.6 8.85 7.2 8.1 8.1 8 12.05 7.65 16.05 4.6 16.95 4 18.05 4 19.1 4 20 4.6 24 7.6 27.95 8"/>
  </g>
</svg>