<svg xmlns="http://www.w3.org/2000/svg" xmlns:xlink="http://www.w3.org/1999/xlink">
  <defs/>
  <g>
    <path stroke="none" fill="#FFFFFF" d="M30 16 Q30 21.8 25.9 25.85 21.8 30 16 30 10.2 30 6.1 25.85 2 21.8 2 16 2 10.2 6.1 6.05 10.2 2 16 2 21.8 2 25.9 6.05 30 10.2 30 16 M19.7 14.35 Q19.7 12.85 18.75 11.9 17.8 11 15.85 11 13.8 11 12.6 11.95 11.9 12.5 11.9 13.25 11.9 13.75 12.25 14.15 12.55 14.55 13.1 14.55 L14.2 14.2 Q14.85 13.85 15.35 13.85 15.9 13.85 16.1 14.1 L16.35 14.8 Q16.35 16.05 13.3 18.3 L12.95 18.6 12.6 18.9 12.35 19.15 12.1 19.45 12 19.75 11.95 20.15 Q11.95 20.7 12.3 21.05 12.65 21.4 13.3 21.4 L18.75 21.4 Q19.45 21.4 19.8 21.05 20.15 20.75 20.15 20.1 20.15 19.5 19.8 19.15 19.4 18.85 18.75 18.85 L16.9 18.85 16.9 18.8 Q19.7 16.4 19.7 14.35"/>
  </g>
</svg>