<svg xmlns="http://www.w3.org/2000/svg" xmlns:xlink="http://www.w3.org/1999/xlink">
  <defs/>
  <g>
    <path stroke="none" fill="#FFFFFF" d="M11.7 19.65 L16.4 24.3 Q16.9 24.85 17.65 25 L19.1 24.75 20.1 23.7 24.8 14.35 Q25.2 13.5 24.9 12.6 24.6 11.7 23.75 11.25 L21.95 11.1 Q21.05 11.4 20.6 12.25 L17.4 18.7 15.05 16.35 Q14.35 15.65 13.35 15.65 12.4 15.65 11.7 16.35 11 17 11 18 11 18.95 11.7 19.65 M11.95 6 L24.1 6 Q30 6 30 11.9 L30 24.1 Q30 30 24.1 30 L11.95 30 Q6 30 6 24.1 L6 11.9 Q6 6 11.95 6"/>
  </g>
</svg>