<svg xmlns="http://www.w3.org/2000/svg" xmlns:xlink="http://www.w3.org/1999/xlink">
  <defs/>
  <g>
    <path stroke="none" fill="#FFFFFF" d="M11.95 6 L24.1 6 Q30 6 30 11.9 L30 24.1 Q30 30 24.1 30 L11.95 30 Q6 30 6 24.1 L6 11.9 Q6 6 11.95 6 M25.7 19.55 L25.75 19.45 25.95 18.75 26 18.1 26 17.9 25.9 17.1 25.6 16.3 25.15 15.55 25.1 15.5 24.5 14.95 24.45 14.9 23.6 14.35 23.55 14.35 22.55 14.05 22.5 14.05 21 14.15 Q20.2 14.25 19.6 14.7 L19.35 14.85 19.1 15.2 19.1 15.6 19.25 15.95 20.15 16.85 Q20.35 17.05 20.6 17.05 L21.1 16.95 21.35 16.8 21.85 16.65 22.3 16.75 22.35 16.75 22.75 16.95 23.1 17.3 23.25 17.7 23.25 17.8 23.3 18.25 23.1 18.65 22.75 19 22.35 19.25 22.3 19.25 21.75 19.3 21.3 19.15 21.2 19.15 20.85 18.9 17.2 15.35 17 15.15 16.95 15.1 16.65 14.9 16.7 14.9 15.9 14.4 15.85 14.4 15.05 14.1 14.95 14.05 13.8 14.05 12.7 14.25 Q12.15 14.45 11.75 14.75 L10.95 15.5 10.3 16.5 10 17.6 10.05 17.55 10.05 18.6 10.3 19.55 11.2 20.8 11.2 20.85 12.45 21.7 12.55 21.7 13.75 22 13.8 22 15.1 21.9 15.15 21.9 16.05 21.5 16.1 21.5 16.65 21.15 16.9 20.85 16.95 20.45 16.75 20.05 15.85 19.15 15.35 18.95 14.85 19.1 14.8 19.15 14.75 19.15 14.4 19.3 14 19.3 13.6 19.2 13.5 19.15 13.15 19 12.95 18.7 12.9 18.65 12.75 18.25 12.7 17.85 12.8 17.5 12.8 17.45 13.1 17.1 13.35 16.9 13.45 16.85 13.85 16.7 13.9 16.7 14.25 16.7 14.3 16.7 14.7 16.8 14.75 16.85 15.1 17.05 15.1 17.15 19 20.85 19.75 21.4 19.8 21.45 20.6 21.8 20.65 21.8 21.85 22 23.05 21.8 23 21.85 Q23.7 21.65 24.35 21.25 L24.35 21.2 25.35 20.2 25.7 19.55"/>
  </g>
</svg>