<svg xmlns="http://www.w3.org/2000/svg" xmlns:xlink="http://www.w3.org/1999/xlink">
  <defs/>
  <g>
    <path stroke="none" fill="#FFFFFF" d="M30 16 Q30 21.8 25.9 25.85 21.8 30 16 30 10.2 30 6.1 25.85 2 21.8 2 16 2 10.2 6.1 6.05 10.2 2 16 2 21.8 2 25.9 6.05 30 10.2 30 16 M14.75 18.05 L15.85 17.9 14.9 19.35 14.6 20.2 Q14.6 20.8 15 21.15 L16.1 21.5 17 21.3 17.6 20.65 18.85 18.75 19.8 16.8 20.1 14.8 Q20.1 13.15 19 12.1 17.9 11 15.85 11 13.9 11 12.75 12.15 11.65 13.25 11.65 14.75 11.65 16.3 12.55 17.2 13.45 18.05 14.75 18.05 M15.9 16.05 Q15.3 16.05 15 15.7 14.65 15.3 14.65 14.75 14.65 14.15 14.95 13.75 15.25 13.35 15.85 13.35 16.45 13.35 16.75 13.75 17.1 14.1 17.1 14.75 17.1 15.4 16.75 15.75 16.4 16.05 15.9 16.05"/>
  </g>
</svg>