<svg xmlns="http://www.w3.org/2000/svg" xmlns:xlink="http://www.w3.org/1999/xlink">
  <defs/>
  <g>
    <path stroke="none" fill="#FFFFFF" d="M30 16 Q30 21.8 25.9 25.85 21.8 30 16 30 10.2 30 6.1 25.85 2 21.8 2 16 2 10.2 6.1 6.05 10.2 2 16 2 21.8 2 25.9 6.05 30 10.2 30 16 M17.2 14.45 L16.1 14.6 16.05 14.6 17.05 13.15 17.35 12.3 Q17.35 11.7 16.9 11.35 16.5 11 15.85 11 L15.15 11.15 14.7 11.45 14.3 11.9 13.1 13.75 12.15 15.7 Q11.85 16.6 11.85 17.7 11.85 19.35 12.95 20.4 14.05 21.5 16.05 21.5 18.05 21.5 19.2 20.4 20.3 19.25 20.3 17.75 20.3 16.2 19.4 15.35 18.5 14.45 17.2 14.45 M16.05 16.45 Q16.6 16.45 16.95 16.85 L17.3 17.75 Q17.3 18.35 16.95 18.75 16.65 19.15 16.05 19.15 15.45 19.15 15.15 18.8 14.85 18.4 14.85 17.75 14.85 17.1 15.2 16.75 15.55 16.45 16.05 16.45"/>
  </g>
</svg>