<svg xmlns="http://www.w3.org/2000/svg" xmlns:xlink="http://www.w3.org/1999/xlink">
  <defs/>
  <g>
    <path stroke="none" fill="#FFFFFF" d="M30 16 Q30 21.8 25.9 25.85 21.8 30 16 30 10.2 30 6.1 25.85 2 21.8 2 16 2 10.2 6.1 6.05 10.2 2 16 2 21.8 2 25.9 6.05 30 10.2 30 16 M20.5 18.4 L20.2 17.5 Q19.85 17.15 19.3 17.15 19.3 15.4 17.95 15.4 16.8 15.4 16.35 17 L16.35 17.15 14.95 17.15 17.25 13.15 17.5 12.35 Q17.5 11.75 17 11.4 16.55 11 15.95 11 15.25 11 14.75 11.8 L11.85 17.1 Q11.55 17.7 11.5 18.3 11.45 18.85 11.85 19.3 12.2 19.7 13 19.7 L16.2 19.7 16.2 19.85 Q16.2 20.55 16.6 21 17.05 21.4 17.75 21.4 18.45 21.4 18.9 21 19.3 20.55 19.3 19.85 L19.3 19.7 20.2 19.35 20.5 18.4"/>
  </g>
</svg>