<svg xmlns="http://www.w3.org/2000/svg" xmlns:xlink="http://www.w3.org/1999/xlink">
  <defs/>
  <g>
    <path stroke="none" fill="#FFFFFF" d="M27.95 8 Q28.85 8.1 29.45 8.85 30.1 9.55 30 10.5 29.7 19 25.25 24.65 22.55 28.05 19.05 29.75 L18.05 30 17.05 29.75 Q13.5 28.05 10.8 24.65 6.35 19 6 10.5 6 9.55 6.6 8.85 7.2 8.1 8.1 8 12.05 7.65 16.05 4.6 16.95 4 18.05 4 19.1 4 20 4.6 24 7.6 27.95 8 M19.2 15.45 L18.1 15.6 18.05 15.6 19.05 14.15 19.35 13.3 Q19.35 12.7 18.9 12.35 18.5 12 17.85 12 L17.15 12.15 16.7 12.45 16.3 12.9 15.1 14.75 14.15 16.7 Q13.85 17.6 13.85 18.7 13.85 20.35 14.95 21.4 16.05 22.5 18.05 22.5 20.05 22.5 21.2 21.4 22.3 20.25 22.3 18.75 22.3 17.2 21.4 16.35 20.5 15.45 19.2 15.45 M18.05 17.45 Q18.6 17.45 18.95 17.85 19.3 18.2 19.3 18.75 19.3 19.35 18.95 19.75 18.65 20.15 18.05 20.15 17.45 20.15 17.15 19.8 16.85 19.4 16.85 18.75 16.85 18.1 17.2 17.75 17.55 17.45 18.05 17.45"/>
  </g>
</svg>