<svg xmlns="http://www.w3.org/2000/svg" xmlns:xlink="http://www.w3.org/1999/xlink">
  <defs/>
  <g>
    <path stroke="none" fill="#FFFFFF" d="M11.6 15.75 L11.6 20.85 Q11.6 21.55 12 22 12.4 22.4 13.15 22.4 13.9 22.4 14.3 22 14.7 21.55 14.7 20.85 L14.7 13.45 14.4 12.5 Q14.1 12.2 13.6 12.2 L12.7 12.4 10.35 13.25 Q9.4 13.6 9.4 14.55 9.4 15.15 9.8 15.55 10.15 15.95 10.8 15.95 L11.25 15.9 11.6 15.75 M21.15 22.5 Q23.3 22.5 24.7 21.15 26.1 19.75 26.1 17.3 26.1 14.9 24.65 13.45 23.2 12 21.15 12 19.05 12 17.65 13.45 16.2 14.9 16.2 17.3 16.2 19.75 17.6 21.15 19.05 22.5 21.15 22.5 M19.9 19.15 Q19.4 18.55 19.4 17.3 19.4 15.95 19.9 15.4 20.4 14.8 21.15 14.8 21.9 14.8 22.4 15.4 22.9 15.95 22.9 17.3 22.9 18.55 22.4 19.15 21.9 19.7 21.15 19.7 20.35 19.7 19.9 19.15 M27.95 8 Q28.85 8.1 29.45 8.85 30.1 9.55 30 10.5 29.7 19 25.25 24.65 22.55 28.05 19.05 29.75 L18.05 30 17.05 29.75 Q13.5 28.05 10.8 24.65 6.35 19 6 10.5 6 9.55 6.6 8.85 7.2 8.1 8.1 8 12.05 7.65 16.05 4.6 16.95 4 18.05 4 19.1 4 20 4.6 24 7.6 27.95 8"/>
  </g>
</svg>