<svg xmlns="http://www.w3.org/2000/svg" xmlns:xlink="http://www.w3.org/1999/xlink">
  <defs/>
  <g>
    <path stroke="none" fill="#FFFFFF" d="M11.9 6 L24.05 6 Q30 6 30 11.95 L30 24.1 Q30 30 24.05 30 L11.9 30 Q6 30 6 24.1 L6 11.95 Q6 6 11.9 6 M14.6 23.65 Q14.6 22.7 13.95 22.05 13.3 21.4 12.35 21.4 11.4 21.4 10.75 22.05 10.1 22.7 10.1 23.65 10.1 24.55 10.75 25.25 11.4 25.9 12.35 25.9 13.3 25.9 13.95 25.25 14.6 24.55 14.6 23.65 M14.6 12.4 Q14.6 11.45 13.95 10.8 13.3 10.15 12.35 10.15 11.4 10.15 10.75 10.8 10.1 11.45 10.1 12.4 10.1 13.3 10.75 14 11.4 14.65 12.35 14.65 13.3 14.65 13.95 14 14.6 13.3 14.6 12.4 M25.85 23.65 Q25.85 22.7 25.2 22.05 24.55 21.4 23.6 21.4 22.65 21.4 22 22.05 21.35 22.7 21.35 23.65 21.35 24.55 22 25.25 22.65 25.9 23.6 25.9 24.55 25.9 25.2 25.25 25.85 24.55 25.85 23.65 M25.85 12.4 Q25.85 11.45 25.2 10.8 24.55 10.15 23.6 10.15 22.65 10.15 22 10.8 21.35 11.45 21.35 12.4 21.35 13.3 22 14 22.65 14.65 23.6 14.65 24.55 14.65 25.2 14 25.85 13.3 25.85 12.4"/>
  </g>
</svg>