<svg xmlns="http://www.w3.org/2000/svg" xmlns:xlink="http://www.w3.org/1999/xlink">
  <defs/>
  <g>
    <path stroke="none" fill="#FFFFFF" d="M25.9 12.4 Q25.9 11.45 25.2 10.8 24.6 10.15 23.65 10.15 22.7 10.15 22.05 10.8 21.4 11.45 21.4 12.4 21.4 13.3 22.05 13.95 22.7 14.65 23.65 14.65 24.6 14.65 25.2 13.95 25.9 13.3 25.9 12.4 M11.95 6 L24.1 6 Q30 6 30 11.95 L30 24.1 Q30 30 24.1 30 L11.95 30 Q6 30 6 24.1 L6 11.95 Q6 6 11.95 6 M14.65 23.65 Q14.65 22.7 13.95 22.05 13.35 21.4 12.4 21.4 11.45 21.4 10.8 22.05 10.15 22.7 10.15 23.65 10.15 24.55 10.8 25.2 11.45 25.9 12.4 25.9 13.35 25.9 13.95 25.2 14.65 24.55 14.65 23.65 M20.25 18 Q20.25 17.05 19.6 16.4 18.95 15.75 18 15.75 17.05 15.75 16.4 16.4 15.75 17.05 15.75 18 15.75 18.95 16.4 19.6 17.05 20.25 18 20.25 18.95 20.25 19.6 19.6 20.25 18.95 20.25 18 M14.65 12.4 Q14.65 11.45 13.95 10.8 13.35 10.15 12.4 10.15 11.45 10.15 10.8 10.8 10.15 11.45 10.15 12.4 10.15 13.3 10.8 13.95 11.45 14.65 12.4 14.65 13.35 14.65 13.95 13.95 14.65 13.3 14.65 12.4 M25.9 23.65 Q25.9 22.7 25.2 22.05 24.6 21.4 23.65 21.4 22.7 21.4 22.05 22.05 21.4 22.7 21.4 23.65 21.4 24.55 22.05 25.2 22.7 25.9 23.65 25.9 24.6 25.9 25.2 25.2 25.9 24.55 25.9 23.65"/>
  </g>
</svg>