<svg xmlns="http://www.w3.org/2000/svg" xmlns:xlink="http://www.w3.org/1999/xlink">
  <defs/>
  <g>
    <path stroke="none" fill="#FFFFFF" d="M17.2 15.75 L17.2 20.85 Q17.2 21.55 17.6 22 18 22.4 18.75 22.4 19.5 22.4 19.9 22 20.3 21.55 20.3 20.85 L20.3 13.45 20 12.5 Q19.7 12.2 19.2 12.2 L18.3 12.4 15.95 13.25 Q15 13.6 15 14.55 15 15.15 15.4 15.55 15.75 15.95 16.4 15.95 L16.85 15.9 17.2 15.75 M27.95 8 Q28.85 8.1 29.45 8.85 30.1 9.55 30 10.5 29.7 19 25.25 24.65 22.55 28.05 19.05 29.75 L18.05 30 17.05 29.75 Q13.5 28.05 10.8 24.65 6.35 19 6 10.5 6 9.55 6.6 8.85 7.2 8.1 8.1 8 12.05 7.65 16.05 4.6 16.95 4 18.05 4 19.1 4 20 4.6 24 7.6 27.95 8"/>
  </g>
</svg>