<svg xmlns="http://www.w3.org/2000/svg" xmlns:xlink="http://www.w3.org/1999/xlink">
  <defs/>
  <g>
    <path stroke="none" fill="#FFFFFF" d="M30 16 Q30 21.8 25.9 25.85 21.8 30 16 30 10.2 30 6.1 25.85 2 21.8 2 16 2 10.2 6.1 6.05 10.2 2 16 2 21.8 2 25.9 6.05 30 10.2 30 16 M15.2 14.75 L15.2 19.85 Q15.2 20.55 15.6 21 16 21.4 16.75 21.4 17.5 21.4 17.9 21 18.3 20.55 18.3 19.85 L18.3 12.45 18 11.5 Q17.7 11.2 17.2 11.2 L16.3 11.4 13.95 12.25 Q13 12.6 13 13.55 13 14.15 13.4 14.55 13.75 14.95 14.4 14.95 L14.85 14.9 15.2 14.75"/>
  </g>
</svg>