<svg xmlns="http://www.w3.org/2000/svg" xmlns:xlink="http://www.w3.org/1999/xlink">
  <defs/>
  <g>
    <path stroke="none" fill="#FFFFFF" d="M17.85 22.5 Q19.65 22.5 20.7 21.75 21.75 21 21.75 19.6 21.75 18.7 21.25 18.05 20.75 17.35 19.95 17.15 L19.95 17.1 Q20.65 16.8 21.1 16.15 21.5 15.55 21.5 14.8 21.5 13.5 20.55 12.75 19.55 12 17.85 12 16.1 12 15.05 12.6 14.25 13.05 14.25 13.95 14.25 14.45 14.55 14.85 14.9 15.2 15.45 15.2 L16.3 15 17.25 14.8 Q18.1 14.8 18.1 15.45 L17.85 15.95 17.2 16.15 16.25 16.15 Q15.8 16.15 15.5 16.45 15.15 16.75 15.15 17.2 15.15 17.7 15.45 17.95 15.75 18.25 16.25 18.25 L17.1 18.25 Q18.3 18.25 18.3 19 18.3 19.7 17.25 19.7 L16.3 19.5 15.45 19.3 Q14.9 19.3 14.55 19.65 14.25 20.05 14.25 20.6 14.25 21.45 15.1 21.9 16.05 22.5 17.85 22.5 M27.95 8 Q28.85 8.1 29.45 8.85 30.1 9.55 30 10.5 29.7 19 25.25 24.65 22.55 28.05 19.05 29.75 L18.05 30 17.05 29.75 Q13.5 28.05 10.8 24.65 7.55 20.55 6.5 14.95 6.1 12.85 6 10.5 6 9.65 6.5 9 L6.6 8.85 Q7.2 8.1 8.1 8 12.05 7.65 16.05 4.6 16.95 4 18.05 4 19.1 4 20 4.6 24 7.6 27.95 8"/>
  </g>
</svg>