<svg xmlns="http://www.w3.org/2000/svg" xmlns:xlink="http://www.w3.org/1999/xlink">
  <defs/>
  <g>
    <path stroke="none" fill="#FFFFFF" d="M25.7 18.55 L25.75 18.45 25.95 17.75 26 17.1 26 16.9 25.9 16.1 25.6 15.3 25.15 14.55 25.1 14.5 24.5 13.95 24.45 13.9 23.6 13.35 23.55 13.35 22.55 13.05 22.5 13.05 21 13.15 Q20.2 13.25 19.6 13.7 L19.35 13.85 19.1 14.2 19.1 14.6 19.25 14.95 20.15 15.85 Q20.35 16.05 20.6 16.05 L21.1 15.95 21.35 15.8 21.85 15.65 22.3 15.75 22.35 15.75 22.75 15.95 23.1 16.3 23.25 16.7 23.25 16.8 23.3 17.25 23.1 17.65 22.75 18 22.35 18.25 22.3 18.25 21.75 18.3 21.3 18.15 21.2 18.15 20.85 17.9 17.2 14.35 17 14.15 16.95 14.1 16.65 13.9 16.7 13.9 15.9 13.4 15.85 13.4 15.05 13.1 14.95 13.05 13.8 13.05 12.7 13.25 Q12.15 13.45 11.75 13.75 L10.95 14.5 10.3 15.5 10 16.6 10.05 16.55 10.05 17.6 10.3 18.55 11.2 19.8 11.2 19.85 12.45 20.7 12.55 20.7 13.75 21 13.8 21 15.1 20.9 15.15 20.9 16.05 20.5 16.1 20.5 16.65 20.15 16.9 19.85 16.95 19.45 16.75 19.05 15.85 18.15 15.35 17.95 14.85 18.1 14.8 18.15 14.75 18.15 14.4 18.3 14 18.3 13.6 18.2 13.5 18.15 13.15 18 12.95 17.7 12.9 17.65 12.75 17.25 12.7 16.85 12.8 16.5 12.8 16.45 13.1 16.1 13.35 15.9 13.45 15.85 13.85 15.7 13.9 15.7 14.25 15.7 14.3 15.7 14.7 15.8 14.75 15.85 15.1 16.05 15.1 16.15 19 19.85 19.75 20.4 19.8 20.45 20.6 20.8 20.65 20.8 21.85 21 23.05 20.8 23 20.85 Q23.7 20.65 24.35 20.25 L24.35 20.2 25.35 19.2 25.7 18.55 M27.95 8 Q28.85 8.1 29.45 8.85 30.1 9.55 30 10.5 29.7 19 25.25 24.65 22.55 28.05 19.05 29.75 L18.05 30 17.05 29.75 Q13.5 28.05 10.8 24.65 6.35 19 6 10.5 6 9.55 6.6 8.85 7.2 8.1 8.1 8 12.05 7.65 16.05 4.6 16.95 4 18.05 4 19.1 4 20 4.6 24 7.6 27.95 8"/>
  </g>
</svg>