<svg xmlns="http://www.w3.org/2000/svg" xmlns:xlink="http://www.w3.org/1999/xlink">
  <defs/>
  <g>
    <path stroke="none" fill="#FFFFFF" d="M21.7 15.35 Q21.7 13.85 20.75 12.9 19.8 12 17.85 12 15.8 12 14.6 12.95 13.9 13.5 13.9 14.25 13.9 14.75 14.25 15.15 14.55 15.55 15.1 15.55 L16.2 15.2 Q16.85 14.85 17.35 14.85 L18.1 15.1 18.35 15.8 Q18.35 17.05 15.3 19.3 L14.95 19.6 14.6 19.9 14.35 20.15 14.1 20.45 14 20.75 13.95 21.15 Q13.95 21.7 14.3 22.05 14.65 22.4 15.3 22.4 L20.75 22.4 Q21.45 22.4 21.8 22.05 22.15 21.75 22.15 21.1 22.15 20.5 21.8 20.15 L20.75 19.85 18.9 19.85 18.9 19.8 Q21.7 17.4 21.7 15.35 M27.95 8 Q28.85 8.1 29.45 8.85 30.1 9.55 30 10.5 29.7 19 25.25 24.65 22.55 28.05 19.05 29.75 L18.05 30 17.05 29.75 Q13.5 28.05 10.8 24.65 6.35 19 6 10.5 6 9.55 6.6 8.85 7.2 8.1 8.1 8 12.05 7.65 16.05 4.6 16.95 4 18.05 4 19.1 4 20 4.6 24 7.6 27.95 8"/>
  </g>
</svg>