<svg xmlns="http://www.w3.org/2000/svg" xmlns:xlink="http://www.w3.org/1999/xlink">
  <defs/>
  <g>
    <path stroke="none" fill="#FFFFFF" d="M25.9 12.35 Q25.9 11.4 25.2 10.75 24.6 10.1 23.65 10.1 22.7 10.1 22.05 10.75 21.4 11.4 21.4 12.35 21.4 13.3 22.05 13.95 22.7 14.6 23.65 14.6 24.6 14.6 25.2 13.95 25.9 13.3 25.9 12.35 M11.95 6 L24.1 6 Q30 6 30 11.9 L30 24.1 Q30 30 24.1 30 L11.95 30 Q6 30 6 24.1 L6 11.9 Q6 6 11.95 6 M14.65 23.6 Q14.65 22.65 13.95 22 13.35 21.35 12.4 21.35 11.45 21.35 10.8 22 10.15 22.65 10.15 23.6 10.15 24.55 10.8 25.2 11.45 25.85 12.4 25.85 13.35 25.85 13.95 25.2 14.65 24.55 14.65 23.6 M14.65 18 Q14.65 17.05 13.95 16.4 13.35 15.75 12.4 15.75 11.45 15.75 10.8 16.4 10.15 17.05 10.15 18 10.15 18.9 10.8 19.6 11.45 20.25 12.4 20.25 13.35 20.25 13.95 19.6 14.65 18.9 14.65 18 M14.65 12.35 Q14.65 11.4 13.95 10.75 13.35 10.1 12.4 10.1 11.45 10.1 10.8 10.75 10.15 11.4 10.15 12.35 10.15 13.3 10.8 13.95 11.45 14.6 12.4 14.6 13.35 14.6 13.95 13.95 14.65 13.3 14.65 12.35 M25.9 23.6 Q25.9 22.65 25.2 22 24.6 21.35 23.65 21.35 22.7 21.35 22.05 22 21.4 22.65 21.4 23.6 21.4 24.55 22.05 25.2 22.7 25.85 23.65 25.85 24.6 25.85 25.2 25.2 25.9 24.55 25.9 23.6 M25.9 18 Q25.9 17.05 25.2 16.4 24.6 15.75 23.65 15.75 22.7 15.75 22.05 16.4 21.4 17.05 21.4 18 21.4 18.9 22.05 19.6 22.7 20.25 23.65 20.25 24.6 20.25 25.2 19.6 25.9 18.9 25.9 18"/>
  </g>
</svg>