<svg xmlns="http://www.w3.org/2000/svg" xmlns:xlink="http://www.w3.org/1999/xlink">
  <defs/>
  <g>
    <path stroke="none" fill="#FFFFFF" d="M30 16 Q30 21.8 25.9 25.85 21.8 30 16 30 10.2 30 6.1 25.85 2 21.8 2 16 2 10.2 6.1 6.05 10.2 2 16 2 21.8 2 25.9 6.05 30 10.2 30 16 M15.85 21.5 Q17.65 21.5 18.7 20.75 19.75 20 19.75 18.6 19.75 17.7 19.25 17.05 18.75 16.35 17.95 16.15 L17.95 16.1 19.1 15.15 Q19.5 14.55 19.5 13.8 19.5 12.5 18.55 11.75 17.55 11 15.85 11 14.1 11 13.05 11.6 12.25 12.05 12.25 12.95 12.25 13.45 12.55 13.85 12.9 14.2 13.45 14.2 L14.3 14 15.25 13.8 Q16.1 13.8 16.1 14.45 L15.85 14.95 15.2 15.15 14.25 15.15 Q13.8 15.15 13.5 15.45 13.15 15.75 13.15 16.2 13.15 16.7 13.45 16.95 L14.25 17.25 15.1 17.25 Q16.3 17.25 16.3 18 16.3 18.7 15.25 18.7 L14.3 18.5 13.45 18.3 Q12.9 18.3 12.55 18.65 12.25 19.05 12.25 19.6 12.25 20.45 13.1 20.9 14.05 21.5 15.85 21.5"/>
  </g>
</svg>