<svg xmlns="http://www.w3.org/2000/svg" xmlns:xlink="http://www.w3.org/1999/xlink">
  <defs/>
  <g>
    <path stroke="none" fill="#FFFFFF" d="M26.6 18.65 L26.65 18.55 26.95 17.6 26.95 17.55 27 16.65 27 16.4 26.9 15.3 26.5 14.2 25.85 13.15 25.8 13.1 24.95 12.3 24.9 12.25 Q24.3 11.8 23.7 11.5 L23.65 11.5 22.25 11.1 22.2 11.05 20.15 11.2 20.2 11.2 Q19.05 11.35 18.2 12 L17.9 12.2 Q17.65 12.35 17.55 12.65 17.4 12.9 17.5 13.2 L17.75 13.7 19 14.95 Q19.25 15.2 19.6 15.25 L20.25 15.05 20.6 14.9 20.65 14.85 21.3 14.7 21.95 14.8 22 14.8 22.55 15.1 23.05 15.6 23 15.6 23.25 16.15 23.25 16.25 23.3 16.85 23.05 17.45 22.55 17.95 22 18.25 21.9 18.25 21.2 18.35 20.55 18.15 20.45 18.1 19.95 17.75 14.95 12.9 14.65 12.6 14.55 12.5 14.15 12.25 14.25 12.25 13.1 11.55 13.05 11.55 11.95 11.15 11.8 11.1 10.25 11.05 8.75 11.35 Q8 11.6 7.4 12.05 6.75 12.45 6.3 13.1 L6.3 13.05 Q5.75 13.65 5.45 14.45 5.1 15.15 5.05 16 L5.1 15.9 Q4.95 16.6 5.1 17.4 L5.4 18.65 5.45 18.7 Q5.85 19.65 6.65 20.4 L6.7 20.45 8.4 21.65 8.5 21.65 10.2 22.05 10.25 22.05 12.05 21.9 12.1 21.9 13.35 21.4 13.4 21.4 14.15 20.9 14.5 20.45 14.55 19.9 14.3 19.4 13.05 18.15 Q12.75 17.85 12.4 17.85 12 17.8 11.7 18.05 L11.6 18.1 11.55 18.15 11.05 18.35 10.5 18.35 9.95 18.2 9.85 18.15 9.35 17.9 9.05 17.5 9 17.45 8.8 16.9 8.75 16.3 8.9 15.85 8.9 15.8 9.25 15.3 9.65 15 9.75 14.95 10.3 14.75 10.35 14.75 10.85 14.75 10.95 14.75 11.5 14.9 11.55 14.95 12 15.25 12.05 15.35 17.4 20.5 17.4 20.45 18.45 21.25 18.5 21.3 19.6 21.8 19.65 21.8 21.3 22.05 22.95 21.8 22.9 21.85 Q23.85 21.6 24.75 21 L24.75 20.95 26.1 19.6 26.1 19.55 26.6 18.65 M30 16 Q30 21.8 25.9 25.85 21.8 30 16 30 10.2 30 6.1 25.85 2 21.8 2 16 2 10.2 6.1 6.05 10.2 2 16 2 21.8 2 25.9 6.05 30 10.2 30 16"/>
  </g>
</svg>