<svg xmlns="http://www.w3.org/2000/svg" xmlns:xlink="http://www.w3.org/1999/xlink">
  <defs/>
  <g>
    <path stroke="none" fill="#FFFFFF" d="M30 16 Q30 21.8 25.9 25.85 21.8 30 16 30 10.2 30 6.1 25.85 2 21.8 2 16 2 10.2 6.1 6.05 10.2 2 16 2 21.8 2 25.9 6.05 30 10.2 30 16 M15.95 19.3 L15.2 19.05 Q14.9 18.75 14.9 18.2 14.9 17.6 15.2 17.3 15.5 17 16 17 16.5 17 16.75 17.3 L17.05 18.2 16.75 19 15.95 19.3 M15.95 14.8 Q15.1 14.8 15.1 13.85 15.05 12.95 16 12.95 16.45 12.95 16.65 13.25 L16.9 13.85 16.65 14.5 15.95 14.8 M19.1 20.7 L19.15 20.65 Q20.25 19.8 20.25 18.4 20.25 17.45 19.75 16.8 L19.15 16.3 18.35 15.9 18.35 15.85 19.15 15.35 19.45 15 Q19.85 14.4 19.85 13.65 19.85 12.65 19.15 12 L18.8 11.7 Q17.75 11 16 11 14.2 11 13.15 11.7 12.1 12.45 12.1 13.65 12.1 14.4 12.55 15 L13.6 15.85 13.6 15.9 Q12.75 16.2 12.2 16.85 11.7 17.5 11.7 18.4 11.7 19.85 12.85 20.7 14 21.5 16 21.5 17.95 21.5 19.1 20.7"/>
  </g>
</svg>