<svg xmlns="http://www.w3.org/2000/svg" xmlns:xlink="http://www.w3.org/1999/xlink">
  <defs/>
  <g>
    <path stroke="none" fill="#FFFFFF" d="M17.2 22.45 L18.1 22.2 18.65 21.3 21.6 14.55 21.8 13.65 Q21.8 12.9 21.4 12.5 L20.3 12.1 15.5 12.1 Q14.85 12.1 14.45 12.5 14.1 12.85 14.1 13.55 14.1 14.2 14.45 14.6 14.85 15 15.5 15 L18.25 14.95 15.8 20.45 15.65 21.1 Q15.65 21.65 16.1 22.05 16.5 22.45 17.2 22.45 M27.95 8 Q28.85 8.1 29.45 8.85 30.1 9.55 30 10.5 29.7 19 25.25 24.65 22.55 28.05 19.05 29.75 L18.05 30 17.05 29.75 Q13.5 28.05 10.8 24.65 6.35 19 6 10.5 6 9.55 6.6 8.85 7.2 8.1 8.1 8 12.05 7.65 16.05 4.6 16.95 4 18.05 4 19.1 4 20 4.6 24 7.6 27.95 8"/>
  </g>
</svg>