<svg xmlns="http://www.w3.org/2000/svg" xmlns:xlink="http://www.w3.org/1999/xlink">
  <defs/>
  <g>
    <path stroke="none" fill="#FFFFFF" d="M30 16 Q30 21.8 25.9 25.85 21.8 30 16 30 10.2 30 6.1 25.85 2 21.8 2 16 2 10.2 6.1 6.05 10.2 2 16 2 21.8 2 25.9 6.05 30 10.2 30 16 M15.2 21.45 L16.1 21.2 16.65 20.3 19.6 13.55 19.8 12.65 Q19.8 11.9 19.4 11.5 19 11.1 18.3 11.1 L13.5 11.1 Q12.85 11.1 12.45 11.5 12.1 11.85 12.1 12.55 12.1 13.2 12.45 13.6 12.85 14 13.5 14 L16.25 13.95 13.8 19.45 Q13.65 19.75 13.65 20.1 13.65 20.65 14.1 21.05 14.5 21.45 15.2 21.45"/>
  </g>
</svg>