<svg xmlns="http://www.w3.org/2000/svg" xmlns:xlink="http://www.w3.org/1999/xlink">
  <defs/>
  <g>
    <path stroke="none" fill="#FFFFFF" d="M30 16 Q30 21.8 25.9 25.85 21.8 30 16 30 10.2 30 6.1 25.85 2 21.8 2 16 2 10.2 6.1 6.05 10.2 2 16 2 21.8 2 25.9 6.05 30 10.2 30 16 M15.1 16.85 Q16.45 16.85 16.45 17.7 16.45 18.7 15.1 18.7 L14.15 18.5 13.2 18.3 Q12.7 18.3 12.35 18.65 12 19.05 12 19.6 12 20.35 12.7 20.8 13.7 21.5 15.6 21.5 17.45 21.5 18.6 20.6 19.8 19.65 19.8 17.95 19.8 16.35 18.8 15.6 17.8 14.8 16.25 14.8 L15.25 14.85 15.35 13.7 18.25 13.7 Q18.85 13.7 19.2 13.35 19.55 13 19.55 12.45 19.55 11.85 19.2 11.45 18.85 11.1 18.25 11.1 L14.8 11.1 Q13.65 11.1 13.2 11.45 12.75 11.85 12.65 13 L12.35 15.85 Q12.25 17.1 13.25 17.1 L14.15 16.95 15.1 16.85"/>
  </g>
</svg>