<svg xmlns="http://www.w3.org/2000/svg" xmlns:xlink="http://www.w3.org/1999/xlink">
  <defs/>
  <g>
    <path stroke="none" fill="#FFFFFF" d="M17.1 17.85 Q18.45 17.85 18.45 18.7 18.45 19.7 17.1 19.7 L16.15 19.5 15.2 19.3 Q14.7 19.3 14.35 19.65 14 20.05 14 20.6 14 21.35 14.7 21.8 15.7 22.5 17.6 22.5 19.45 22.5 20.6 21.6 21.8 20.65 21.8 18.95 21.8 17.35 20.8 16.6 19.8 15.8 18.25 15.8 L17.25 15.85 17.35 14.7 20.25 14.7 Q20.85 14.7 21.2 14.35 21.55 14 21.55 13.45 21.55 12.85 21.2 12.45 20.85 12.1 20.25 12.1 L16.8 12.1 Q15.65 12.1 15.2 12.45 14.75 12.85 14.65 14 L14.35 16.85 Q14.25 18.1 15.25 18.1 L16.15 17.95 17.1 17.85 M27.95 8 Q28.85 8.1 29.45 8.85 30.1 9.55 30 10.5 29.7 19 25.25 24.65 22.55 28.05 19.05 29.75 L18.05 30 17.05 29.75 Q13.5 28.05 10.8 24.65 6.35 19 6 10.5 6 9.55 6.6 8.85 7.2 8.1 8.1 8 12.05 7.65 16.05 4.6 16.95 4 18.05 4 19.1 4 20 4.6 24 7.6 27.95 8"/>
  </g>
</svg>