<svg xmlns="http://www.w3.org/2000/svg" xmlns:xlink="http://www.w3.org/1999/xlink">
  <defs/>
  <g>
    <path stroke="none" fill="#FFFFFF" d="M11.95 6 L24.1 6 Q30 6 30 11.9 L30 24.1 Q30 30 24.1 30 L11.95 30 Q6 30 6 24.1 L6 11.9 Q6 6 11.95 6 M12.7 15.85 L14.8 18 12.7 20.2 Q12 20.8 12 21.75 12 22.7 12.7 23.35 13.3 24 14.25 24 15.2 24 15.85 23.35 L18 21.2 20.2 23.35 Q20.8 24 21.75 24 22.7 24 23.35 23.35 24 22.7 24 21.75 24 20.8 23.35 20.2 L21.2 18 23.35 15.85 Q24 15.2 24 14.25 24 13.3 23.35 12.7 22.7 12 21.75 12 20.8 12 20.2 12.7 L18 14.8 15.85 12.7 Q15.2 12 14.25 12 13.3 12 12.7 12.7 12 13.3 12 14.25 12 15.2 12.7 15.85"/>
  </g>
</svg>