<svg xmlns="http://www.w3.org/2000/svg" xmlns:xlink="http://www.w3.org/1999/xlink">
  <defs/>
  <g>
    <path stroke="none" fill="#FFFFFF" d="M0 -20 Q8.25 -20 14.1 -14.15 20 -8.3 20 0 20 8.25 14.15 14.1 L14.1 14.15 Q8.25 20 0 20 -8.3 20 -14.15 14.1 -20 8.25 -20 0 -20 -8.3 -14.15 -14.15 -8.3 -20 0 -20 M32 0 Q32 13.25 22.6 22.6 13.25 32 0 32 -13.25 32 -22.65 22.6 -32 13.25 -32 0 -32 -13.25 -22.65 -22.65 -13.25 -32 0 -32 13.25 -32 22.6 -22.65 32 -13.25 32 0 M0 -26 Q-10.75 -26 -18.4 -18.4 -26 -10.75 -26 0 -26 10.75 -18.4 18.35 -10.75 26 0 26 10.75 26 18.35 18.4 L18.4 18.35 Q26 10.75 26 0 26 -10.75 18.35 -18.4 10.75 -26 0 -26"/>
  </g>
</svg>