<svg xmlns="http://www.w3.org/2000/svg" xmlns:xlink="http://www.w3.org/1999/xlink">
  <defs/>
  <g>
    <path stroke="none" fill="#FFFFFF" d="M-20 0 Q-20 -8.3 -14.15 -14.15 -9.55 -18.75 -3.4 -19.7 L-1.75 -19.5 Q-0.95 -19.15 -0.45 -18.4 0.05 -17.65 0.05 -16.75 L0.05 16.8 Q0.05 17.65 -0.45 18.4 -0.95 19.15 -1.75 19.55 L-3.4 19.75 Q-9.55 18.75 -14.15 14.15 L-14.35 13.9 Q-20 8.1 -20 0 M0 -26 Q-10.75 -26 -18.4 -18.4 -26 -10.75 -26 0 -26 10.75 -18.4 18.35 -10.75 26 0 26 L0.05 26 Q10.75 26 18.35 18.4 L18.4 18.35 Q26 10.75 26 0 26 -10.75 18.35 -18.4 10.75 -26 0.05 -26 L0 -26 M32 0 Q32 13.25 22.6 22.6 13.25 32 0.05 32 L0 32 Q-13.25 32 -22.65 22.6 -32 13.25 -32 0 -32 -13.25 -22.65 -22.65 -13.25 -32 0 -32 L0.05 -32 Q13.25 -32 22.6 -22.65 32 -13.25 32 0"/>
  </g>
</svg>