<svg xmlns="http://www.w3.org/2000/svg" xmlns:xlink="http://www.w3.org/1999/xlink">
  <defs/>
  <g>
    <path stroke="none" fill="#FFFFFF" d="M0 -26 Q-10.75 -26 -18.4 -18.4 -26 -10.75 -26 0 -26 10.75 -18.4 18.35 -10.75 26 0 26 L0.05 26 Q10.75 26 18.35 18.4 L18.4 18.35 Q26 10.75 26 0 26 -10.75 18.35 -18.4 10.75 -26 0.05 -26 L0 -26 M32 0 Q32 13.25 22.6 22.6 13.25 32 0.05 32 L0 32 Q-13.25 32 -22.65 22.6 -32 13.25 -32 0 -32 -13.25 -22.65 -22.65 -13.25 -32 0 -32 L0.05 -32 Q13.25 -32 22.6 -22.65 32 -13.25 32 0"/>
  </g>
</svg>