<svg xmlns="http://www.w3.org/2000/svg" xmlns:xlink="http://www.w3.org/1999/xlink">
  <defs/>
  <g>
    <path stroke="none" fill="#FFFFFF" d="M0 -26 L-0.05 -26 Q-10.75 -26 -18.35 -18.4 -26 -10.75 -26 0 -26 10.75 -18.4 18.35 L-18.35 18.4 Q-10.75 26 -0.05 26 L0 26 Q10.75 26 18.4 18.35 26 10.75 26 0 26 -10.75 18.4 -18.4 10.75 -26 0 -26 M20 0 Q20 8.1 14.35 13.9 L14.15 14.15 Q8.3 20 0 20 L-0.05 20 Q-8.25 20 -14.1 14.15 L-14.15 14.1 Q-18.7 9.55 -19.7 3.5 -19.85 2.6 -19.5 1.8 -19.15 1 -18.4 0.5 -17.65 0 -16.75 0 L-0.05 0 -0.05 -16.75 Q-0.05 -17.65 0.45 -18.4 0.95 -19.15 1.75 -19.5 L3.4 -19.7 Q9.55 -18.75 14.15 -14.15 20 -8.3 20 0 M-32 0 Q-32 -13.25 -22.6 -22.65 -13.25 -32 -0.05 -32 L0 -32 Q13.25 -32 22.65 -22.65 32 -13.25 32 0 32 13.25 22.65 22.6 13.25 32 0 32 L-0.05 32 Q-13.25 32 -22.6 22.6 -32 13.25 -32 0"/>
  </g>
</svg>