<svg xmlns="http://www.w3.org/2000/svg" xmlns:xlink="http://www.w3.org/1999/xlink">
  <defs/>
  <g>
    <path stroke="none" fill="#FFFFFF" d="M-8.55 22.55 Q-10.45 20.65 -11.8 18.55 -17.85 17.25 -22.55 12.55 -29 6.1 -29 -3 L-29 -5 -29 -7 Q-29 -16.1 -22.55 -22.55 -16.1 -29 -7 -29 2.1 -29 8.55 -22.55 10.45 -20.65 11.8 -18.5 17.85 -17.25 22.55 -12.55 28.2 -6.9 28.9 0.8 L28.95 8.65 Q28.4 16.7 22.55 22.5 L22.5 22.55 Q16.1 29 7 29 -2.1 29 -8.55 22.55 M9 -7 Q9 -10.2 7.9 -12.95 6.7 -15.9 4.3 -18.3 L3.8 -18.8 Q-0.75 -23 -7 -23 -13.6 -23 -18.3 -18.35 L-18.35 -18.3 Q-23 -13.6 -23 -7 L-22.9 -5 Q-22.3 0.35 -18.3 4.3 L-15 6.9 Q-11.8 8.8 -7.9 9 L-7 9 Q-0.4 9 4.3 4.3 8.25 0.35 8.9 -4.95 L9 -7 M23 3 Q23 -3.6 18.3 -8.3 L14.65 -11.05 14.9 -9.2 14.95 -1.35 Q14.4 6.7 8.55 12.5 L8.5 12.55 Q4.95 16.1 0.6 17.7 3.55 19 7 19 13.6 19 18.3 14.3 22.25 10.35 22.9 5.05 L23 3"/>
  </g>
</svg>