<svg xmlns="http://www.w3.org/2000/svg" xmlns:xlink="http://www.w3.org/1999/xlink">
  <defs/>
  <g>
    <path stroke="none" fill="#FFFFFF" d="M-22 -2 Q-22 -11.1 -15.55 -17.55 -9.1 -24 0 -24 9.1 -24 15.55 -17.55 21.2 -11.9 21.9 -4.2 L21.95 2.05 Q19.3 1.75 17.6 3.6 L15.5 5.7 14.55 4.75 Q15.6 2.55 15.9 0.05 L16 -2 Q16 -8.6 11.3 -13.3 6.6 -18 0 -18 -6.6 -18 -11.3 -13.35 L-11.35 -13.3 Q-16 -8.6 -16 -2 L-15.9 0 Q-15.3 5.35 -11.3 9.3 -6.6 14 0 14 L3.8 13.6 5.7 15.5 3.6 17.6 Q1.7 19.35 2.05 22.4 L2.15 22.5 2.5 23.9 0 24 Q-9.1 24 -15.55 17.55 -22 11.1 -22 2 L-22 0 -22 -2 M11.3 5.7 L15.5 9.9 19.7 5.7 Q20.5 4.85 21.85 5 L21.95 5 Q23.45 5.25 24.6 6.4 25.8 7.6 25.9 8.95 26.15 10.4 25.3 11.3 L21.1 15.5 25.3 19.7 Q26.2 20.55 25.95 22.05 25.8 23.4 24.6 24.6 23.45 25.75 22 26 20.6 26.15 19.7 25.3 L15.5 21.1 11.3 25.3 Q10.45 26.15 8.95 25.95 7.6 25.8 6.4 24.6 L5.5 23.35 Q5.1 22.7 5 22 4.85 20.55 5.7 19.7 L9.9 15.5 5.7 11.3 Q4.85 10.4 5.05 9 5.25 7.55 6.4 6.4 7.6 5.2 9 5.05 10.45 4.8 11.3 5.7"/>
  </g>
</svg>