<svg xmlns="http://www.w3.org/2000/svg" xmlns:xlink="http://www.w3.org/1999/xlink">
  <defs/>
  <g>
    <path stroke="none" fill="#FFFFFF" d="M-22 -2 Q-22 -11.1 -15.55 -17.55 -9.1 -24 0 -24 9.1 -24 15.55 -17.55 21.2 -11.9 21.9 -4.2 L21.95 2.8 20.7 1.6 Q18.85 0 16 0 L15.9 0 16 -2 Q16 -8.6 11.3 -13.3 6.6 -18 0 -18 -6.6 -18 -11.3 -13.35 L-11.35 -13.3 Q-16 -8.6 -16 -2 L-15.9 0 Q-15.3 5.35 -11.3 9.3 -6.6 14 0 14 L0.25 14 Q0 14.95 0 16 0.05 18.7 1.5 20.65 3.3 23.1 6 23 L6.75 23 Q3.6 24 0 24 -9.1 24 -15.55 17.55 -22 11.1 -22 2 L-22 0 -22 -2 M6 12 L12 12 12 6 Q12 4.75 13.15 3.9 14.05 3.2 15.25 3.05 L16 3 Q17.7 3 18.8 3.9 20 4.75 20 6 L20 12 26 12 Q27.25 12 28.15 13.2 29 14.3 29 16 29 17.65 28.15 18.85 27.25 20 26 20 L20 20 20 26 Q20 27.25 18.8 28.15 17.7 29 16 29 14.35 29 13.15 28.15 12 27.25 12 26 L12 20 6 20 Q4.75 20 3.9 18.85 3 17.65 3 16 3 14.6 3.6 13.65 L3.9 13.2 Q4.75 12 6 12"/>
  </g>
</svg>