<svg xmlns="http://www.w3.org/2000/svg" xmlns:xlink="http://www.w3.org/1999/xlink">
  <defs/>
  <g>
    <path stroke="none" fill="#FFFFFF" d="M-5.25 9.8 Q-5.95 10.25 -6.75 10.05 L-8 9.2 Q-8.5 8.5 -8.3 7.7 -8.1 6.85 -7.4 6.45 L-6.75 6.05 Q-15.3 3.35 -19.85 6.4 -21.2 7.4 -22.8 7.2 -24.45 6.95 -25.45 5.65 -26.5 4.3 -26.25 2.7 -26.05 1.05 -24.75 0.05 -18.55 -5.2 -7.35 -2.45 -7.75 -3.1 -7.65 -3.8 -7.6 -4.65 -6.95 -5.15 -6.3 -5.7 -5.45 -5.55 -4.65 -5.5 -4.1 -4.85 L-0.35 -0.05 Q0.55 0.55 1.05 1.65 L1.15 1.8 1.85 2.7 2.25 3.75 2.05 4.8 1.35 5.65 -5.25 9.8 M-15.55 17.55 Q-19.05 14.05 -20.65 9.8 -19.1 9.5 -17.75 8.5 -15.75 7.35 -12.9 7.45 L-11.3 9.3 -10.2 10.3 -10.15 10.35 Q-9.15 12.1 -7.2 12.6 L-6.35 12.75 Q-3.45 14 0 14 6.6 14 11.3 9.3 15.25 5.35 15.9 0.05 L16 -2 Q16 -8.6 11.3 -13.3 6.6 -18 0 -18 -6.6 -18 -11.3 -13.35 L-11.35 -13.3 Q-14.2 -10.4 -15.3 -6.8 -18.85 -6.65 -21.75 -5.45 -20.75 -12.35 -15.55 -17.55 -9.1 -24 0 -24 9.1 -24 15.55 -17.55 21.2 -11.9 21.9 -4.2 L21.95 3.65 Q21.4 11.7 15.55 17.5 L15.5 17.55 Q9.1 24 0 24 -9.1 24 -15.55 17.55"/>
  </g>
</svg>