<svg xmlns="http://www.w3.org/2000/svg" xmlns:xlink="http://www.w3.org/1999/xlink">
  <defs/>
  <g>
    <path stroke="none" fill="#FFFFFF" d="M0.25 8.75 Q-1.05 7.7 -1.25 6.1 -1.5 4.45 -0.45 3.15 0.55 1.8 2.2 1.6 3.8 1.35 5.15 2.4 9.7 5.4 18.25 2.75 L17.6 2.35 Q16.9 1.9 16.7 1.1 16.5 0.3 16.95 -0.4 17.4 -1.1 18.2 -1.3 L19.7 -1.05 26.3 3.1 27.05 3.95 27.25 5.05 26.8 6.05 26.15 6.9 26.05 7.1 24.6 8.85 20.85 13.6 Q20.35 14.25 19.55 14.35 18.7 14.4 18.05 13.9 17.4 13.4 17.35 12.6 17.25 11.8 17.7 11.2 6.45 13.95 0.25 8.75 M-22 -2 Q-22 -11.1 -15.55 -17.55 -9.1 -24 0 -24 9.1 -24 15.55 -17.55 21.2 -11.9 21.9 -4.2 L21.9 -3.1 21.6 -3.3 Q19.9 -4.3 17.8 -3.85 16.75 -3.6 16 -2.95 15.65 -8.95 11.3 -13.3 6.6 -18 0 -18 -6.6 -18 -11.3 -13.35 L-11.35 -13.3 Q-16 -8.6 -16 -2 L-15.9 0 Q-15.3 5.35 -11.3 9.3 -6.6 14 0 14 L2.45 13.85 Q7.7 16.35 15.2 15.2 L16.4 16.65 15.55 17.5 15.5 17.55 Q9.1 24 0 24 -9.1 24 -15.55 17.55 -22 11.1 -22 2 L-22 0 -22 -2"/>
  </g>
</svg>