<svg xmlns="http://www.w3.org/2000/svg" xmlns:xlink="http://www.w3.org/1999/xlink">
  <defs/>
  <g>
    <path stroke="none" fill="#FFFFFF" d="M-22 -2 Q-22 -11.1 -15.55 -17.55 -9.1 -24 0 -24 9.1 -24 15.55 -17.55 21.2 -11.9 21.9 -4.2 L21.95 3.65 Q21.75 6.45 20.95 9 L11.6 9 Q15.25 5.15 15.9 0.05 L16 -2 Q16 -8.6 11.3 -13.3 6.6 -18 0 -18 -6.6 -18 -11.3 -13.35 L-11.35 -13.3 Q-16 -8.6 -16 -2 L-15.9 0 Q-15.3 5.35 -11.3 9.3 -6.6 14 0 14 L1.25 13.95 Q1 14.9 1 16 1.05 18.7 2.5 20.65 4.2 23 6.75 23 3.6 24 0 24 -9.1 24 -15.55 17.55 -22 11.1 -22 2 L-22 0 -22 -2 M7 12 L25 12 Q26.25 12 27.15 13.2 28 14.3 28 16 28 17.65 27.15 18.85 26.25 20 25 20 L7 20 Q5.75 20 4.9 18.85 4 17.65 4 16 4 14.35 4.85 13.3 L4.9 13.2 Q5.75 12 7 12"/>
  </g>
</svg>