<svg xmlns="http://www.w3.org/2000/svg" xmlns:xlink="http://www.w3.org/1999/xlink">
  <defs/>
  <g>
    <path stroke="none" fill="#FFFFFF" d="M-6 14 Q-6 10.3 -8.65 7.65 -11.3 5 -15 5 -17.8 5 -20 6.5 L-21.35 7.6 -21.4 7.65 Q-24 10.3 -24 14 -24 17.7 -21.35 20.35 -18.7 23 -15 23 -11.3 23 -8.65 20.35 -6 17.7 -6 14 M23 8 Q23 4.3 20.35 1.65 17.7 -1 14 -1 10.4 -1 7.85 1.45 L7.65 1.6 7.6 1.65 Q5 4.3 5 8 5 11.7 7.65 14.35 10.3 17 14 17 17.7 17 20.35 14.35 23 11.7 23 8 M2 -17 Q2 -20.7 -0.65 -23.35 -3.3 -26 -7 -26 -10.7 -26 -13.35 -23.4 L-13.4 -23.35 Q-16 -20.7 -16 -17 -16 -15.7 -15.65 -14.5 -15.05 -12.35 -13.35 -10.65 -10.7 -8 -7 -8 -3.3 -8 -0.65 -10.65 1.05 -12.35 1.7 -14.5 L2 -17 M-22 -4 L-21.8 -6.5 -22 -9 -22 -9.5 -22 -10 -22 -10.5 -22 -11 -22 -11.5 -22 -12 -21.95 -13 -22 -14 -22 -14.5 -22 -15 -22 -15.5 -22 -16 -22 -16.5 -22 -17 Q-22 -23.15 -17.6 -27.6 -13.15 -32 -7 -32 -0.8 -32 3.6 -27.6 8 -23.2 8 -17 L8 -16.5 8 -16 8 -15.5 8 -15 8 -14.5 8 -14 8 -13 8 -12 8 -11.5 8 -11 8 -10.5 8 -10 8 -9.5 8 -9 7.8 -6.5 7.9 -5.75 Q10.7 -7 14 -7 20.2 -7 24.6 -2.6 29 1.8 29 8 L29 8.5 29 9 29 9.5 29 10 29 10.5 29 11 Q29 17.2 24.6 21.55 L24.55 21.6 Q20.2 26 14 26 7.8 26 3.4 21.6 1.1 19.3 0 16.5 L0 17 Q0 23.2 -4.4 27.55 L-4.45 27.6 Q-8.8 32 -15 32 -21.2 32 -25.6 27.6 -30 23.2 -30 17 L-30 16.5 -30 16 -30 15.5 -30 15 -30 14.5 -30 14 Q-30 7.85 -25.6 3.4 -23.9 1.7 -21.9 0.7 L-22 -1 -22 -1.5 -22 -2 -22 -2.5 -22 -3 -22 -3.5 -22 -4"/>
  </g>
</svg>