<svg xmlns="http://www.w3.org/2000/svg" xmlns:xlink="http://www.w3.org/1999/xlink">
  <defs/>
  <g>
    <path stroke="none" fill="#FFFFFF" d="M-22 -2 Q-22 -11.1 -15.55 -17.55 -9.1 -24 0 -24 9.1 -24 15.55 -17.55 21.2 -11.9 21.9 -4.2 L21.95 3.65 Q21.4 11.7 15.55 17.5 L15.5 17.55 Q9.1 24 0 24 -9.1 24 -15.55 17.55 -22 11.1 -22 2 L-22 0 -22 -2 M16 -2 Q16 -8.6 11.3 -13.3 6.6 -18 0 -18 -6.6 -18 -11.3 -13.35 L-11.35 -13.3 Q-16 -8.6 -16 -2 L-15.9 0 Q-15.3 5.35 -11.3 9.3 -6.6 14 0 14 6.6 14 11.3 9.3 15.25 5.35 15.9 0.05 L16 -2"/>
  </g>
</svg>