<svg xmlns="http://www.w3.org/2000/svg" xmlns:xlink="http://www.w3.org/1999/xlink">
  <defs/>
  <g>
    <path stroke="none" fill="#FFFFFF" d="M16 -2 Q16 -8.6 11.3 -13.3 6.6 -18 0 -18 -6.6 -18 -11.3 -13.35 L-11.35 -13.3 Q-16 -8.6 -16 -2 L-15.9 0 Q-15.3 5.35 -11.3 9.3 -8.85 11.75 -5.85 12.95 L-6.7 13.55 -6.65 13.55 -8.25 14.85 -9.4 14.9 Q-12.3 15.15 -14.25 17.35 L-14.3 17.45 -14.85 18.25 -15.55 17.55 Q-22 11.1 -22 2 L-22 0 -22 -2 Q-22 -11.1 -15.55 -17.55 -9.1 -24 0 -24 9.1 -24 15.55 -17.55 21.2 -11.9 21.9 -4.2 L21.95 3.65 Q21.45 11.15 16.3 16.75 15.8 15.25 14.35 14.35 12.1 12.8 9.65 14 L8.4 14.6 Q8.05 13.4 7.15 12.5 L7.05 12.4 Q9.35 11.25 11.3 9.3 15.25 5.35 15.9 0.05 L16 -2 M10.9 16.7 L12.7 16.85 Q13.55 17.4 13.55 18.4 L13.3 19.55 12.65 20.35 Q9.65 22.9 5.6 24.4 2.2 25.6 -2.1 25.75 L-8.4 26.25 Q-10.15 26.4 -11.5 25.3 -12.8 24.2 -12.95 22.45 -13.05 21.2 -12.5 20.15 L-12 19.35 Q-10.85 18.05 -9.15 17.9 L-7.15 17.75 -4.8 15.85 Q-3.2 14.55 -1 14.4 L3.6 14 3.65 14 Q4.4 14 5 14.6 5.55 15.15 5.55 15.95 5.55 16.6 5.15 17.1 L5.15 17.15 Q4.75 17.65 4.15 17.8 L4.2 17.8 2.1 18.65 2.7 19.05 Q4.1 19.95 5.95 19 L10.9 16.7"/>
  </g>
</svg>